%TF.GenerationSoftware,KiCad,Pcbnew,(6.0.0)*%
%TF.CreationDate,2022-08-27T11:05:42-04:00*%
%TF.ProjectId,VFD GPS Clock,56464420-4750-4532-9043-6c6f636b2e6b,rev?*%
%TF.SameCoordinates,Original*%
%TF.FileFunction,Legend,Top*%
%TF.FilePolarity,Positive*%
%FSLAX46Y46*%
G04 Gerber Fmt 4.6, Leading zero omitted, Abs format (unit mm)*
G04 Created by KiCad (PCBNEW (6.0.0)) date 2022-08-27 11:05:42*
%MOMM*%
%LPD*%
G01*
G04 APERTURE LIST*
G04 Aperture macros list*
%AMRoundRect*
0 Rectangle with rounded corners*
0 $1 Rounding radius*
0 $2 $3 $4 $5 $6 $7 $8 $9 X,Y pos of 4 corners*
0 Add a 4 corners polygon primitive as box body*
4,1,4,$2,$3,$4,$5,$6,$7,$8,$9,$2,$3,0*
0 Add four circle primitives for the rounded corners*
1,1,$1+$1,$2,$3*
1,1,$1+$1,$4,$5*
1,1,$1+$1,$6,$7*
1,1,$1+$1,$8,$9*
0 Add four rect primitives between the rounded corners*
20,1,$1+$1,$2,$3,$4,$5,0*
20,1,$1+$1,$4,$5,$6,$7,0*
20,1,$1+$1,$6,$7,$8,$9,0*
20,1,$1+$1,$8,$9,$2,$3,0*%
%AMFreePoly0*
4,1,22,0.500000,-0.750000,0.000000,-0.750000,0.000000,-0.745033,-0.079941,-0.743568,-0.215256,-0.701293,-0.333266,-0.622738,-0.424486,-0.514219,-0.481581,-0.384460,-0.499164,-0.250000,-0.500000,-0.250000,-0.500000,0.250000,-0.499164,0.250000,-0.499963,0.256109,-0.478152,0.396186,-0.417904,0.524511,-0.324060,0.630769,-0.204165,0.706417,-0.067858,0.745374,0.000000,0.744959,0.000000,0.750000,
0.500000,0.750000,0.500000,-0.750000,0.500000,-0.750000,$1*%
%AMFreePoly1*
4,1,20,0.000000,0.744959,0.073905,0.744508,0.209726,0.703889,0.328688,0.626782,0.421226,0.519385,0.479903,0.390333,0.500000,0.250000,0.500000,-0.250000,0.499851,-0.262216,0.476331,-0.402017,0.414519,-0.529596,0.319384,-0.634700,0.198574,-0.708877,0.061801,-0.746166,0.000000,-0.745033,0.000000,-0.750000,-0.500000,-0.750000,-0.500000,0.750000,0.000000,0.750000,0.000000,0.744959,
0.000000,0.744959,$1*%
G04 Aperture macros list end*
%ADD10C,0.300000*%
%ADD11C,0.150000*%
%ADD12C,0.120000*%
%ADD13C,0.127000*%
%ADD14C,0.200000*%
%ADD15C,0.400000*%
%ADD16C,0.010000*%
%ADD17RoundRect,0.237500X-0.250000X-0.237500X0.250000X-0.237500X0.250000X0.237500X-0.250000X0.237500X0*%
%ADD18RoundRect,0.237500X-0.237500X0.300000X-0.237500X-0.300000X0.237500X-0.300000X0.237500X0.300000X0*%
%ADD19RoundRect,0.237500X-0.300000X-0.237500X0.300000X-0.237500X0.300000X0.237500X-0.300000X0.237500X0*%
%ADD20FreePoly0,90.000000*%
%ADD21FreePoly1,90.000000*%
%ADD22RoundRect,0.237500X0.300000X0.237500X-0.300000X0.237500X-0.300000X-0.237500X0.300000X-0.237500X0*%
%ADD23RoundRect,0.237500X-0.237500X0.250000X-0.237500X-0.250000X0.237500X-0.250000X0.237500X0.250000X0*%
%ADD24RoundRect,0.237500X0.237500X-0.250000X0.237500X0.250000X-0.237500X0.250000X-0.237500X-0.250000X0*%
%ADD25R,1.400000X1.600000*%
%ADD26R,0.510000X0.700000*%
%ADD27RoundRect,0.150000X-0.150000X0.587500X-0.150000X-0.587500X0.150000X-0.587500X0.150000X0.587500X0*%
%ADD28RoundRect,0.100000X-0.100000X0.637500X-0.100000X-0.637500X0.100000X-0.637500X0.100000X0.637500X0*%
%ADD29R,2.200000X1.200000*%
%ADD30R,6.400000X5.800000*%
%ADD31RoundRect,0.250000X0.475000X-0.337500X0.475000X0.337500X-0.475000X0.337500X-0.475000X-0.337500X0*%
%ADD32R,1.560000X0.650000*%
%ADD33R,1.500000X0.900000*%
%ADD34R,0.900000X1.500000*%
%ADD35R,1.050000X1.050000*%
%ADD36RoundRect,0.250000X-0.337500X-0.475000X0.337500X-0.475000X0.337500X0.475000X-0.337500X0.475000X0*%
%ADD37R,0.700000X1.600000*%
%ADD38RoundRect,0.250000X-0.412500X-0.650000X0.412500X-0.650000X0.412500X0.650000X-0.412500X0.650000X0*%
%ADD39RoundRect,0.237500X0.237500X-0.300000X0.237500X0.300000X-0.237500X0.300000X-0.237500X-0.300000X0*%
%ADD40R,1.700000X1.700000*%
%ADD41O,1.700000X1.700000*%
%ADD42RoundRect,0.250000X-0.650000X0.412500X-0.650000X-0.412500X0.650000X-0.412500X0.650000X0.412500X0*%
%ADD43RoundRect,0.250000X0.400000X1.450000X-0.400000X1.450000X-0.400000X-1.450000X0.400000X-1.450000X0*%
%ADD44RoundRect,0.250000X-0.350000X-0.450000X0.350000X-0.450000X0.350000X0.450000X-0.350000X0.450000X0*%
%ADD45RoundRect,0.160000X-0.160000X0.222500X-0.160000X-0.222500X0.160000X-0.222500X0.160000X0.222500X0*%
%ADD46R,0.900000X0.800000*%
%ADD47C,6.400000*%
%ADD48RoundRect,0.250000X0.337500X0.475000X-0.337500X0.475000X-0.337500X-0.475000X0.337500X-0.475000X0*%
%ADD49RoundRect,0.150000X0.825000X0.150000X-0.825000X0.150000X-0.825000X-0.150000X0.825000X-0.150000X0*%
%ADD50R,1.800000X1.800000*%
%ADD51C,1.800000*%
%ADD52R,1.500000X2.000000*%
%ADD53R,3.800000X2.000000*%
%ADD54R,0.700000X0.340000*%
%ADD55R,3.500000X3.500000*%
%ADD56RoundRect,0.750000X0.750000X1.000000X-0.750000X1.000000X-0.750000X-1.000000X0.750000X-1.000000X0*%
%ADD57RoundRect,0.875000X0.875000X0.875000X-0.875000X0.875000X-0.875000X-0.875000X0.875000X-0.875000X0*%
%ADD58C,2.400000*%
%ADD59C,2.850000*%
G04 APERTURE END LIST*
D10*
X174128571Y-104863571D02*
X174628571Y-106363571D01*
X175128571Y-104863571D01*
X176128571Y-105577857D02*
X175628571Y-105577857D01*
X175628571Y-106363571D02*
X175628571Y-104863571D01*
X176342857Y-104863571D01*
X176914285Y-106363571D02*
X176914285Y-104863571D01*
X177271428Y-104863571D01*
X177485714Y-104935000D01*
X177628571Y-105077857D01*
X177700000Y-105220714D01*
X177771428Y-105506428D01*
X177771428Y-105720714D01*
X177700000Y-106006428D01*
X177628571Y-106149285D01*
X177485714Y-106292142D01*
X177271428Y-106363571D01*
X176914285Y-106363571D01*
X180342857Y-104935000D02*
X180200000Y-104863571D01*
X179985714Y-104863571D01*
X179771428Y-104935000D01*
X179628571Y-105077857D01*
X179557142Y-105220714D01*
X179485714Y-105506428D01*
X179485714Y-105720714D01*
X179557142Y-106006428D01*
X179628571Y-106149285D01*
X179771428Y-106292142D01*
X179985714Y-106363571D01*
X180128571Y-106363571D01*
X180342857Y-106292142D01*
X180414285Y-106220714D01*
X180414285Y-105720714D01*
X180128571Y-105720714D01*
X181057142Y-106363571D02*
X181057142Y-104863571D01*
X181628571Y-104863571D01*
X181771428Y-104935000D01*
X181842857Y-105006428D01*
X181914285Y-105149285D01*
X181914285Y-105363571D01*
X181842857Y-105506428D01*
X181771428Y-105577857D01*
X181628571Y-105649285D01*
X181057142Y-105649285D01*
X182485714Y-106292142D02*
X182700000Y-106363571D01*
X183057142Y-106363571D01*
X183200000Y-106292142D01*
X183271428Y-106220714D01*
X183342857Y-106077857D01*
X183342857Y-105935000D01*
X183271428Y-105792142D01*
X183200000Y-105720714D01*
X183057142Y-105649285D01*
X182771428Y-105577857D01*
X182628571Y-105506428D01*
X182557142Y-105435000D01*
X182485714Y-105292142D01*
X182485714Y-105149285D01*
X182557142Y-105006428D01*
X182628571Y-104935000D01*
X182771428Y-104863571D01*
X183128571Y-104863571D01*
X183342857Y-104935000D01*
X185985714Y-106220714D02*
X185914285Y-106292142D01*
X185700000Y-106363571D01*
X185557142Y-106363571D01*
X185342857Y-106292142D01*
X185200000Y-106149285D01*
X185128571Y-106006428D01*
X185057142Y-105720714D01*
X185057142Y-105506428D01*
X185128571Y-105220714D01*
X185200000Y-105077857D01*
X185342857Y-104935000D01*
X185557142Y-104863571D01*
X185700000Y-104863571D01*
X185914285Y-104935000D01*
X185985714Y-105006428D01*
X186842857Y-106363571D02*
X186700000Y-106292142D01*
X186628571Y-106149285D01*
X186628571Y-104863571D01*
X187628571Y-106363571D02*
X187485714Y-106292142D01*
X187414285Y-106220714D01*
X187342857Y-106077857D01*
X187342857Y-105649285D01*
X187414285Y-105506428D01*
X187485714Y-105435000D01*
X187628571Y-105363571D01*
X187842857Y-105363571D01*
X187985714Y-105435000D01*
X188057142Y-105506428D01*
X188128571Y-105649285D01*
X188128571Y-106077857D01*
X188057142Y-106220714D01*
X187985714Y-106292142D01*
X187842857Y-106363571D01*
X187628571Y-106363571D01*
X189414285Y-106292142D02*
X189271428Y-106363571D01*
X188985714Y-106363571D01*
X188842857Y-106292142D01*
X188771428Y-106220714D01*
X188700000Y-106077857D01*
X188700000Y-105649285D01*
X188771428Y-105506428D01*
X188842857Y-105435000D01*
X188985714Y-105363571D01*
X189271428Y-105363571D01*
X189414285Y-105435000D01*
X190057142Y-106363571D02*
X190057142Y-104863571D01*
X190200000Y-105792142D02*
X190628571Y-106363571D01*
X190628571Y-105363571D02*
X190057142Y-105935000D01*
X192414285Y-106363571D02*
X192414285Y-104863571D01*
X192914285Y-105935000D01*
X193414285Y-104863571D01*
X193414285Y-106363571D01*
X194128571Y-106363571D02*
X194128571Y-104863571D01*
X194271428Y-105792142D02*
X194700000Y-106363571D01*
X194700000Y-105363571D02*
X194128571Y-105935000D01*
X196128571Y-106363571D02*
X195271428Y-106363571D01*
X195700000Y-106363571D02*
X195700000Y-104863571D01*
X195557142Y-105077857D01*
X195414285Y-105220714D01*
X195271428Y-105292142D01*
X167700000Y-108778571D02*
X167700000Y-107278571D01*
X168271428Y-107278571D01*
X168414285Y-107350000D01*
X168485714Y-107421428D01*
X168557142Y-107564285D01*
X168557142Y-107778571D01*
X168485714Y-107921428D01*
X168414285Y-107992857D01*
X168271428Y-108064285D01*
X167700000Y-108064285D01*
X169414285Y-108778571D02*
X169271428Y-108707142D01*
X169200000Y-108635714D01*
X169128571Y-108492857D01*
X169128571Y-108064285D01*
X169200000Y-107921428D01*
X169271428Y-107850000D01*
X169414285Y-107778571D01*
X169628571Y-107778571D01*
X169771428Y-107850000D01*
X169842857Y-107921428D01*
X169914285Y-108064285D01*
X169914285Y-108492857D01*
X169842857Y-108635714D01*
X169771428Y-108707142D01*
X169628571Y-108778571D01*
X169414285Y-108778571D01*
X170414285Y-107778571D02*
X170700000Y-108778571D01*
X170985714Y-108064285D01*
X171271428Y-108778571D01*
X171557142Y-107778571D01*
X172700000Y-108707142D02*
X172557142Y-108778571D01*
X172271428Y-108778571D01*
X172128571Y-108707142D01*
X172057142Y-108564285D01*
X172057142Y-107992857D01*
X172128571Y-107850000D01*
X172271428Y-107778571D01*
X172557142Y-107778571D01*
X172700000Y-107850000D01*
X172771428Y-107992857D01*
X172771428Y-108135714D01*
X172057142Y-108278571D01*
X173414285Y-108778571D02*
X173414285Y-107778571D01*
X173414285Y-108064285D02*
X173485714Y-107921428D01*
X173557142Y-107850000D01*
X173700000Y-107778571D01*
X173842857Y-107778571D01*
X174914285Y-108707142D02*
X174771428Y-108778571D01*
X174485714Y-108778571D01*
X174342857Y-108707142D01*
X174271428Y-108564285D01*
X174271428Y-107992857D01*
X174342857Y-107850000D01*
X174485714Y-107778571D01*
X174771428Y-107778571D01*
X174914285Y-107850000D01*
X174985714Y-107992857D01*
X174985714Y-108135714D01*
X174271428Y-108278571D01*
X176271428Y-108778571D02*
X176271428Y-107278571D01*
X176271428Y-108707142D02*
X176128571Y-108778571D01*
X175842857Y-108778571D01*
X175700000Y-108707142D01*
X175628571Y-108635714D01*
X175557142Y-108492857D01*
X175557142Y-108064285D01*
X175628571Y-107921428D01*
X175700000Y-107850000D01*
X175842857Y-107778571D01*
X176128571Y-107778571D01*
X176271428Y-107850000D01*
X178128571Y-108778571D02*
X178128571Y-107278571D01*
X178128571Y-107850000D02*
X178271428Y-107778571D01*
X178557142Y-107778571D01*
X178700000Y-107850000D01*
X178771428Y-107921428D01*
X178842857Y-108064285D01*
X178842857Y-108492857D01*
X178771428Y-108635714D01*
X178700000Y-108707142D01*
X178557142Y-108778571D01*
X178271428Y-108778571D01*
X178128571Y-108707142D01*
X179342857Y-107778571D02*
X179700000Y-108778571D01*
X180057142Y-107778571D02*
X179700000Y-108778571D01*
X179557142Y-109135714D01*
X179485714Y-109207142D01*
X179342857Y-109278571D01*
X181771428Y-107278571D02*
X181771428Y-108492857D01*
X181842857Y-108635714D01*
X181914285Y-108707142D01*
X182057142Y-108778571D01*
X182342857Y-108778571D01*
X182485714Y-108707142D01*
X182557142Y-108635714D01*
X182628571Y-108492857D01*
X182628571Y-107278571D01*
X183342857Y-108207142D02*
X184485714Y-108207142D01*
X185200000Y-108778571D02*
X185200000Y-107278571D01*
X185200000Y-107850000D02*
X185342857Y-107778571D01*
X185628571Y-107778571D01*
X185771428Y-107850000D01*
X185842857Y-107921428D01*
X185914285Y-108064285D01*
X185914285Y-108492857D01*
X185842857Y-108635714D01*
X185771428Y-108707142D01*
X185628571Y-108778571D01*
X185342857Y-108778571D01*
X185200000Y-108707142D01*
X186771428Y-108778571D02*
X186628571Y-108707142D01*
X186557142Y-108564285D01*
X186557142Y-107278571D01*
X187557142Y-108778571D02*
X187414285Y-108707142D01*
X187342857Y-108635714D01*
X187271428Y-108492857D01*
X187271428Y-108064285D01*
X187342857Y-107921428D01*
X187414285Y-107850000D01*
X187557142Y-107778571D01*
X187771428Y-107778571D01*
X187914285Y-107850000D01*
X187985714Y-107921428D01*
X188057142Y-108064285D01*
X188057142Y-108492857D01*
X187985714Y-108635714D01*
X187914285Y-108707142D01*
X187771428Y-108778571D01*
X187557142Y-108778571D01*
X188557142Y-108778571D02*
X189342857Y-107778571D01*
X188557142Y-107778571D02*
X189342857Y-108778571D01*
X191700000Y-108778571D02*
X191700000Y-107992857D01*
X191628571Y-107850000D01*
X191485714Y-107778571D01*
X191200000Y-107778571D01*
X191057142Y-107850000D01*
X191700000Y-108707142D02*
X191557142Y-108778571D01*
X191200000Y-108778571D01*
X191057142Y-108707142D01*
X190985714Y-108564285D01*
X190985714Y-108421428D01*
X191057142Y-108278571D01*
X191200000Y-108207142D01*
X191557142Y-108207142D01*
X191700000Y-108135714D01*
X192414285Y-107778571D02*
X192414285Y-108778571D01*
X192414285Y-107921428D02*
X192485714Y-107850000D01*
X192628571Y-107778571D01*
X192842857Y-107778571D01*
X192985714Y-107850000D01*
X193057142Y-107992857D01*
X193057142Y-108778571D01*
X194414285Y-108778571D02*
X194414285Y-107278571D01*
X194414285Y-108707142D02*
X194271428Y-108778571D01*
X193985714Y-108778571D01*
X193842857Y-108707142D01*
X193771428Y-108635714D01*
X193700000Y-108492857D01*
X193700000Y-108064285D01*
X193771428Y-107921428D01*
X193842857Y-107850000D01*
X193985714Y-107778571D01*
X194271428Y-107778571D01*
X194414285Y-107850000D01*
X196271428Y-107992857D02*
X196771428Y-107992857D01*
X196985714Y-108778571D02*
X196271428Y-108778571D01*
X196271428Y-107278571D01*
X196985714Y-107278571D01*
X197557142Y-108707142D02*
X197771428Y-108778571D01*
X198128571Y-108778571D01*
X198271428Y-108707142D01*
X198342857Y-108635714D01*
X198414285Y-108492857D01*
X198414285Y-108350000D01*
X198342857Y-108207142D01*
X198271428Y-108135714D01*
X198128571Y-108064285D01*
X197842857Y-107992857D01*
X197700000Y-107921428D01*
X197628571Y-107850000D01*
X197557142Y-107707142D01*
X197557142Y-107564285D01*
X197628571Y-107421428D01*
X197700000Y-107350000D01*
X197842857Y-107278571D01*
X198200000Y-107278571D01*
X198414285Y-107350000D01*
X199057142Y-108778571D02*
X199057142Y-107278571D01*
X199628571Y-107278571D01*
X199771428Y-107350000D01*
X199842857Y-107421428D01*
X199914285Y-107564285D01*
X199914285Y-107778571D01*
X199842857Y-107921428D01*
X199771428Y-107992857D01*
X199628571Y-108064285D01*
X199057142Y-108064285D01*
X200414285Y-107278571D02*
X201342857Y-107278571D01*
X200842857Y-107850000D01*
X201057142Y-107850000D01*
X201200000Y-107921428D01*
X201271428Y-107992857D01*
X201342857Y-108135714D01*
X201342857Y-108492857D01*
X201271428Y-108635714D01*
X201200000Y-108707142D01*
X201057142Y-108778571D01*
X200628571Y-108778571D01*
X200485714Y-108707142D01*
X200414285Y-108635714D01*
X201914285Y-107421428D02*
X201985714Y-107350000D01*
X202128571Y-107278571D01*
X202485714Y-107278571D01*
X202628571Y-107350000D01*
X202700000Y-107421428D01*
X202771428Y-107564285D01*
X202771428Y-107707142D01*
X202700000Y-107921428D01*
X201842857Y-108778571D01*
X202771428Y-108778571D01*
X175771428Y-110050714D02*
X175628571Y-109979285D01*
X175342857Y-109979285D01*
X175200000Y-110050714D01*
X175057142Y-110193571D01*
X174985714Y-110336428D01*
X174985714Y-110622142D01*
X175057142Y-110765000D01*
X175200000Y-110907857D01*
X175342857Y-110979285D01*
X175628571Y-110979285D01*
X175771428Y-110907857D01*
X175485714Y-109479285D02*
X175128571Y-109550714D01*
X174771428Y-109765000D01*
X174557142Y-110122142D01*
X174485714Y-110479285D01*
X174557142Y-110836428D01*
X174771428Y-111193571D01*
X175128571Y-111407857D01*
X175485714Y-111479285D01*
X175842857Y-111407857D01*
X176200000Y-111193571D01*
X176414285Y-110836428D01*
X176485714Y-110479285D01*
X176414285Y-110122142D01*
X176200000Y-109765000D01*
X175842857Y-109550714D01*
X175485714Y-109479285D01*
X178200000Y-109836428D02*
X178271428Y-109765000D01*
X178414285Y-109693571D01*
X178771428Y-109693571D01*
X178914285Y-109765000D01*
X178985714Y-109836428D01*
X179057142Y-109979285D01*
X179057142Y-110122142D01*
X178985714Y-110336428D01*
X178128571Y-111193571D01*
X179057142Y-111193571D01*
X179985714Y-109693571D02*
X180128571Y-109693571D01*
X180271428Y-109765000D01*
X180342857Y-109836428D01*
X180414285Y-109979285D01*
X180485714Y-110265000D01*
X180485714Y-110622142D01*
X180414285Y-110907857D01*
X180342857Y-111050714D01*
X180271428Y-111122142D01*
X180128571Y-111193571D01*
X179985714Y-111193571D01*
X179842857Y-111122142D01*
X179771428Y-111050714D01*
X179700000Y-110907857D01*
X179628571Y-110622142D01*
X179628571Y-110265000D01*
X179700000Y-109979285D01*
X179771428Y-109836428D01*
X179842857Y-109765000D01*
X179985714Y-109693571D01*
X181057142Y-109836428D02*
X181128571Y-109765000D01*
X181271428Y-109693571D01*
X181628571Y-109693571D01*
X181771428Y-109765000D01*
X181842857Y-109836428D01*
X181914285Y-109979285D01*
X181914285Y-110122142D01*
X181842857Y-110336428D01*
X180985714Y-111193571D01*
X181914285Y-111193571D01*
X182485714Y-109836428D02*
X182557142Y-109765000D01*
X182700000Y-109693571D01*
X183057142Y-109693571D01*
X183200000Y-109765000D01*
X183271428Y-109836428D01*
X183342857Y-109979285D01*
X183342857Y-110122142D01*
X183271428Y-110336428D01*
X182414285Y-111193571D01*
X183342857Y-111193571D01*
X185057142Y-111122142D02*
X185271428Y-111193571D01*
X185628571Y-111193571D01*
X185771428Y-111122142D01*
X185842857Y-111050714D01*
X185914285Y-110907857D01*
X185914285Y-110765000D01*
X185842857Y-110622142D01*
X185771428Y-110550714D01*
X185628571Y-110479285D01*
X185342857Y-110407857D01*
X185200000Y-110336428D01*
X185128571Y-110265000D01*
X185057142Y-110122142D01*
X185057142Y-109979285D01*
X185128571Y-109836428D01*
X185200000Y-109765000D01*
X185342857Y-109693571D01*
X185700000Y-109693571D01*
X185914285Y-109765000D01*
X187200000Y-111193571D02*
X187200000Y-110407857D01*
X187128571Y-110265000D01*
X186985714Y-110193571D01*
X186700000Y-110193571D01*
X186557142Y-110265000D01*
X187200000Y-111122142D02*
X187057142Y-111193571D01*
X186700000Y-111193571D01*
X186557142Y-111122142D01*
X186485714Y-110979285D01*
X186485714Y-110836428D01*
X186557142Y-110693571D01*
X186700000Y-110622142D01*
X187057142Y-110622142D01*
X187200000Y-110550714D01*
X187914285Y-111193571D02*
X187914285Y-110193571D01*
X187914285Y-110336428D02*
X187985714Y-110265000D01*
X188128571Y-110193571D01*
X188342857Y-110193571D01*
X188485714Y-110265000D01*
X188557142Y-110407857D01*
X188557142Y-111193571D01*
X188557142Y-110407857D02*
X188628571Y-110265000D01*
X188771428Y-110193571D01*
X188985714Y-110193571D01*
X189128571Y-110265000D01*
X189200000Y-110407857D01*
X189200000Y-111193571D01*
X191557142Y-110407857D02*
X191771428Y-110479285D01*
X191842857Y-110550714D01*
X191914285Y-110693571D01*
X191914285Y-110907857D01*
X191842857Y-111050714D01*
X191771428Y-111122142D01*
X191628571Y-111193571D01*
X191057142Y-111193571D01*
X191057142Y-109693571D01*
X191557142Y-109693571D01*
X191700000Y-109765000D01*
X191771428Y-109836428D01*
X191842857Y-109979285D01*
X191842857Y-110122142D01*
X191771428Y-110265000D01*
X191700000Y-110336428D01*
X191557142Y-110407857D01*
X191057142Y-110407857D01*
X193200000Y-111193571D02*
X193200000Y-110407857D01*
X193128571Y-110265000D01*
X192985714Y-110193571D01*
X192700000Y-110193571D01*
X192557142Y-110265000D01*
X193200000Y-111122142D02*
X193057142Y-111193571D01*
X192700000Y-111193571D01*
X192557142Y-111122142D01*
X192485714Y-110979285D01*
X192485714Y-110836428D01*
X192557142Y-110693571D01*
X192700000Y-110622142D01*
X193057142Y-110622142D01*
X193200000Y-110550714D01*
X194557142Y-111122142D02*
X194414285Y-111193571D01*
X194128571Y-111193571D01*
X193985714Y-111122142D01*
X193914285Y-111050714D01*
X193842857Y-110907857D01*
X193842857Y-110479285D01*
X193914285Y-110336428D01*
X193985714Y-110265000D01*
X194128571Y-110193571D01*
X194414285Y-110193571D01*
X194557142Y-110265000D01*
X195200000Y-111193571D02*
X195200000Y-109693571D01*
X195842857Y-111193571D02*
X195842857Y-110407857D01*
X195771428Y-110265000D01*
X195628571Y-110193571D01*
X195414285Y-110193571D01*
X195271428Y-110265000D01*
X195200000Y-110336428D01*
D11*
%TO.C,R11*%
X140457142Y-119252380D02*
X140123809Y-118776190D01*
X139885714Y-119252380D02*
X139885714Y-118252380D01*
X140266666Y-118252380D01*
X140361904Y-118300000D01*
X140409523Y-118347619D01*
X140457142Y-118442857D01*
X140457142Y-118585714D01*
X140409523Y-118680952D01*
X140361904Y-118728571D01*
X140266666Y-118776190D01*
X139885714Y-118776190D01*
X141409523Y-119252380D02*
X140838095Y-119252380D01*
X141123809Y-119252380D02*
X141123809Y-118252380D01*
X141028571Y-118395238D01*
X140933333Y-118490476D01*
X140838095Y-118538095D01*
X142361904Y-119252380D02*
X141790476Y-119252380D01*
X142076190Y-119252380D02*
X142076190Y-118252380D01*
X141980952Y-118395238D01*
X141885714Y-118490476D01*
X141790476Y-118538095D01*
%TO.C,C24*%
X183157142Y-122942857D02*
X183204761Y-122990476D01*
X183252380Y-123133333D01*
X183252380Y-123228571D01*
X183204761Y-123371428D01*
X183109523Y-123466666D01*
X183014285Y-123514285D01*
X182823809Y-123561904D01*
X182680952Y-123561904D01*
X182490476Y-123514285D01*
X182395238Y-123466666D01*
X182300000Y-123371428D01*
X182252380Y-123228571D01*
X182252380Y-123133333D01*
X182300000Y-122990476D01*
X182347619Y-122942857D01*
X182347619Y-122561904D02*
X182300000Y-122514285D01*
X182252380Y-122419047D01*
X182252380Y-122180952D01*
X182300000Y-122085714D01*
X182347619Y-122038095D01*
X182442857Y-121990476D01*
X182538095Y-121990476D01*
X182680952Y-122038095D01*
X183252380Y-122609523D01*
X183252380Y-121990476D01*
X182585714Y-121133333D02*
X183252380Y-121133333D01*
X182204761Y-121371428D02*
X182919047Y-121609523D01*
X182919047Y-120990476D01*
%TO.C,C16*%
X199357142Y-134057142D02*
X199309523Y-134104761D01*
X199166666Y-134152380D01*
X199071428Y-134152380D01*
X198928571Y-134104761D01*
X198833333Y-134009523D01*
X198785714Y-133914285D01*
X198738095Y-133723809D01*
X198738095Y-133580952D01*
X198785714Y-133390476D01*
X198833333Y-133295238D01*
X198928571Y-133200000D01*
X199071428Y-133152380D01*
X199166666Y-133152380D01*
X199309523Y-133200000D01*
X199357142Y-133247619D01*
X200309523Y-134152380D02*
X199738095Y-134152380D01*
X200023809Y-134152380D02*
X200023809Y-133152380D01*
X199928571Y-133295238D01*
X199833333Y-133390476D01*
X199738095Y-133438095D01*
X201166666Y-133152380D02*
X200976190Y-133152380D01*
X200880952Y-133200000D01*
X200833333Y-133247619D01*
X200738095Y-133390476D01*
X200690476Y-133580952D01*
X200690476Y-133961904D01*
X200738095Y-134057142D01*
X200785714Y-134104761D01*
X200880952Y-134152380D01*
X201071428Y-134152380D01*
X201166666Y-134104761D01*
X201214285Y-134057142D01*
X201261904Y-133961904D01*
X201261904Y-133723809D01*
X201214285Y-133628571D01*
X201166666Y-133580952D01*
X201071428Y-133533333D01*
X200880952Y-133533333D01*
X200785714Y-133580952D01*
X200738095Y-133628571D01*
X200690476Y-133723809D01*
%TO.C,JP1*%
X56652380Y-134633333D02*
X57366666Y-134633333D01*
X57509523Y-134680952D01*
X57604761Y-134776190D01*
X57652380Y-134919047D01*
X57652380Y-135014285D01*
X57652380Y-134157142D02*
X56652380Y-134157142D01*
X56652380Y-133776190D01*
X56700000Y-133680952D01*
X56747619Y-133633333D01*
X56842857Y-133585714D01*
X56985714Y-133585714D01*
X57080952Y-133633333D01*
X57128571Y-133680952D01*
X57176190Y-133776190D01*
X57176190Y-134157142D01*
X57652380Y-132633333D02*
X57652380Y-133204761D01*
X57652380Y-132919047D02*
X56652380Y-132919047D01*
X56795238Y-133014285D01*
X56890476Y-133109523D01*
X56938095Y-133204761D01*
%TO.C,C21*%
X132357142Y-129157142D02*
X132309523Y-129204761D01*
X132166666Y-129252380D01*
X132071428Y-129252380D01*
X131928571Y-129204761D01*
X131833333Y-129109523D01*
X131785714Y-129014285D01*
X131738095Y-128823809D01*
X131738095Y-128680952D01*
X131785714Y-128490476D01*
X131833333Y-128395238D01*
X131928571Y-128300000D01*
X132071428Y-128252380D01*
X132166666Y-128252380D01*
X132309523Y-128300000D01*
X132357142Y-128347619D01*
X132738095Y-128347619D02*
X132785714Y-128300000D01*
X132880952Y-128252380D01*
X133119047Y-128252380D01*
X133214285Y-128300000D01*
X133261904Y-128347619D01*
X133309523Y-128442857D01*
X133309523Y-128538095D01*
X133261904Y-128680952D01*
X132690476Y-129252380D01*
X133309523Y-129252380D01*
X134261904Y-129252380D02*
X133690476Y-129252380D01*
X133976190Y-129252380D02*
X133976190Y-128252380D01*
X133880952Y-128395238D01*
X133785714Y-128490476D01*
X133690476Y-128538095D01*
%TO.C,R6*%
X86433333Y-113752380D02*
X86100000Y-113276190D01*
X85861904Y-113752380D02*
X85861904Y-112752380D01*
X86242857Y-112752380D01*
X86338095Y-112800000D01*
X86385714Y-112847619D01*
X86433333Y-112942857D01*
X86433333Y-113085714D01*
X86385714Y-113180952D01*
X86338095Y-113228571D01*
X86242857Y-113276190D01*
X85861904Y-113276190D01*
X87290476Y-112752380D02*
X87100000Y-112752380D01*
X87004761Y-112800000D01*
X86957142Y-112847619D01*
X86861904Y-112990476D01*
X86814285Y-113180952D01*
X86814285Y-113561904D01*
X86861904Y-113657142D01*
X86909523Y-113704761D01*
X87004761Y-113752380D01*
X87195238Y-113752380D01*
X87290476Y-113704761D01*
X87338095Y-113657142D01*
X87385714Y-113561904D01*
X87385714Y-113323809D01*
X87338095Y-113228571D01*
X87290476Y-113180952D01*
X87195238Y-113133333D01*
X87004761Y-113133333D01*
X86909523Y-113180952D01*
X86861904Y-113228571D01*
X86814285Y-113323809D01*
%TO.C,R2*%
X46152380Y-129466666D02*
X45676190Y-129800000D01*
X46152380Y-130038095D02*
X45152380Y-130038095D01*
X45152380Y-129657142D01*
X45200000Y-129561904D01*
X45247619Y-129514285D01*
X45342857Y-129466666D01*
X45485714Y-129466666D01*
X45580952Y-129514285D01*
X45628571Y-129561904D01*
X45676190Y-129657142D01*
X45676190Y-130038095D01*
X45247619Y-129085714D02*
X45200000Y-129038095D01*
X45152380Y-128942857D01*
X45152380Y-128704761D01*
X45200000Y-128609523D01*
X45247619Y-128561904D01*
X45342857Y-128514285D01*
X45438095Y-128514285D01*
X45580952Y-128561904D01*
X46152380Y-129133333D01*
X46152380Y-128514285D01*
%TO.C,SW1*%
X60469761Y-116845833D02*
X60517380Y-116702976D01*
X60517380Y-116464880D01*
X60469761Y-116369642D01*
X60422142Y-116322023D01*
X60326904Y-116274404D01*
X60231666Y-116274404D01*
X60136428Y-116322023D01*
X60088809Y-116369642D01*
X60041190Y-116464880D01*
X59993571Y-116655357D01*
X59945952Y-116750595D01*
X59898333Y-116798214D01*
X59803095Y-116845833D01*
X59707857Y-116845833D01*
X59612619Y-116798214D01*
X59565000Y-116750595D01*
X59517380Y-116655357D01*
X59517380Y-116417261D01*
X59565000Y-116274404D01*
X59517380Y-115941071D02*
X60517380Y-115702976D01*
X59803095Y-115512500D01*
X60517380Y-115322023D01*
X59517380Y-115083928D01*
X60517380Y-114179166D02*
X60517380Y-114750595D01*
X60517380Y-114464880D02*
X59517380Y-114464880D01*
X59660238Y-114560119D01*
X59755476Y-114655357D01*
X59803095Y-114750595D01*
%TO.C,U8*%
X50838095Y-111352380D02*
X50838095Y-112161904D01*
X50885714Y-112257142D01*
X50933333Y-112304761D01*
X51028571Y-112352380D01*
X51219047Y-112352380D01*
X51314285Y-112304761D01*
X51361904Y-112257142D01*
X51409523Y-112161904D01*
X51409523Y-111352380D01*
X52028571Y-111780952D02*
X51933333Y-111733333D01*
X51885714Y-111685714D01*
X51838095Y-111590476D01*
X51838095Y-111542857D01*
X51885714Y-111447619D01*
X51933333Y-111400000D01*
X52028571Y-111352380D01*
X52219047Y-111352380D01*
X52314285Y-111400000D01*
X52361904Y-111447619D01*
X52409523Y-111542857D01*
X52409523Y-111590476D01*
X52361904Y-111685714D01*
X52314285Y-111733333D01*
X52219047Y-111780952D01*
X52028571Y-111780952D01*
X51933333Y-111828571D01*
X51885714Y-111876190D01*
X51838095Y-111971428D01*
X51838095Y-112161904D01*
X51885714Y-112257142D01*
X51933333Y-112304761D01*
X52028571Y-112352380D01*
X52219047Y-112352380D01*
X52314285Y-112304761D01*
X52361904Y-112257142D01*
X52409523Y-112161904D01*
X52409523Y-111971428D01*
X52361904Y-111876190D01*
X52314285Y-111828571D01*
X52219047Y-111780952D01*
%TO.C,SW5*%
X144466666Y-105004761D02*
X144609523Y-105052380D01*
X144847619Y-105052380D01*
X144942857Y-105004761D01*
X144990476Y-104957142D01*
X145038095Y-104861904D01*
X145038095Y-104766666D01*
X144990476Y-104671428D01*
X144942857Y-104623809D01*
X144847619Y-104576190D01*
X144657142Y-104528571D01*
X144561904Y-104480952D01*
X144514285Y-104433333D01*
X144466666Y-104338095D01*
X144466666Y-104242857D01*
X144514285Y-104147619D01*
X144561904Y-104100000D01*
X144657142Y-104052380D01*
X144895238Y-104052380D01*
X145038095Y-104100000D01*
X145371428Y-104052380D02*
X145609523Y-105052380D01*
X145800000Y-104338095D01*
X145990476Y-105052380D01*
X146228571Y-104052380D01*
X147085714Y-104052380D02*
X146609523Y-104052380D01*
X146561904Y-104528571D01*
X146609523Y-104480952D01*
X146704761Y-104433333D01*
X146942857Y-104433333D01*
X147038095Y-104480952D01*
X147085714Y-104528571D01*
X147133333Y-104623809D01*
X147133333Y-104861904D01*
X147085714Y-104957142D01*
X147038095Y-105004761D01*
X146942857Y-105052380D01*
X146704761Y-105052380D01*
X146609523Y-105004761D01*
X146561904Y-104957142D01*
%TO.C,Q3*%
X78204761Y-113847619D02*
X78109523Y-113800000D01*
X78014285Y-113704761D01*
X77871428Y-113561904D01*
X77776190Y-113514285D01*
X77680952Y-113514285D01*
X77728571Y-113752380D02*
X77633333Y-113704761D01*
X77538095Y-113609523D01*
X77490476Y-113419047D01*
X77490476Y-113085714D01*
X77538095Y-112895238D01*
X77633333Y-112800000D01*
X77728571Y-112752380D01*
X77919047Y-112752380D01*
X78014285Y-112800000D01*
X78109523Y-112895238D01*
X78157142Y-113085714D01*
X78157142Y-113419047D01*
X78109523Y-113609523D01*
X78014285Y-113704761D01*
X77919047Y-113752380D01*
X77728571Y-113752380D01*
X78490476Y-112752380D02*
X79109523Y-112752380D01*
X78776190Y-113133333D01*
X78919047Y-113133333D01*
X79014285Y-113180952D01*
X79061904Y-113228571D01*
X79109523Y-113323809D01*
X79109523Y-113561904D01*
X79061904Y-113657142D01*
X79014285Y-113704761D01*
X78919047Y-113752380D01*
X78633333Y-113752380D01*
X78538095Y-113704761D01*
X78490476Y-113657142D01*
%TO.C,U9*%
X172652380Y-129561904D02*
X173461904Y-129561904D01*
X173557142Y-129514285D01*
X173604761Y-129466666D01*
X173652380Y-129371428D01*
X173652380Y-129180952D01*
X173604761Y-129085714D01*
X173557142Y-129038095D01*
X173461904Y-128990476D01*
X172652380Y-128990476D01*
X173652380Y-128466666D02*
X173652380Y-128276190D01*
X173604761Y-128180952D01*
X173557142Y-128133333D01*
X173414285Y-128038095D01*
X173223809Y-127990476D01*
X172842857Y-127990476D01*
X172747619Y-128038095D01*
X172700000Y-128085714D01*
X172652380Y-128180952D01*
X172652380Y-128371428D01*
X172700000Y-128466666D01*
X172747619Y-128514285D01*
X172842857Y-128561904D01*
X173080952Y-128561904D01*
X173176190Y-128514285D01*
X173223809Y-128466666D01*
X173271428Y-128371428D01*
X173271428Y-128180952D01*
X173223809Y-128085714D01*
X173176190Y-128038095D01*
X173080952Y-127990476D01*
%TO.C,Q2*%
X218204761Y-119547619D02*
X218109523Y-119500000D01*
X218014285Y-119404761D01*
X217871428Y-119261904D01*
X217776190Y-119214285D01*
X217680952Y-119214285D01*
X217728571Y-119452380D02*
X217633333Y-119404761D01*
X217538095Y-119309523D01*
X217490476Y-119119047D01*
X217490476Y-118785714D01*
X217538095Y-118595238D01*
X217633333Y-118500000D01*
X217728571Y-118452380D01*
X217919047Y-118452380D01*
X218014285Y-118500000D01*
X218109523Y-118595238D01*
X218157142Y-118785714D01*
X218157142Y-119119047D01*
X218109523Y-119309523D01*
X218014285Y-119404761D01*
X217919047Y-119452380D01*
X217728571Y-119452380D01*
X218538095Y-118547619D02*
X218585714Y-118500000D01*
X218680952Y-118452380D01*
X218919047Y-118452380D01*
X219014285Y-118500000D01*
X219061904Y-118547619D01*
X219109523Y-118642857D01*
X219109523Y-118738095D01*
X219061904Y-118880952D01*
X218490476Y-119452380D01*
X219109523Y-119452380D01*
%TO.C,C23*%
X145082142Y-129157142D02*
X145034523Y-129204761D01*
X144891666Y-129252380D01*
X144796428Y-129252380D01*
X144653571Y-129204761D01*
X144558333Y-129109523D01*
X144510714Y-129014285D01*
X144463095Y-128823809D01*
X144463095Y-128680952D01*
X144510714Y-128490476D01*
X144558333Y-128395238D01*
X144653571Y-128300000D01*
X144796428Y-128252380D01*
X144891666Y-128252380D01*
X145034523Y-128300000D01*
X145082142Y-128347619D01*
X145463095Y-128347619D02*
X145510714Y-128300000D01*
X145605952Y-128252380D01*
X145844047Y-128252380D01*
X145939285Y-128300000D01*
X145986904Y-128347619D01*
X146034523Y-128442857D01*
X146034523Y-128538095D01*
X145986904Y-128680952D01*
X145415476Y-129252380D01*
X146034523Y-129252380D01*
X146367857Y-128252380D02*
X146986904Y-128252380D01*
X146653571Y-128633333D01*
X146796428Y-128633333D01*
X146891666Y-128680952D01*
X146939285Y-128728571D01*
X146986904Y-128823809D01*
X146986904Y-129061904D01*
X146939285Y-129157142D01*
X146891666Y-129204761D01*
X146796428Y-129252380D01*
X146510714Y-129252380D01*
X146415476Y-129204761D01*
X146367857Y-129157142D01*
%TO.C,C14*%
X215757142Y-139657142D02*
X215709523Y-139704761D01*
X215566666Y-139752380D01*
X215471428Y-139752380D01*
X215328571Y-139704761D01*
X215233333Y-139609523D01*
X215185714Y-139514285D01*
X215138095Y-139323809D01*
X215138095Y-139180952D01*
X215185714Y-138990476D01*
X215233333Y-138895238D01*
X215328571Y-138800000D01*
X215471428Y-138752380D01*
X215566666Y-138752380D01*
X215709523Y-138800000D01*
X215757142Y-138847619D01*
X216709523Y-139752380D02*
X216138095Y-139752380D01*
X216423809Y-139752380D02*
X216423809Y-138752380D01*
X216328571Y-138895238D01*
X216233333Y-138990476D01*
X216138095Y-139038095D01*
X217566666Y-139085714D02*
X217566666Y-139752380D01*
X217328571Y-138704761D02*
X217090476Y-139419047D01*
X217709523Y-139419047D01*
%TO.C,C6*%
X191357142Y-122066666D02*
X191404761Y-122114285D01*
X191452380Y-122257142D01*
X191452380Y-122352380D01*
X191404761Y-122495238D01*
X191309523Y-122590476D01*
X191214285Y-122638095D01*
X191023809Y-122685714D01*
X190880952Y-122685714D01*
X190690476Y-122638095D01*
X190595238Y-122590476D01*
X190500000Y-122495238D01*
X190452380Y-122352380D01*
X190452380Y-122257142D01*
X190500000Y-122114285D01*
X190547619Y-122066666D01*
X190452380Y-121209523D02*
X190452380Y-121400000D01*
X190500000Y-121495238D01*
X190547619Y-121542857D01*
X190690476Y-121638095D01*
X190880952Y-121685714D01*
X191261904Y-121685714D01*
X191357142Y-121638095D01*
X191404761Y-121590476D01*
X191452380Y-121495238D01*
X191452380Y-121304761D01*
X191404761Y-121209523D01*
X191357142Y-121161904D01*
X191261904Y-121114285D01*
X191023809Y-121114285D01*
X190928571Y-121161904D01*
X190880952Y-121209523D01*
X190833333Y-121304761D01*
X190833333Y-121495238D01*
X190880952Y-121590476D01*
X190928571Y-121638095D01*
X191023809Y-121685714D01*
%TO.C,R9*%
X52082380Y-138666666D02*
X51606190Y-139000000D01*
X52082380Y-139238095D02*
X51082380Y-139238095D01*
X51082380Y-138857142D01*
X51130000Y-138761904D01*
X51177619Y-138714285D01*
X51272857Y-138666666D01*
X51415714Y-138666666D01*
X51510952Y-138714285D01*
X51558571Y-138761904D01*
X51606190Y-138857142D01*
X51606190Y-139238095D01*
X52082380Y-138190476D02*
X52082380Y-138000000D01*
X52034761Y-137904761D01*
X51987142Y-137857142D01*
X51844285Y-137761904D01*
X51653809Y-137714285D01*
X51272857Y-137714285D01*
X51177619Y-137761904D01*
X51130000Y-137809523D01*
X51082380Y-137904761D01*
X51082380Y-138095238D01*
X51130000Y-138190476D01*
X51177619Y-138238095D01*
X51272857Y-138285714D01*
X51510952Y-138285714D01*
X51606190Y-138238095D01*
X51653809Y-138190476D01*
X51701428Y-138095238D01*
X51701428Y-137904761D01*
X51653809Y-137809523D01*
X51606190Y-137761904D01*
X51510952Y-137714285D01*
%TO.C,U6*%
X39138095Y-133352380D02*
X39138095Y-134161904D01*
X39185714Y-134257142D01*
X39233333Y-134304761D01*
X39328571Y-134352380D01*
X39519047Y-134352380D01*
X39614285Y-134304761D01*
X39661904Y-134257142D01*
X39709523Y-134161904D01*
X39709523Y-133352380D01*
X40614285Y-133352380D02*
X40423809Y-133352380D01*
X40328571Y-133400000D01*
X40280952Y-133447619D01*
X40185714Y-133590476D01*
X40138095Y-133780952D01*
X40138095Y-134161904D01*
X40185714Y-134257142D01*
X40233333Y-134304761D01*
X40328571Y-134352380D01*
X40519047Y-134352380D01*
X40614285Y-134304761D01*
X40661904Y-134257142D01*
X40709523Y-134161904D01*
X40709523Y-133923809D01*
X40661904Y-133828571D01*
X40614285Y-133780952D01*
X40519047Y-133733333D01*
X40328571Y-133733333D01*
X40233333Y-133780952D01*
X40185714Y-133828571D01*
X40138095Y-133923809D01*
%TO.C,Q4*%
X83704761Y-113847619D02*
X83609523Y-113800000D01*
X83514285Y-113704761D01*
X83371428Y-113561904D01*
X83276190Y-113514285D01*
X83180952Y-113514285D01*
X83228571Y-113752380D02*
X83133333Y-113704761D01*
X83038095Y-113609523D01*
X82990476Y-113419047D01*
X82990476Y-113085714D01*
X83038095Y-112895238D01*
X83133333Y-112800000D01*
X83228571Y-112752380D01*
X83419047Y-112752380D01*
X83514285Y-112800000D01*
X83609523Y-112895238D01*
X83657142Y-113085714D01*
X83657142Y-113419047D01*
X83609523Y-113609523D01*
X83514285Y-113704761D01*
X83419047Y-113752380D01*
X83228571Y-113752380D01*
X84514285Y-113085714D02*
X84514285Y-113752380D01*
X84276190Y-112704761D02*
X84038095Y-113419047D01*
X84657142Y-113419047D01*
%TO.C,U1*%
X116338095Y-115852380D02*
X116338095Y-116661904D01*
X116385714Y-116757142D01*
X116433333Y-116804761D01*
X116528571Y-116852380D01*
X116719047Y-116852380D01*
X116814285Y-116804761D01*
X116861904Y-116757142D01*
X116909523Y-116661904D01*
X116909523Y-115852380D01*
X117909523Y-116852380D02*
X117338095Y-116852380D01*
X117623809Y-116852380D02*
X117623809Y-115852380D01*
X117528571Y-115995238D01*
X117433333Y-116090476D01*
X117338095Y-116138095D01*
X103388095Y-140841666D02*
X103864285Y-140841666D01*
X103292857Y-141127380D02*
X103626190Y-140127380D01*
X103959523Y-141127380D01*
X104292857Y-140460714D02*
X104292857Y-141127380D01*
X104292857Y-140555952D02*
X104340476Y-140508333D01*
X104435714Y-140460714D01*
X104578571Y-140460714D01*
X104673809Y-140508333D01*
X104721428Y-140603571D01*
X104721428Y-141127380D01*
X105054761Y-140460714D02*
X105435714Y-140460714D01*
X105197619Y-140127380D02*
X105197619Y-140984523D01*
X105245238Y-141079761D01*
X105340476Y-141127380D01*
X105435714Y-141127380D01*
X106150000Y-141079761D02*
X106054761Y-141127380D01*
X105864285Y-141127380D01*
X105769047Y-141079761D01*
X105721428Y-140984523D01*
X105721428Y-140603571D01*
X105769047Y-140508333D01*
X105864285Y-140460714D01*
X106054761Y-140460714D01*
X106150000Y-140508333D01*
X106197619Y-140603571D01*
X106197619Y-140698809D01*
X105721428Y-140794047D01*
X106626190Y-140460714D02*
X106626190Y-141127380D01*
X106626190Y-140555952D02*
X106673809Y-140508333D01*
X106769047Y-140460714D01*
X106911904Y-140460714D01*
X107007142Y-140508333D01*
X107054761Y-140603571D01*
X107054761Y-141127380D01*
X107530952Y-140460714D02*
X107530952Y-141127380D01*
X107530952Y-140555952D02*
X107578571Y-140508333D01*
X107673809Y-140460714D01*
X107816666Y-140460714D01*
X107911904Y-140508333D01*
X107959523Y-140603571D01*
X107959523Y-141127380D01*
X108864285Y-141127380D02*
X108864285Y-140603571D01*
X108816666Y-140508333D01*
X108721428Y-140460714D01*
X108530952Y-140460714D01*
X108435714Y-140508333D01*
X108864285Y-141079761D02*
X108769047Y-141127380D01*
X108530952Y-141127380D01*
X108435714Y-141079761D01*
X108388095Y-140984523D01*
X108388095Y-140889285D01*
X108435714Y-140794047D01*
X108530952Y-140746428D01*
X108769047Y-140746428D01*
X108864285Y-140698809D01*
X110054761Y-140841666D02*
X110530952Y-140841666D01*
X109959523Y-141127380D02*
X110292857Y-140127380D01*
X110626190Y-141127380D01*
X110959523Y-141127380D02*
X110959523Y-140460714D01*
X110959523Y-140651190D02*
X111007142Y-140555952D01*
X111054761Y-140508333D01*
X111150000Y-140460714D01*
X111245238Y-140460714D01*
X111959523Y-141079761D02*
X111864285Y-141127380D01*
X111673809Y-141127380D01*
X111578571Y-141079761D01*
X111530952Y-140984523D01*
X111530952Y-140603571D01*
X111578571Y-140508333D01*
X111673809Y-140460714D01*
X111864285Y-140460714D01*
X111959523Y-140508333D01*
X112007142Y-140603571D01*
X112007142Y-140698809D01*
X111530952Y-140794047D01*
X112864285Y-141127380D02*
X112864285Y-140603571D01*
X112816666Y-140508333D01*
X112721428Y-140460714D01*
X112530952Y-140460714D01*
X112435714Y-140508333D01*
X112864285Y-141079761D02*
X112769047Y-141127380D01*
X112530952Y-141127380D01*
X112435714Y-141079761D01*
X112388095Y-140984523D01*
X112388095Y-140889285D01*
X112435714Y-140794047D01*
X112530952Y-140746428D01*
X112769047Y-140746428D01*
X112864285Y-140698809D01*
%TO.C,C4*%
X216233333Y-137657142D02*
X216185714Y-137704761D01*
X216042857Y-137752380D01*
X215947619Y-137752380D01*
X215804761Y-137704761D01*
X215709523Y-137609523D01*
X215661904Y-137514285D01*
X215614285Y-137323809D01*
X215614285Y-137180952D01*
X215661904Y-136990476D01*
X215709523Y-136895238D01*
X215804761Y-136800000D01*
X215947619Y-136752380D01*
X216042857Y-136752380D01*
X216185714Y-136800000D01*
X216233333Y-136847619D01*
X217090476Y-137085714D02*
X217090476Y-137752380D01*
X216852380Y-136704761D02*
X216614285Y-137419047D01*
X217233333Y-137419047D01*
%TO.C,U10*%
X112449523Y-103510380D02*
X112967619Y-103510380D01*
X113028571Y-103479904D01*
X113059047Y-103449428D01*
X113089523Y-103388476D01*
X113089523Y-103266571D01*
X113059047Y-103205619D01*
X113028571Y-103175142D01*
X112967619Y-103144666D01*
X112449523Y-103144666D01*
X113089523Y-102504666D02*
X113089523Y-102870380D01*
X113089523Y-102687523D02*
X112449523Y-102687523D01*
X112540952Y-102748476D01*
X112601904Y-102809428D01*
X112632380Y-102870380D01*
X112449523Y-102108476D02*
X112449523Y-102047523D01*
X112480000Y-101986571D01*
X112510476Y-101956095D01*
X112571428Y-101925619D01*
X112693333Y-101895142D01*
X112845714Y-101895142D01*
X112967619Y-101925619D01*
X113028571Y-101956095D01*
X113059047Y-101986571D01*
X113089523Y-102047523D01*
X113089523Y-102108476D01*
X113059047Y-102169428D01*
X113028571Y-102199904D01*
X112967619Y-102230380D01*
X112845714Y-102260857D01*
X112693333Y-102260857D01*
X112571428Y-102230380D01*
X112510476Y-102199904D01*
X112480000Y-102169428D01*
X112449523Y-102108476D01*
%TO.C,C28*%
X144157142Y-119157142D02*
X144109523Y-119204761D01*
X143966666Y-119252380D01*
X143871428Y-119252380D01*
X143728571Y-119204761D01*
X143633333Y-119109523D01*
X143585714Y-119014285D01*
X143538095Y-118823809D01*
X143538095Y-118680952D01*
X143585714Y-118490476D01*
X143633333Y-118395238D01*
X143728571Y-118300000D01*
X143871428Y-118252380D01*
X143966666Y-118252380D01*
X144109523Y-118300000D01*
X144157142Y-118347619D01*
X144538095Y-118347619D02*
X144585714Y-118300000D01*
X144680952Y-118252380D01*
X144919047Y-118252380D01*
X145014285Y-118300000D01*
X145061904Y-118347619D01*
X145109523Y-118442857D01*
X145109523Y-118538095D01*
X145061904Y-118680952D01*
X144490476Y-119252380D01*
X145109523Y-119252380D01*
X145680952Y-118680952D02*
X145585714Y-118633333D01*
X145538095Y-118585714D01*
X145490476Y-118490476D01*
X145490476Y-118442857D01*
X145538095Y-118347619D01*
X145585714Y-118300000D01*
X145680952Y-118252380D01*
X145871428Y-118252380D01*
X145966666Y-118300000D01*
X146014285Y-118347619D01*
X146061904Y-118442857D01*
X146061904Y-118490476D01*
X146014285Y-118585714D01*
X145966666Y-118633333D01*
X145871428Y-118680952D01*
X145680952Y-118680952D01*
X145585714Y-118728571D01*
X145538095Y-118776190D01*
X145490476Y-118871428D01*
X145490476Y-119061904D01*
X145538095Y-119157142D01*
X145585714Y-119204761D01*
X145680952Y-119252380D01*
X145871428Y-119252380D01*
X145966666Y-119204761D01*
X146014285Y-119157142D01*
X146061904Y-119061904D01*
X146061904Y-118871428D01*
X146014285Y-118776190D01*
X145966666Y-118728571D01*
X145871428Y-118680952D01*
%TO.C,C3*%
X217433333Y-132557142D02*
X217385714Y-132604761D01*
X217242857Y-132652380D01*
X217147619Y-132652380D01*
X217004761Y-132604761D01*
X216909523Y-132509523D01*
X216861904Y-132414285D01*
X216814285Y-132223809D01*
X216814285Y-132080952D01*
X216861904Y-131890476D01*
X216909523Y-131795238D01*
X217004761Y-131700000D01*
X217147619Y-131652380D01*
X217242857Y-131652380D01*
X217385714Y-131700000D01*
X217433333Y-131747619D01*
X217766666Y-131652380D02*
X218385714Y-131652380D01*
X218052380Y-132033333D01*
X218195238Y-132033333D01*
X218290476Y-132080952D01*
X218338095Y-132128571D01*
X218385714Y-132223809D01*
X218385714Y-132461904D01*
X218338095Y-132557142D01*
X218290476Y-132604761D01*
X218195238Y-132652380D01*
X217909523Y-132652380D01*
X217814285Y-132604761D01*
X217766666Y-132557142D01*
%TO.C,R5*%
X80933333Y-113752380D02*
X80600000Y-113276190D01*
X80361904Y-113752380D02*
X80361904Y-112752380D01*
X80742857Y-112752380D01*
X80838095Y-112800000D01*
X80885714Y-112847619D01*
X80933333Y-112942857D01*
X80933333Y-113085714D01*
X80885714Y-113180952D01*
X80838095Y-113228571D01*
X80742857Y-113276190D01*
X80361904Y-113276190D01*
X81838095Y-112752380D02*
X81361904Y-112752380D01*
X81314285Y-113228571D01*
X81361904Y-113180952D01*
X81457142Y-113133333D01*
X81695238Y-113133333D01*
X81790476Y-113180952D01*
X81838095Y-113228571D01*
X81885714Y-113323809D01*
X81885714Y-113561904D01*
X81838095Y-113657142D01*
X81790476Y-113704761D01*
X81695238Y-113752380D01*
X81457142Y-113752380D01*
X81361904Y-113704761D01*
X81314285Y-113657142D01*
%TO.C,R7*%
X122333333Y-135322380D02*
X122000000Y-134846190D01*
X121761904Y-135322380D02*
X121761904Y-134322380D01*
X122142857Y-134322380D01*
X122238095Y-134370000D01*
X122285714Y-134417619D01*
X122333333Y-134512857D01*
X122333333Y-134655714D01*
X122285714Y-134750952D01*
X122238095Y-134798571D01*
X122142857Y-134846190D01*
X121761904Y-134846190D01*
X122666666Y-134322380D02*
X123333333Y-134322380D01*
X122904761Y-135322380D01*
%TO.C,C17*%
X50857142Y-119092857D02*
X50904761Y-119140476D01*
X50952380Y-119283333D01*
X50952380Y-119378571D01*
X50904761Y-119521428D01*
X50809523Y-119616666D01*
X50714285Y-119664285D01*
X50523809Y-119711904D01*
X50380952Y-119711904D01*
X50190476Y-119664285D01*
X50095238Y-119616666D01*
X50000000Y-119521428D01*
X49952380Y-119378571D01*
X49952380Y-119283333D01*
X50000000Y-119140476D01*
X50047619Y-119092857D01*
X50952380Y-118140476D02*
X50952380Y-118711904D01*
X50952380Y-118426190D02*
X49952380Y-118426190D01*
X50095238Y-118521428D01*
X50190476Y-118616666D01*
X50238095Y-118711904D01*
X49952380Y-117807142D02*
X49952380Y-117140476D01*
X50952380Y-117569047D01*
%TO.C,J3*%
X78666666Y-101952380D02*
X78666666Y-102666666D01*
X78619047Y-102809523D01*
X78523809Y-102904761D01*
X78380952Y-102952380D01*
X78285714Y-102952380D01*
X79047619Y-101952380D02*
X79666666Y-101952380D01*
X79333333Y-102333333D01*
X79476190Y-102333333D01*
X79571428Y-102380952D01*
X79619047Y-102428571D01*
X79666666Y-102523809D01*
X79666666Y-102761904D01*
X79619047Y-102857142D01*
X79571428Y-102904761D01*
X79476190Y-102952380D01*
X79190476Y-102952380D01*
X79095238Y-102904761D01*
X79047619Y-102857142D01*
%TO.C,SW4*%
X131666666Y-105004761D02*
X131809523Y-105052380D01*
X132047619Y-105052380D01*
X132142857Y-105004761D01*
X132190476Y-104957142D01*
X132238095Y-104861904D01*
X132238095Y-104766666D01*
X132190476Y-104671428D01*
X132142857Y-104623809D01*
X132047619Y-104576190D01*
X131857142Y-104528571D01*
X131761904Y-104480952D01*
X131714285Y-104433333D01*
X131666666Y-104338095D01*
X131666666Y-104242857D01*
X131714285Y-104147619D01*
X131761904Y-104100000D01*
X131857142Y-104052380D01*
X132095238Y-104052380D01*
X132238095Y-104100000D01*
X132571428Y-104052380D02*
X132809523Y-105052380D01*
X133000000Y-104338095D01*
X133190476Y-105052380D01*
X133428571Y-104052380D01*
X134238095Y-104385714D02*
X134238095Y-105052380D01*
X134000000Y-104004761D02*
X133761904Y-104719047D01*
X134380952Y-104719047D01*
%TO.C,C2*%
X209657142Y-107666666D02*
X209704761Y-107714285D01*
X209752380Y-107857142D01*
X209752380Y-107952380D01*
X209704761Y-108095238D01*
X209609523Y-108190476D01*
X209514285Y-108238095D01*
X209323809Y-108285714D01*
X209180952Y-108285714D01*
X208990476Y-108238095D01*
X208895238Y-108190476D01*
X208800000Y-108095238D01*
X208752380Y-107952380D01*
X208752380Y-107857142D01*
X208800000Y-107714285D01*
X208847619Y-107666666D01*
X208847619Y-107285714D02*
X208800000Y-107238095D01*
X208752380Y-107142857D01*
X208752380Y-106904761D01*
X208800000Y-106809523D01*
X208847619Y-106761904D01*
X208942857Y-106714285D01*
X209038095Y-106714285D01*
X209180952Y-106761904D01*
X209752380Y-107333333D01*
X209752380Y-106714285D01*
%TO.C,C27*%
X131457142Y-119157142D02*
X131409523Y-119204761D01*
X131266666Y-119252380D01*
X131171428Y-119252380D01*
X131028571Y-119204761D01*
X130933333Y-119109523D01*
X130885714Y-119014285D01*
X130838095Y-118823809D01*
X130838095Y-118680952D01*
X130885714Y-118490476D01*
X130933333Y-118395238D01*
X131028571Y-118300000D01*
X131171428Y-118252380D01*
X131266666Y-118252380D01*
X131409523Y-118300000D01*
X131457142Y-118347619D01*
X131838095Y-118347619D02*
X131885714Y-118300000D01*
X131980952Y-118252380D01*
X132219047Y-118252380D01*
X132314285Y-118300000D01*
X132361904Y-118347619D01*
X132409523Y-118442857D01*
X132409523Y-118538095D01*
X132361904Y-118680952D01*
X131790476Y-119252380D01*
X132409523Y-119252380D01*
X132742857Y-118252380D02*
X133409523Y-118252380D01*
X132980952Y-119252380D01*
%TO.C,F1*%
X215566666Y-124128571D02*
X215233333Y-124128571D01*
X215233333Y-124652380D02*
X215233333Y-123652380D01*
X215709523Y-123652380D01*
X216614285Y-124652380D02*
X216042857Y-124652380D01*
X216328571Y-124652380D02*
X216328571Y-123652380D01*
X216233333Y-123795238D01*
X216138095Y-123890476D01*
X216042857Y-123938095D01*
%TO.C,R1*%
X36533333Y-134452380D02*
X36200000Y-133976190D01*
X35961904Y-134452380D02*
X35961904Y-133452380D01*
X36342857Y-133452380D01*
X36438095Y-133500000D01*
X36485714Y-133547619D01*
X36533333Y-133642857D01*
X36533333Y-133785714D01*
X36485714Y-133880952D01*
X36438095Y-133928571D01*
X36342857Y-133976190D01*
X35961904Y-133976190D01*
X37485714Y-134452380D02*
X36914285Y-134452380D01*
X37200000Y-134452380D02*
X37200000Y-133452380D01*
X37104761Y-133595238D01*
X37009523Y-133690476D01*
X36914285Y-133738095D01*
%TO.C,SW6*%
X157166666Y-105004761D02*
X157309523Y-105052380D01*
X157547619Y-105052380D01*
X157642857Y-105004761D01*
X157690476Y-104957142D01*
X157738095Y-104861904D01*
X157738095Y-104766666D01*
X157690476Y-104671428D01*
X157642857Y-104623809D01*
X157547619Y-104576190D01*
X157357142Y-104528571D01*
X157261904Y-104480952D01*
X157214285Y-104433333D01*
X157166666Y-104338095D01*
X157166666Y-104242857D01*
X157214285Y-104147619D01*
X157261904Y-104100000D01*
X157357142Y-104052380D01*
X157595238Y-104052380D01*
X157738095Y-104100000D01*
X158071428Y-104052380D02*
X158309523Y-105052380D01*
X158500000Y-104338095D01*
X158690476Y-105052380D01*
X158928571Y-104052380D01*
X159738095Y-104052380D02*
X159547619Y-104052380D01*
X159452380Y-104100000D01*
X159404761Y-104147619D01*
X159309523Y-104290476D01*
X159261904Y-104480952D01*
X159261904Y-104861904D01*
X159309523Y-104957142D01*
X159357142Y-105004761D01*
X159452380Y-105052380D01*
X159642857Y-105052380D01*
X159738095Y-105004761D01*
X159785714Y-104957142D01*
X159833333Y-104861904D01*
X159833333Y-104623809D01*
X159785714Y-104528571D01*
X159738095Y-104480952D01*
X159642857Y-104433333D01*
X159452380Y-104433333D01*
X159357142Y-104480952D01*
X159309523Y-104528571D01*
X159261904Y-104623809D01*
%TO.C,R4*%
X74652380Y-109266666D02*
X74176190Y-109600000D01*
X74652380Y-109838095D02*
X73652380Y-109838095D01*
X73652380Y-109457142D01*
X73700000Y-109361904D01*
X73747619Y-109314285D01*
X73842857Y-109266666D01*
X73985714Y-109266666D01*
X74080952Y-109314285D01*
X74128571Y-109361904D01*
X74176190Y-109457142D01*
X74176190Y-109838095D01*
X73985714Y-108409523D02*
X74652380Y-108409523D01*
X73604761Y-108647619D02*
X74319047Y-108885714D01*
X74319047Y-108266666D01*
%TO.C,SW3*%
X141604761Y-139033333D02*
X141652380Y-138890476D01*
X141652380Y-138652380D01*
X141604761Y-138557142D01*
X141557142Y-138509523D01*
X141461904Y-138461904D01*
X141366666Y-138461904D01*
X141271428Y-138509523D01*
X141223809Y-138557142D01*
X141176190Y-138652380D01*
X141128571Y-138842857D01*
X141080952Y-138938095D01*
X141033333Y-138985714D01*
X140938095Y-139033333D01*
X140842857Y-139033333D01*
X140747619Y-138985714D01*
X140700000Y-138938095D01*
X140652380Y-138842857D01*
X140652380Y-138604761D01*
X140700000Y-138461904D01*
X140652380Y-138128571D02*
X141652380Y-137890476D01*
X140938095Y-137700000D01*
X141652380Y-137509523D01*
X140652380Y-137271428D01*
X140652380Y-136985714D02*
X140652380Y-136366666D01*
X141033333Y-136700000D01*
X141033333Y-136557142D01*
X141080952Y-136461904D01*
X141128571Y-136414285D01*
X141223809Y-136366666D01*
X141461904Y-136366666D01*
X141557142Y-136414285D01*
X141604761Y-136461904D01*
X141652380Y-136557142D01*
X141652380Y-136842857D01*
X141604761Y-136938095D01*
X141557142Y-136985714D01*
%TO.C,C20*%
X121957142Y-142942857D02*
X122004761Y-142990476D01*
X122052380Y-143133333D01*
X122052380Y-143228571D01*
X122004761Y-143371428D01*
X121909523Y-143466666D01*
X121814285Y-143514285D01*
X121623809Y-143561904D01*
X121480952Y-143561904D01*
X121290476Y-143514285D01*
X121195238Y-143466666D01*
X121100000Y-143371428D01*
X121052380Y-143228571D01*
X121052380Y-143133333D01*
X121100000Y-142990476D01*
X121147619Y-142942857D01*
X121147619Y-142561904D02*
X121100000Y-142514285D01*
X121052380Y-142419047D01*
X121052380Y-142180952D01*
X121100000Y-142085714D01*
X121147619Y-142038095D01*
X121242857Y-141990476D01*
X121338095Y-141990476D01*
X121480952Y-142038095D01*
X122052380Y-142609523D01*
X122052380Y-141990476D01*
X121052380Y-141371428D02*
X121052380Y-141276190D01*
X121100000Y-141180952D01*
X121147619Y-141133333D01*
X121242857Y-141085714D01*
X121433333Y-141038095D01*
X121671428Y-141038095D01*
X121861904Y-141085714D01*
X121957142Y-141133333D01*
X122004761Y-141180952D01*
X122052380Y-141276190D01*
X122052380Y-141371428D01*
X122004761Y-141466666D01*
X121957142Y-141514285D01*
X121861904Y-141561904D01*
X121671428Y-141609523D01*
X121433333Y-141609523D01*
X121242857Y-141561904D01*
X121147619Y-141514285D01*
X121100000Y-141466666D01*
X121052380Y-141371428D01*
%TO.C,L1*%
X38052380Y-129266666D02*
X38052380Y-129742857D01*
X37052380Y-129742857D01*
X38052380Y-128409523D02*
X38052380Y-128980952D01*
X38052380Y-128695238D02*
X37052380Y-128695238D01*
X37195238Y-128790476D01*
X37290476Y-128885714D01*
X37338095Y-128980952D01*
%TO.C,D1*%
X207561904Y-110952380D02*
X207561904Y-109952380D01*
X207800000Y-109952380D01*
X207942857Y-110000000D01*
X208038095Y-110095238D01*
X208085714Y-110190476D01*
X208133333Y-110380952D01*
X208133333Y-110523809D01*
X208085714Y-110714285D01*
X208038095Y-110809523D01*
X207942857Y-110904761D01*
X207800000Y-110952380D01*
X207561904Y-110952380D01*
X209085714Y-110952380D02*
X208514285Y-110952380D01*
X208800000Y-110952380D02*
X208800000Y-109952380D01*
X208704761Y-110095238D01*
X208609523Y-110190476D01*
X208514285Y-110238095D01*
%TO.C,R12*%
X153157142Y-119252380D02*
X152823809Y-118776190D01*
X152585714Y-119252380D02*
X152585714Y-118252380D01*
X152966666Y-118252380D01*
X153061904Y-118300000D01*
X153109523Y-118347619D01*
X153157142Y-118442857D01*
X153157142Y-118585714D01*
X153109523Y-118680952D01*
X153061904Y-118728571D01*
X152966666Y-118776190D01*
X152585714Y-118776190D01*
X154109523Y-119252380D02*
X153538095Y-119252380D01*
X153823809Y-119252380D02*
X153823809Y-118252380D01*
X153728571Y-118395238D01*
X153633333Y-118490476D01*
X153538095Y-118538095D01*
X154490476Y-118347619D02*
X154538095Y-118300000D01*
X154633333Y-118252380D01*
X154871428Y-118252380D01*
X154966666Y-118300000D01*
X155014285Y-118347619D01*
X155061904Y-118442857D01*
X155061904Y-118538095D01*
X155014285Y-118680952D01*
X154442857Y-119252380D01*
X155061904Y-119252380D01*
%TO.C,C8*%
X119957142Y-140966666D02*
X120004761Y-141014285D01*
X120052380Y-141157142D01*
X120052380Y-141252380D01*
X120004761Y-141395238D01*
X119909523Y-141490476D01*
X119814285Y-141538095D01*
X119623809Y-141585714D01*
X119480952Y-141585714D01*
X119290476Y-141538095D01*
X119195238Y-141490476D01*
X119100000Y-141395238D01*
X119052380Y-141252380D01*
X119052380Y-141157142D01*
X119100000Y-141014285D01*
X119147619Y-140966666D01*
X119480952Y-140395238D02*
X119433333Y-140490476D01*
X119385714Y-140538095D01*
X119290476Y-140585714D01*
X119242857Y-140585714D01*
X119147619Y-140538095D01*
X119100000Y-140490476D01*
X119052380Y-140395238D01*
X119052380Y-140204761D01*
X119100000Y-140109523D01*
X119147619Y-140061904D01*
X119242857Y-140014285D01*
X119290476Y-140014285D01*
X119385714Y-140061904D01*
X119433333Y-140109523D01*
X119480952Y-140204761D01*
X119480952Y-140395238D01*
X119528571Y-140490476D01*
X119576190Y-140538095D01*
X119671428Y-140585714D01*
X119861904Y-140585714D01*
X119957142Y-140538095D01*
X120004761Y-140490476D01*
X120052380Y-140395238D01*
X120052380Y-140204761D01*
X120004761Y-140109523D01*
X119957142Y-140061904D01*
X119861904Y-140014285D01*
X119671428Y-140014285D01*
X119576190Y-140061904D01*
X119528571Y-140109523D01*
X119480952Y-140204761D01*
%TO.C,R3*%
X213252380Y-113066666D02*
X212776190Y-113400000D01*
X213252380Y-113638095D02*
X212252380Y-113638095D01*
X212252380Y-113257142D01*
X212300000Y-113161904D01*
X212347619Y-113114285D01*
X212442857Y-113066666D01*
X212585714Y-113066666D01*
X212680952Y-113114285D01*
X212728571Y-113161904D01*
X212776190Y-113257142D01*
X212776190Y-113638095D01*
X212252380Y-112733333D02*
X212252380Y-112114285D01*
X212633333Y-112447619D01*
X212633333Y-112304761D01*
X212680952Y-112209523D01*
X212728571Y-112161904D01*
X212823809Y-112114285D01*
X213061904Y-112114285D01*
X213157142Y-112161904D01*
X213204761Y-112209523D01*
X213252380Y-112304761D01*
X213252380Y-112590476D01*
X213204761Y-112685714D01*
X213157142Y-112733333D01*
%TO.C,H1*%
X22488095Y-110252380D02*
X22488095Y-109252380D01*
X22488095Y-109728571D02*
X23059523Y-109728571D01*
X23059523Y-110252380D02*
X23059523Y-109252380D01*
X24059523Y-110252380D02*
X23488095Y-110252380D01*
X23773809Y-110252380D02*
X23773809Y-109252380D01*
X23678571Y-109395238D01*
X23583333Y-109490476D01*
X23488095Y-109538095D01*
%TO.C,C18*%
X54957142Y-119092857D02*
X55004761Y-119140476D01*
X55052380Y-119283333D01*
X55052380Y-119378571D01*
X55004761Y-119521428D01*
X54909523Y-119616666D01*
X54814285Y-119664285D01*
X54623809Y-119711904D01*
X54480952Y-119711904D01*
X54290476Y-119664285D01*
X54195238Y-119616666D01*
X54100000Y-119521428D01*
X54052380Y-119378571D01*
X54052380Y-119283333D01*
X54100000Y-119140476D01*
X54147619Y-119092857D01*
X55052380Y-118140476D02*
X55052380Y-118711904D01*
X55052380Y-118426190D02*
X54052380Y-118426190D01*
X54195238Y-118521428D01*
X54290476Y-118616666D01*
X54338095Y-118711904D01*
X54480952Y-117569047D02*
X54433333Y-117664285D01*
X54385714Y-117711904D01*
X54290476Y-117759523D01*
X54242857Y-117759523D01*
X54147619Y-117711904D01*
X54100000Y-117664285D01*
X54052380Y-117569047D01*
X54052380Y-117378571D01*
X54100000Y-117283333D01*
X54147619Y-117235714D01*
X54242857Y-117188095D01*
X54290476Y-117188095D01*
X54385714Y-117235714D01*
X54433333Y-117283333D01*
X54480952Y-117378571D01*
X54480952Y-117569047D01*
X54528571Y-117664285D01*
X54576190Y-117711904D01*
X54671428Y-117759523D01*
X54861904Y-117759523D01*
X54957142Y-117711904D01*
X55004761Y-117664285D01*
X55052380Y-117569047D01*
X55052380Y-117378571D01*
X55004761Y-117283333D01*
X54957142Y-117235714D01*
X54861904Y-117188095D01*
X54671428Y-117188095D01*
X54576190Y-117235714D01*
X54528571Y-117283333D01*
X54480952Y-117378571D01*
%TO.C,C15*%
X46457142Y-136557142D02*
X46409523Y-136604761D01*
X46266666Y-136652380D01*
X46171428Y-136652380D01*
X46028571Y-136604761D01*
X45933333Y-136509523D01*
X45885714Y-136414285D01*
X45838095Y-136223809D01*
X45838095Y-136080952D01*
X45885714Y-135890476D01*
X45933333Y-135795238D01*
X46028571Y-135700000D01*
X46171428Y-135652380D01*
X46266666Y-135652380D01*
X46409523Y-135700000D01*
X46457142Y-135747619D01*
X47409523Y-136652380D02*
X46838095Y-136652380D01*
X47123809Y-136652380D02*
X47123809Y-135652380D01*
X47028571Y-135795238D01*
X46933333Y-135890476D01*
X46838095Y-135938095D01*
X48314285Y-135652380D02*
X47838095Y-135652380D01*
X47790476Y-136128571D01*
X47838095Y-136080952D01*
X47933333Y-136033333D01*
X48171428Y-136033333D01*
X48266666Y-136080952D01*
X48314285Y-136128571D01*
X48361904Y-136223809D01*
X48361904Y-136461904D01*
X48314285Y-136557142D01*
X48266666Y-136604761D01*
X48171428Y-136652380D01*
X47933333Y-136652380D01*
X47838095Y-136604761D01*
X47790476Y-136557142D01*
%TO.C,U7*%
X55438095Y-111352380D02*
X55438095Y-112161904D01*
X55485714Y-112257142D01*
X55533333Y-112304761D01*
X55628571Y-112352380D01*
X55819047Y-112352380D01*
X55914285Y-112304761D01*
X55961904Y-112257142D01*
X56009523Y-112161904D01*
X56009523Y-111352380D01*
X56390476Y-111352380D02*
X57057142Y-111352380D01*
X56628571Y-112352380D01*
%TO.C,C25*%
X183257142Y-131442857D02*
X183304761Y-131490476D01*
X183352380Y-131633333D01*
X183352380Y-131728571D01*
X183304761Y-131871428D01*
X183209523Y-131966666D01*
X183114285Y-132014285D01*
X182923809Y-132061904D01*
X182780952Y-132061904D01*
X182590476Y-132014285D01*
X182495238Y-131966666D01*
X182400000Y-131871428D01*
X182352380Y-131728571D01*
X182352380Y-131633333D01*
X182400000Y-131490476D01*
X182447619Y-131442857D01*
X182447619Y-131061904D02*
X182400000Y-131014285D01*
X182352380Y-130919047D01*
X182352380Y-130680952D01*
X182400000Y-130585714D01*
X182447619Y-130538095D01*
X182542857Y-130490476D01*
X182638095Y-130490476D01*
X182780952Y-130538095D01*
X183352380Y-131109523D01*
X183352380Y-130490476D01*
X182352380Y-129585714D02*
X182352380Y-130061904D01*
X182828571Y-130109523D01*
X182780952Y-130061904D01*
X182733333Y-129966666D01*
X182733333Y-129728571D01*
X182780952Y-129633333D01*
X182828571Y-129585714D01*
X182923809Y-129538095D01*
X183161904Y-129538095D01*
X183257142Y-129585714D01*
X183304761Y-129633333D01*
X183352380Y-129728571D01*
X183352380Y-129966666D01*
X183304761Y-130061904D01*
X183257142Y-130109523D01*
%TO.C,U2*%
X46738095Y-119152380D02*
X46738095Y-119961904D01*
X46785714Y-120057142D01*
X46833333Y-120104761D01*
X46928571Y-120152380D01*
X47119047Y-120152380D01*
X47214285Y-120104761D01*
X47261904Y-120057142D01*
X47309523Y-119961904D01*
X47309523Y-119152380D01*
X47738095Y-119247619D02*
X47785714Y-119200000D01*
X47880952Y-119152380D01*
X48119047Y-119152380D01*
X48214285Y-119200000D01*
X48261904Y-119247619D01*
X48309523Y-119342857D01*
X48309523Y-119438095D01*
X48261904Y-119580952D01*
X47690476Y-120152380D01*
X48309523Y-120152380D01*
%TO.C,C11*%
X84032142Y-118457142D02*
X83984523Y-118504761D01*
X83841666Y-118552380D01*
X83746428Y-118552380D01*
X83603571Y-118504761D01*
X83508333Y-118409523D01*
X83460714Y-118314285D01*
X83413095Y-118123809D01*
X83413095Y-117980952D01*
X83460714Y-117790476D01*
X83508333Y-117695238D01*
X83603571Y-117600000D01*
X83746428Y-117552380D01*
X83841666Y-117552380D01*
X83984523Y-117600000D01*
X84032142Y-117647619D01*
X84984523Y-118552380D02*
X84413095Y-118552380D01*
X84698809Y-118552380D02*
X84698809Y-117552380D01*
X84603571Y-117695238D01*
X84508333Y-117790476D01*
X84413095Y-117838095D01*
X85936904Y-118552380D02*
X85365476Y-118552380D01*
X85651190Y-118552380D02*
X85651190Y-117552380D01*
X85555952Y-117695238D01*
X85460714Y-117790476D01*
X85365476Y-117838095D01*
%TO.C,C7*%
X65233333Y-121957142D02*
X65185714Y-122004761D01*
X65042857Y-122052380D01*
X64947619Y-122052380D01*
X64804761Y-122004761D01*
X64709523Y-121909523D01*
X64661904Y-121814285D01*
X64614285Y-121623809D01*
X64614285Y-121480952D01*
X64661904Y-121290476D01*
X64709523Y-121195238D01*
X64804761Y-121100000D01*
X64947619Y-121052380D01*
X65042857Y-121052380D01*
X65185714Y-121100000D01*
X65233333Y-121147619D01*
X65566666Y-121052380D02*
X66233333Y-121052380D01*
X65804761Y-122052380D01*
%TO.C,C26*%
X105457142Y-109757142D02*
X105409523Y-109804761D01*
X105266666Y-109852380D01*
X105171428Y-109852380D01*
X105028571Y-109804761D01*
X104933333Y-109709523D01*
X104885714Y-109614285D01*
X104838095Y-109423809D01*
X104838095Y-109280952D01*
X104885714Y-109090476D01*
X104933333Y-108995238D01*
X105028571Y-108900000D01*
X105171428Y-108852380D01*
X105266666Y-108852380D01*
X105409523Y-108900000D01*
X105457142Y-108947619D01*
X105838095Y-108947619D02*
X105885714Y-108900000D01*
X105980952Y-108852380D01*
X106219047Y-108852380D01*
X106314285Y-108900000D01*
X106361904Y-108947619D01*
X106409523Y-109042857D01*
X106409523Y-109138095D01*
X106361904Y-109280952D01*
X105790476Y-109852380D01*
X106409523Y-109852380D01*
X107266666Y-108852380D02*
X107076190Y-108852380D01*
X106980952Y-108900000D01*
X106933333Y-108947619D01*
X106838095Y-109090476D01*
X106790476Y-109280952D01*
X106790476Y-109661904D01*
X106838095Y-109757142D01*
X106885714Y-109804761D01*
X106980952Y-109852380D01*
X107171428Y-109852380D01*
X107266666Y-109804761D01*
X107314285Y-109757142D01*
X107361904Y-109661904D01*
X107361904Y-109423809D01*
X107314285Y-109328571D01*
X107266666Y-109280952D01*
X107171428Y-109233333D01*
X106980952Y-109233333D01*
X106885714Y-109280952D01*
X106838095Y-109328571D01*
X106790476Y-109423809D01*
%TO.C,SW2*%
X128804761Y-139033333D02*
X128852380Y-138890476D01*
X128852380Y-138652380D01*
X128804761Y-138557142D01*
X128757142Y-138509523D01*
X128661904Y-138461904D01*
X128566666Y-138461904D01*
X128471428Y-138509523D01*
X128423809Y-138557142D01*
X128376190Y-138652380D01*
X128328571Y-138842857D01*
X128280952Y-138938095D01*
X128233333Y-138985714D01*
X128138095Y-139033333D01*
X128042857Y-139033333D01*
X127947619Y-138985714D01*
X127900000Y-138938095D01*
X127852380Y-138842857D01*
X127852380Y-138604761D01*
X127900000Y-138461904D01*
X127852380Y-138128571D02*
X128852380Y-137890476D01*
X128138095Y-137700000D01*
X128852380Y-137509523D01*
X127852380Y-137271428D01*
X127947619Y-136938095D02*
X127900000Y-136890476D01*
X127852380Y-136795238D01*
X127852380Y-136557142D01*
X127900000Y-136461904D01*
X127947619Y-136414285D01*
X128042857Y-136366666D01*
X128138095Y-136366666D01*
X128280952Y-136414285D01*
X128852380Y-136985714D01*
X128852380Y-136366666D01*
%TO.C,C13*%
X64857142Y-124057142D02*
X64809523Y-124104761D01*
X64666666Y-124152380D01*
X64571428Y-124152380D01*
X64428571Y-124104761D01*
X64333333Y-124009523D01*
X64285714Y-123914285D01*
X64238095Y-123723809D01*
X64238095Y-123580952D01*
X64285714Y-123390476D01*
X64333333Y-123295238D01*
X64428571Y-123200000D01*
X64571428Y-123152380D01*
X64666666Y-123152380D01*
X64809523Y-123200000D01*
X64857142Y-123247619D01*
X65809523Y-124152380D02*
X65238095Y-124152380D01*
X65523809Y-124152380D02*
X65523809Y-123152380D01*
X65428571Y-123295238D01*
X65333333Y-123390476D01*
X65238095Y-123438095D01*
X66142857Y-123152380D02*
X66761904Y-123152380D01*
X66428571Y-123533333D01*
X66571428Y-123533333D01*
X66666666Y-123580952D01*
X66714285Y-123628571D01*
X66761904Y-123723809D01*
X66761904Y-123961904D01*
X66714285Y-124057142D01*
X66666666Y-124104761D01*
X66571428Y-124152380D01*
X66285714Y-124152380D01*
X66190476Y-124104761D01*
X66142857Y-124057142D01*
%TO.C,R8*%
X47122380Y-138679166D02*
X46646190Y-139012500D01*
X47122380Y-139250595D02*
X46122380Y-139250595D01*
X46122380Y-138869642D01*
X46170000Y-138774404D01*
X46217619Y-138726785D01*
X46312857Y-138679166D01*
X46455714Y-138679166D01*
X46550952Y-138726785D01*
X46598571Y-138774404D01*
X46646190Y-138869642D01*
X46646190Y-139250595D01*
X46550952Y-138107738D02*
X46503333Y-138202976D01*
X46455714Y-138250595D01*
X46360476Y-138298214D01*
X46312857Y-138298214D01*
X46217619Y-138250595D01*
X46170000Y-138202976D01*
X46122380Y-138107738D01*
X46122380Y-137917261D01*
X46170000Y-137822023D01*
X46217619Y-137774404D01*
X46312857Y-137726785D01*
X46360476Y-137726785D01*
X46455714Y-137774404D01*
X46503333Y-137822023D01*
X46550952Y-137917261D01*
X46550952Y-138107738D01*
X46598571Y-138202976D01*
X46646190Y-138250595D01*
X46741428Y-138298214D01*
X46931904Y-138298214D01*
X47027142Y-138250595D01*
X47074761Y-138202976D01*
X47122380Y-138107738D01*
X47122380Y-137917261D01*
X47074761Y-137822023D01*
X47027142Y-137774404D01*
X46931904Y-137726785D01*
X46741428Y-137726785D01*
X46646190Y-137774404D01*
X46598571Y-137822023D01*
X46550952Y-137917261D01*
%TO.C,C10*%
X35957142Y-124957142D02*
X35909523Y-125004761D01*
X35766666Y-125052380D01*
X35671428Y-125052380D01*
X35528571Y-125004761D01*
X35433333Y-124909523D01*
X35385714Y-124814285D01*
X35338095Y-124623809D01*
X35338095Y-124480952D01*
X35385714Y-124290476D01*
X35433333Y-124195238D01*
X35528571Y-124100000D01*
X35671428Y-124052380D01*
X35766666Y-124052380D01*
X35909523Y-124100000D01*
X35957142Y-124147619D01*
X36909523Y-125052380D02*
X36338095Y-125052380D01*
X36623809Y-125052380D02*
X36623809Y-124052380D01*
X36528571Y-124195238D01*
X36433333Y-124290476D01*
X36338095Y-124338095D01*
X37528571Y-124052380D02*
X37623809Y-124052380D01*
X37719047Y-124100000D01*
X37766666Y-124147619D01*
X37814285Y-124242857D01*
X37861904Y-124433333D01*
X37861904Y-124671428D01*
X37814285Y-124861904D01*
X37766666Y-124957142D01*
X37719047Y-125004761D01*
X37623809Y-125052380D01*
X37528571Y-125052380D01*
X37433333Y-125004761D01*
X37385714Y-124957142D01*
X37338095Y-124861904D01*
X37290476Y-124671428D01*
X37290476Y-124433333D01*
X37338095Y-124242857D01*
X37385714Y-124147619D01*
X37433333Y-124100000D01*
X37528571Y-124052380D01*
%TO.C,U5*%
X77838095Y-114952380D02*
X77838095Y-115761904D01*
X77885714Y-115857142D01*
X77933333Y-115904761D01*
X78028571Y-115952380D01*
X78219047Y-115952380D01*
X78314285Y-115904761D01*
X78361904Y-115857142D01*
X78409523Y-115761904D01*
X78409523Y-114952380D01*
X79361904Y-114952380D02*
X78885714Y-114952380D01*
X78838095Y-115428571D01*
X78885714Y-115380952D01*
X78980952Y-115333333D01*
X79219047Y-115333333D01*
X79314285Y-115380952D01*
X79361904Y-115428571D01*
X79409523Y-115523809D01*
X79409523Y-115761904D01*
X79361904Y-115857142D01*
X79314285Y-115904761D01*
X79219047Y-115952380D01*
X78980952Y-115952380D01*
X78885714Y-115904761D01*
X78838095Y-115857142D01*
%TO.C,C9*%
X33133333Y-132357142D02*
X33085714Y-132404761D01*
X32942857Y-132452380D01*
X32847619Y-132452380D01*
X32704761Y-132404761D01*
X32609523Y-132309523D01*
X32561904Y-132214285D01*
X32514285Y-132023809D01*
X32514285Y-131880952D01*
X32561904Y-131690476D01*
X32609523Y-131595238D01*
X32704761Y-131500000D01*
X32847619Y-131452380D01*
X32942857Y-131452380D01*
X33085714Y-131500000D01*
X33133333Y-131547619D01*
X33609523Y-132452380D02*
X33800000Y-132452380D01*
X33895238Y-132404761D01*
X33942857Y-132357142D01*
X34038095Y-132214285D01*
X34085714Y-132023809D01*
X34085714Y-131642857D01*
X34038095Y-131547619D01*
X33990476Y-131500000D01*
X33895238Y-131452380D01*
X33704761Y-131452380D01*
X33609523Y-131500000D01*
X33561904Y-131547619D01*
X33514285Y-131642857D01*
X33514285Y-131880952D01*
X33561904Y-131976190D01*
X33609523Y-132023809D01*
X33704761Y-132071428D01*
X33895238Y-132071428D01*
X33990476Y-132023809D01*
X34038095Y-131976190D01*
X34085714Y-131880952D01*
%TO.C,U3*%
X205851298Y-135463410D02*
X206662422Y-135463410D01*
X206757848Y-135415697D01*
X206805561Y-135367984D01*
X206853274Y-135272557D01*
X206853274Y-135081705D01*
X206805561Y-134986278D01*
X206757848Y-134938565D01*
X206662422Y-134890852D01*
X205851298Y-134890852D01*
X205851298Y-134509147D02*
X205851298Y-133888876D01*
X206233004Y-134222868D01*
X206233004Y-134079729D01*
X206280717Y-133984302D01*
X206328430Y-133936589D01*
X206423856Y-133888876D01*
X206662422Y-133888876D01*
X206757848Y-133936589D01*
X206805561Y-133984302D01*
X206853274Y-134079729D01*
X206853274Y-134366008D01*
X206805561Y-134461434D01*
X206757848Y-134509147D01*
%TO.C,H2*%
X227988095Y-110252380D02*
X227988095Y-109252380D01*
X227988095Y-109728571D02*
X228559523Y-109728571D01*
X228559523Y-110252380D02*
X228559523Y-109252380D01*
X228988095Y-109347619D02*
X229035714Y-109300000D01*
X229130952Y-109252380D01*
X229369047Y-109252380D01*
X229464285Y-109300000D01*
X229511904Y-109347619D01*
X229559523Y-109442857D01*
X229559523Y-109538095D01*
X229511904Y-109680952D01*
X228940476Y-110252380D01*
X229559523Y-110252380D01*
%TO.C,C12*%
X215857142Y-134757142D02*
X215809523Y-134804761D01*
X215666666Y-134852380D01*
X215571428Y-134852380D01*
X215428571Y-134804761D01*
X215333333Y-134709523D01*
X215285714Y-134614285D01*
X215238095Y-134423809D01*
X215238095Y-134280952D01*
X215285714Y-134090476D01*
X215333333Y-133995238D01*
X215428571Y-133900000D01*
X215571428Y-133852380D01*
X215666666Y-133852380D01*
X215809523Y-133900000D01*
X215857142Y-133947619D01*
X216809523Y-134852380D02*
X216238095Y-134852380D01*
X216523809Y-134852380D02*
X216523809Y-133852380D01*
X216428571Y-133995238D01*
X216333333Y-134090476D01*
X216238095Y-134138095D01*
X217190476Y-133947619D02*
X217238095Y-133900000D01*
X217333333Y-133852380D01*
X217571428Y-133852380D01*
X217666666Y-133900000D01*
X217714285Y-133947619D01*
X217761904Y-134042857D01*
X217761904Y-134138095D01*
X217714285Y-134280952D01*
X217142857Y-134852380D01*
X217761904Y-134852380D01*
%TO.C,U4*%
X189152380Y-129261904D02*
X189961904Y-129261904D01*
X190057142Y-129214285D01*
X190104761Y-129166666D01*
X190152380Y-129071428D01*
X190152380Y-128880952D01*
X190104761Y-128785714D01*
X190057142Y-128738095D01*
X189961904Y-128690476D01*
X189152380Y-128690476D01*
X189485714Y-127785714D02*
X190152380Y-127785714D01*
X189104761Y-128023809D02*
X189819047Y-128261904D01*
X189819047Y-127642857D01*
%TO.C,C22*%
X123757142Y-142942857D02*
X123804761Y-142990476D01*
X123852380Y-143133333D01*
X123852380Y-143228571D01*
X123804761Y-143371428D01*
X123709523Y-143466666D01*
X123614285Y-143514285D01*
X123423809Y-143561904D01*
X123280952Y-143561904D01*
X123090476Y-143514285D01*
X122995238Y-143466666D01*
X122900000Y-143371428D01*
X122852380Y-143228571D01*
X122852380Y-143133333D01*
X122900000Y-142990476D01*
X122947619Y-142942857D01*
X122947619Y-142561904D02*
X122900000Y-142514285D01*
X122852380Y-142419047D01*
X122852380Y-142180952D01*
X122900000Y-142085714D01*
X122947619Y-142038095D01*
X123042857Y-141990476D01*
X123138095Y-141990476D01*
X123280952Y-142038095D01*
X123852380Y-142609523D01*
X123852380Y-141990476D01*
X122947619Y-141609523D02*
X122900000Y-141561904D01*
X122852380Y-141466666D01*
X122852380Y-141228571D01*
X122900000Y-141133333D01*
X122947619Y-141085714D01*
X123042857Y-141038095D01*
X123138095Y-141038095D01*
X123280952Y-141085714D01*
X123852380Y-141657142D01*
X123852380Y-141038095D01*
%TO.C,Q1*%
X41504761Y-127947619D02*
X41409523Y-127900000D01*
X41314285Y-127804761D01*
X41171428Y-127661904D01*
X41076190Y-127614285D01*
X40980952Y-127614285D01*
X41028571Y-127852380D02*
X40933333Y-127804761D01*
X40838095Y-127709523D01*
X40790476Y-127519047D01*
X40790476Y-127185714D01*
X40838095Y-126995238D01*
X40933333Y-126900000D01*
X41028571Y-126852380D01*
X41219047Y-126852380D01*
X41314285Y-126900000D01*
X41409523Y-126995238D01*
X41457142Y-127185714D01*
X41457142Y-127519047D01*
X41409523Y-127709523D01*
X41314285Y-127804761D01*
X41219047Y-127852380D01*
X41028571Y-127852380D01*
X42409523Y-127852380D02*
X41838095Y-127852380D01*
X42123809Y-127852380D02*
X42123809Y-126852380D01*
X42028571Y-126995238D01*
X41933333Y-127090476D01*
X41838095Y-127138095D01*
%TO.C,R10*%
X127757142Y-119252380D02*
X127423809Y-118776190D01*
X127185714Y-119252380D02*
X127185714Y-118252380D01*
X127566666Y-118252380D01*
X127661904Y-118300000D01*
X127709523Y-118347619D01*
X127757142Y-118442857D01*
X127757142Y-118585714D01*
X127709523Y-118680952D01*
X127661904Y-118728571D01*
X127566666Y-118776190D01*
X127185714Y-118776190D01*
X128709523Y-119252380D02*
X128138095Y-119252380D01*
X128423809Y-119252380D02*
X128423809Y-118252380D01*
X128328571Y-118395238D01*
X128233333Y-118490476D01*
X128138095Y-118538095D01*
X129328571Y-118252380D02*
X129423809Y-118252380D01*
X129519047Y-118300000D01*
X129566666Y-118347619D01*
X129614285Y-118442857D01*
X129661904Y-118633333D01*
X129661904Y-118871428D01*
X129614285Y-119061904D01*
X129566666Y-119157142D01*
X129519047Y-119204761D01*
X129423809Y-119252380D01*
X129328571Y-119252380D01*
X129233333Y-119204761D01*
X129185714Y-119157142D01*
X129138095Y-119061904D01*
X129090476Y-118871428D01*
X129090476Y-118633333D01*
X129138095Y-118442857D01*
X129185714Y-118347619D01*
X129233333Y-118300000D01*
X129328571Y-118252380D01*
%TO.C,C19*%
X197557142Y-122596590D02*
X197604761Y-122644209D01*
X197652380Y-122787066D01*
X197652380Y-122882304D01*
X197604761Y-123025161D01*
X197509523Y-123120399D01*
X197414285Y-123168018D01*
X197223809Y-123215637D01*
X197080952Y-123215637D01*
X196890476Y-123168018D01*
X196795238Y-123120399D01*
X196700000Y-123025161D01*
X196652380Y-122882304D01*
X196652380Y-122787066D01*
X196700000Y-122644209D01*
X196747619Y-122596590D01*
X197652380Y-121644209D02*
X197652380Y-122215637D01*
X197652380Y-121929923D02*
X196652380Y-121929923D01*
X196795238Y-122025161D01*
X196890476Y-122120399D01*
X196938095Y-122215637D01*
X197652380Y-121168018D02*
X197652380Y-120977542D01*
X197604761Y-120882304D01*
X197557142Y-120834685D01*
X197414285Y-120739447D01*
X197223809Y-120691828D01*
X196842857Y-120691828D01*
X196747619Y-120739447D01*
X196700000Y-120787066D01*
X196652380Y-120882304D01*
X196652380Y-121072780D01*
X196700000Y-121168018D01*
X196747619Y-121215637D01*
X196842857Y-121263256D01*
X197080952Y-121263256D01*
X197176190Y-121215637D01*
X197223809Y-121168018D01*
X197271428Y-121072780D01*
X197271428Y-120882304D01*
X197223809Y-120787066D01*
X197176190Y-120739447D01*
X197080952Y-120691828D01*
%TO.C,C5*%
X199833333Y-128457142D02*
X199785714Y-128504761D01*
X199642857Y-128552380D01*
X199547619Y-128552380D01*
X199404761Y-128504761D01*
X199309523Y-128409523D01*
X199261904Y-128314285D01*
X199214285Y-128123809D01*
X199214285Y-127980952D01*
X199261904Y-127790476D01*
X199309523Y-127695238D01*
X199404761Y-127600000D01*
X199547619Y-127552380D01*
X199642857Y-127552380D01*
X199785714Y-127600000D01*
X199833333Y-127647619D01*
X200738095Y-127552380D02*
X200261904Y-127552380D01*
X200214285Y-128028571D01*
X200261904Y-127980952D01*
X200357142Y-127933333D01*
X200595238Y-127933333D01*
X200690476Y-127980952D01*
X200738095Y-128028571D01*
X200785714Y-128123809D01*
X200785714Y-128361904D01*
X200738095Y-128457142D01*
X200690476Y-128504761D01*
X200595238Y-128552380D01*
X200357142Y-128552380D01*
X200261904Y-128504761D01*
X200214285Y-128457142D01*
%TO.C,C29*%
X156857142Y-119157142D02*
X156809523Y-119204761D01*
X156666666Y-119252380D01*
X156571428Y-119252380D01*
X156428571Y-119204761D01*
X156333333Y-119109523D01*
X156285714Y-119014285D01*
X156238095Y-118823809D01*
X156238095Y-118680952D01*
X156285714Y-118490476D01*
X156333333Y-118395238D01*
X156428571Y-118300000D01*
X156571428Y-118252380D01*
X156666666Y-118252380D01*
X156809523Y-118300000D01*
X156857142Y-118347619D01*
X157238095Y-118347619D02*
X157285714Y-118300000D01*
X157380952Y-118252380D01*
X157619047Y-118252380D01*
X157714285Y-118300000D01*
X157761904Y-118347619D01*
X157809523Y-118442857D01*
X157809523Y-118538095D01*
X157761904Y-118680952D01*
X157190476Y-119252380D01*
X157809523Y-119252380D01*
X158285714Y-119252380D02*
X158476190Y-119252380D01*
X158571428Y-119204761D01*
X158619047Y-119157142D01*
X158714285Y-119014285D01*
X158761904Y-118823809D01*
X158761904Y-118442857D01*
X158714285Y-118347619D01*
X158666666Y-118300000D01*
X158571428Y-118252380D01*
X158380952Y-118252380D01*
X158285714Y-118300000D01*
X158238095Y-118347619D01*
X158190476Y-118442857D01*
X158190476Y-118680952D01*
X158238095Y-118776190D01*
X158285714Y-118823809D01*
X158380952Y-118871428D01*
X158571428Y-118871428D01*
X158666666Y-118823809D01*
X158714285Y-118776190D01*
X158761904Y-118680952D01*
%TO.C,JP2*%
X49352380Y-134708333D02*
X50066666Y-134708333D01*
X50209523Y-134755952D01*
X50304761Y-134851190D01*
X50352380Y-134994047D01*
X50352380Y-135089285D01*
X50352380Y-134232142D02*
X49352380Y-134232142D01*
X49352380Y-133851190D01*
X49400000Y-133755952D01*
X49447619Y-133708333D01*
X49542857Y-133660714D01*
X49685714Y-133660714D01*
X49780952Y-133708333D01*
X49828571Y-133755952D01*
X49876190Y-133851190D01*
X49876190Y-134232142D01*
X49447619Y-133279761D02*
X49400000Y-133232142D01*
X49352380Y-133136904D01*
X49352380Y-132898809D01*
X49400000Y-132803571D01*
X49447619Y-132755952D01*
X49542857Y-132708333D01*
X49638095Y-132708333D01*
X49780952Y-132755952D01*
X50352380Y-133327380D01*
X50352380Y-132708333D01*
D12*
%TO.C,R11*%
X140845276Y-116677500D02*
X141354724Y-116677500D01*
X140845276Y-117722500D02*
X141354724Y-117722500D01*
%TO.C,C24*%
X183285000Y-125428733D02*
X183285000Y-125721267D01*
X182265000Y-125428733D02*
X182265000Y-125721267D01*
%TO.C,C16*%
X199853733Y-131590000D02*
X200146267Y-131590000D01*
X199853733Y-132610000D02*
X200146267Y-132610000D01*
%TO.C,JP1*%
X54875000Y-132475000D02*
X55475000Y-132475000D01*
X54175000Y-134575000D02*
X54175000Y-133175000D01*
X56175000Y-133175000D02*
X56175000Y-134575000D01*
X55475000Y-135275000D02*
X54875000Y-135275000D01*
X54175000Y-134575000D02*
G75*
G03*
X54875000Y-135275000I699999J-1D01*
G01*
X54875000Y-132475000D02*
G75*
G03*
X54175000Y-133175000I-1J-699999D01*
G01*
X56175000Y-133175000D02*
G75*
G03*
X55475000Y-132475000I-699999J1D01*
G01*
X55475000Y-135275000D02*
G75*
G03*
X56175000Y-134575000I1J699999D01*
G01*
%TO.C,C21*%
X133146267Y-130810000D02*
X132853733Y-130810000D01*
X133146267Y-129790000D02*
X132853733Y-129790000D01*
%TO.C,R6*%
X87097500Y-109670276D02*
X87097500Y-110179724D01*
X86052500Y-109670276D02*
X86052500Y-110179724D01*
%TO.C,R2*%
X44572500Y-129554724D02*
X44572500Y-129045276D01*
X43527500Y-129554724D02*
X43527500Y-129045276D01*
D13*
%TO.C,SW1*%
X65950000Y-116437500D02*
X67950000Y-116437500D01*
X63950000Y-116437500D02*
X63950000Y-116537500D01*
X65950000Y-116437500D02*
X65950000Y-116537500D01*
X67950000Y-116437500D02*
X67950000Y-110437500D01*
X67950000Y-110437500D02*
X61950000Y-110437500D01*
X61950000Y-110437500D02*
X61950000Y-116437500D01*
X61950000Y-116437500D02*
X63950000Y-116437500D01*
D14*
X62800000Y-119187500D02*
G75*
G03*
X62800000Y-119187500I-100000J0D01*
G01*
D12*
%TO.C,U8*%
X50075000Y-113900000D02*
X50075000Y-115500000D01*
X53275000Y-115500000D02*
X53275000Y-113200000D01*
D13*
%TO.C,SW5*%
X146700000Y-113700000D02*
X146700000Y-113800000D01*
X146700000Y-113700000D02*
X148700000Y-113700000D01*
X148700000Y-107700000D02*
X142700000Y-107700000D01*
X142700000Y-107700000D02*
X142700000Y-113700000D01*
X144700000Y-113700000D02*
X144700000Y-113800000D01*
X148700000Y-113700000D02*
X148700000Y-107700000D01*
X142700000Y-113700000D02*
X144700000Y-113700000D01*
D14*
X143550000Y-116450000D02*
G75*
G03*
X143550000Y-116450000I-100000J0D01*
G01*
D12*
%TO.C,Q3*%
X79810000Y-109950000D02*
X79810000Y-108275000D01*
X76690000Y-109950000D02*
X76690000Y-110600000D01*
X79810000Y-109950000D02*
X79810000Y-110600000D01*
X76690000Y-109950000D02*
X76690000Y-109300000D01*
%TO.C,U9*%
X174215000Y-128900000D02*
X174215000Y-131100000D01*
X174215000Y-128900000D02*
X174215000Y-126700000D01*
X180985000Y-128900000D02*
X180985000Y-131100000D01*
X180985000Y-128900000D02*
X180985000Y-125300000D01*
%TO.C,Q2*%
X209105000Y-122205000D02*
X208005000Y-122205000D01*
X210605000Y-115575000D02*
X209105000Y-115575000D01*
X209105000Y-122475000D02*
X209105000Y-122205000D01*
X210605000Y-122475000D02*
X209105000Y-122475000D01*
X209105000Y-115845000D02*
X206275000Y-115845000D01*
X209105000Y-115575000D02*
X209105000Y-115845000D01*
%TO.C,C23*%
X145578733Y-130810000D02*
X145871267Y-130810000D01*
X145578733Y-129790000D02*
X145871267Y-129790000D01*
%TO.C,C14*%
X213053733Y-139810000D02*
X213346267Y-139810000D01*
X213053733Y-138790000D02*
X213346267Y-138790000D01*
%TO.C,C6*%
X191965000Y-122161252D02*
X191965000Y-121638748D01*
X193435000Y-122161252D02*
X193435000Y-121638748D01*
%TO.C,R9*%
X50722500Y-138245276D02*
X50722500Y-138754724D01*
X49677500Y-138245276D02*
X49677500Y-138754724D01*
%TO.C,U6*%
X42450000Y-135485000D02*
X44250000Y-135485000D01*
X44250000Y-132265000D02*
X41800000Y-132265000D01*
%TO.C,Q4*%
X82190000Y-109950000D02*
X82190000Y-110600000D01*
X82190000Y-109950000D02*
X82190000Y-109300000D01*
X85310000Y-109950000D02*
X85310000Y-110600000D01*
X85310000Y-109950000D02*
X85310000Y-108275000D01*
%TO.C,U1*%
X99150000Y-118925000D02*
X99150000Y-118175000D01*
X99150000Y-137735000D02*
X117150000Y-137735000D01*
X117150000Y-118925000D02*
X117150000Y-118175000D01*
X99900000Y-118175000D02*
X101650000Y-118175000D01*
X117150000Y-118175000D02*
X116400000Y-118175000D01*
X117150000Y-143675000D02*
X99150000Y-143675000D01*
X116400000Y-118175000D02*
X114650000Y-118175000D01*
X99150000Y-118175000D02*
X99900000Y-118175000D01*
X117150000Y-143675000D02*
X117150000Y-136925000D01*
X99150000Y-143675000D02*
X99150000Y-136925000D01*
%TO.C,C4*%
X213138748Y-136515000D02*
X213661252Y-136515000D01*
X213138748Y-137985000D02*
X213661252Y-137985000D01*
D13*
%TO.C,U10*%
X104900000Y-101300000D02*
X111700000Y-101300000D01*
X111700000Y-104300000D02*
X110875000Y-104300000D01*
X105725000Y-104300000D02*
X104900000Y-104300000D01*
X111700000Y-101300000D02*
X111700000Y-104300000D01*
X104900000Y-104300000D02*
X104900000Y-101300000D01*
D14*
X106495000Y-105500000D02*
G75*
G03*
X106495000Y-105500000I-100000J0D01*
G01*
D12*
%TO.C,C28*%
X144653733Y-116690000D02*
X144946267Y-116690000D01*
X144653733Y-117710000D02*
X144946267Y-117710000D01*
%TO.C,C3*%
X213288748Y-133110000D02*
X214711252Y-133110000D01*
X213288748Y-131290000D02*
X214711252Y-131290000D01*
%TO.C,R5*%
X80477500Y-110179724D02*
X80477500Y-109670276D01*
X81522500Y-110179724D02*
X81522500Y-109670276D01*
%TO.C,R7*%
X122245276Y-135777500D02*
X122754724Y-135777500D01*
X122245276Y-136822500D02*
X122754724Y-136822500D01*
%TO.C,C17*%
X52635000Y-118596267D02*
X52635000Y-118303733D01*
X51615000Y-118596267D02*
X51615000Y-118303733D01*
%TO.C,J3*%
X68765000Y-103795000D02*
X68765000Y-106455000D01*
X86605000Y-103795000D02*
X68765000Y-103795000D01*
X89205000Y-103795000D02*
X89205000Y-105125000D01*
X86605000Y-103795000D02*
X86605000Y-106455000D01*
X87875000Y-103795000D02*
X89205000Y-103795000D01*
X86605000Y-106455000D02*
X68765000Y-106455000D01*
D13*
%TO.C,SW4*%
X134000000Y-113700000D02*
X136000000Y-113700000D01*
X136000000Y-113700000D02*
X136000000Y-107700000D01*
X132000000Y-113700000D02*
X132000000Y-113800000D01*
X130000000Y-107700000D02*
X130000000Y-113700000D01*
X134000000Y-113700000D02*
X134000000Y-113800000D01*
X136000000Y-107700000D02*
X130000000Y-107700000D01*
X130000000Y-113700000D02*
X132000000Y-113700000D01*
D14*
X130850000Y-116450000D02*
G75*
G03*
X130850000Y-116450000I-100000J0D01*
G01*
D12*
%TO.C,C2*%
X210290000Y-106788748D02*
X210290000Y-108211252D01*
X212110000Y-106788748D02*
X212110000Y-108211252D01*
%TO.C,C27*%
X131953733Y-117710000D02*
X132246267Y-117710000D01*
X131953733Y-116690000D02*
X132246267Y-116690000D01*
%TO.C,F1*%
X217286252Y-128610000D02*
X214513748Y-128610000D01*
X217286252Y-125190000D02*
X214513748Y-125190000D01*
%TO.C,R1*%
X36472936Y-132335000D02*
X36927064Y-132335000D01*
X36472936Y-130865000D02*
X36927064Y-130865000D01*
D13*
%TO.C,SW6*%
X157400000Y-113700000D02*
X157400000Y-113800000D01*
X159400000Y-113700000D02*
X159400000Y-113800000D01*
X155400000Y-113700000D02*
X157400000Y-113700000D01*
X155400000Y-107700000D02*
X155400000Y-113700000D01*
X161400000Y-113700000D02*
X161400000Y-107700000D01*
X161400000Y-107700000D02*
X155400000Y-107700000D01*
X159400000Y-113700000D02*
X161400000Y-113700000D01*
D14*
X156250000Y-116450000D02*
G75*
G03*
X156250000Y-116450000I-100000J0D01*
G01*
D12*
%TO.C,R4*%
X73147500Y-108845276D02*
X73147500Y-109354724D01*
X72102500Y-108845276D02*
X72102500Y-109354724D01*
D13*
%TO.C,SW3*%
X148725000Y-140712500D02*
X148725000Y-134712500D01*
X142725000Y-140712500D02*
X144725000Y-140712500D01*
X146725000Y-140712500D02*
X148725000Y-140712500D01*
X144725000Y-140712500D02*
X144725000Y-140812500D01*
X142725000Y-134712500D02*
X142725000Y-140712500D01*
X146725000Y-140712500D02*
X146725000Y-140812500D01*
X148725000Y-134712500D02*
X142725000Y-134712500D01*
D14*
X143575000Y-143462500D02*
G75*
G03*
X143575000Y-143462500I-100000J0D01*
G01*
D12*
%TO.C,C20*%
X122110000Y-138853733D02*
X122110000Y-139146267D01*
X121090000Y-138853733D02*
X121090000Y-139146267D01*
%TO.C,L1*%
X35340000Y-128999800D02*
X35340000Y-129200200D01*
X36060000Y-128999800D02*
X36060000Y-129200200D01*
%TO.C,D1*%
X207490000Y-111420000D02*
X207490000Y-112350000D01*
X207490000Y-114580000D02*
X207490000Y-113650000D01*
X207490000Y-111420000D02*
X208950000Y-111420000D01*
X207490000Y-114580000D02*
X209650000Y-114580000D01*
%TO.C,R12*%
X153545276Y-117722500D02*
X154054724Y-117722500D01*
X153545276Y-116677500D02*
X154054724Y-116677500D01*
%TO.C,C8*%
X118865000Y-138061252D02*
X118865000Y-137538748D01*
X120335000Y-138061252D02*
X120335000Y-137538748D01*
%TO.C,R3*%
X210677500Y-113154724D02*
X210677500Y-112645276D01*
X211722500Y-113154724D02*
X211722500Y-112645276D01*
%TO.C,C18*%
X55690000Y-118596267D02*
X55690000Y-118303733D01*
X56710000Y-118596267D02*
X56710000Y-118303733D01*
%TO.C,C15*%
X47635000Y-133921267D02*
X47635000Y-133628733D01*
X46615000Y-133921267D02*
X46615000Y-133628733D01*
%TO.C,U7*%
X57775000Y-115500000D02*
X57775000Y-113200000D01*
X54575000Y-113900000D02*
X54575000Y-115500000D01*
%TO.C,C25*%
X183435000Y-134171267D02*
X183435000Y-133878733D01*
X182415000Y-134171267D02*
X182415000Y-133878733D01*
D13*
%TO.C,U2*%
X58050000Y-130963500D02*
X48350000Y-130963500D01*
X58050000Y-120836500D02*
X48350000Y-120836500D01*
D14*
X60200000Y-130300000D02*
G75*
G03*
X60200000Y-130300000I-100000J0D01*
G01*
D12*
%TO.C,C11*%
X84528733Y-120110000D02*
X84821267Y-120110000D01*
X84528733Y-119090000D02*
X84821267Y-119090000D01*
%TO.C,C7*%
X62611252Y-120865000D02*
X62088748Y-120865000D01*
X62611252Y-122335000D02*
X62088748Y-122335000D01*
%TO.C,C26*%
X106208767Y-107310000D02*
X105916233Y-107310000D01*
X106208767Y-106290000D02*
X105916233Y-106290000D01*
D13*
%TO.C,SW2*%
X136000000Y-140712500D02*
X136000000Y-134712500D01*
X136000000Y-134712500D02*
X130000000Y-134712500D01*
X130000000Y-140712500D02*
X132000000Y-140712500D01*
X134000000Y-140712500D02*
X134000000Y-140812500D01*
X132000000Y-140712500D02*
X132000000Y-140812500D01*
X134000000Y-140712500D02*
X136000000Y-140712500D01*
X130000000Y-134712500D02*
X130000000Y-140712500D01*
D14*
X130850000Y-143462500D02*
G75*
G03*
X130850000Y-143462500I-100000J0D01*
G01*
D12*
%TO.C,C13*%
X62321267Y-124210000D02*
X62028733Y-124210000D01*
X62321267Y-123190000D02*
X62028733Y-123190000D01*
%TO.C,R8*%
X47577500Y-138767224D02*
X47577500Y-138257776D01*
X48622500Y-138767224D02*
X48622500Y-138257776D01*
%TO.C,C10*%
X36453733Y-126390000D02*
X36746267Y-126390000D01*
X36453733Y-127410000D02*
X36746267Y-127410000D01*
%TO.C,U5*%
X78600000Y-121535000D02*
X82050000Y-121535000D01*
X78600000Y-116415000D02*
X76650000Y-116415000D01*
X78600000Y-116415000D02*
X80550000Y-116415000D01*
X78600000Y-121535000D02*
X76650000Y-121535000D01*
%TO.C,C9*%
X33153733Y-130110000D02*
X33446267Y-130110000D01*
X33153733Y-129090000D02*
X33446267Y-129090000D01*
D13*
%TO.C,U3*%
X210158000Y-128957500D02*
X210158000Y-131013500D01*
X210158000Y-140457500D02*
X210158000Y-138401500D01*
X202658000Y-128957500D02*
X210158000Y-128957500D01*
X202658000Y-140457500D02*
X202658000Y-128957500D01*
X210158000Y-140457500D02*
X202658000Y-140457500D01*
D15*
X210138000Y-128167500D02*
G75*
G03*
X210138000Y-128167500I-200000J0D01*
G01*
D12*
%TO.C,C12*%
X213446267Y-133890000D02*
X213153733Y-133890000D01*
X213446267Y-134910000D02*
X213153733Y-134910000D01*
%TO.C,U4*%
X190790000Y-132600000D02*
X190790000Y-126590000D01*
X197610000Y-130350000D02*
X197610000Y-126590000D01*
X197610000Y-126590000D02*
X196350000Y-126590000D01*
X190790000Y-126590000D02*
X192050000Y-126590000D01*
%TO.C,C22*%
X123910000Y-138853733D02*
X123910000Y-139146267D01*
X122890000Y-138853733D02*
X122890000Y-139146267D01*
%TO.C,Q1*%
X40700000Y-128400000D02*
X42250000Y-128400000D01*
X42250000Y-130200000D02*
X40950000Y-130200000D01*
%TO.C,R10*%
X128145276Y-116677500D02*
X128654724Y-116677500D01*
X128145276Y-117722500D02*
X128654724Y-117722500D01*
%TO.C,C19*%
X196110000Y-122246267D02*
X196110000Y-121953733D01*
X195090000Y-122246267D02*
X195090000Y-121953733D01*
%TO.C,C5*%
X199738748Y-129165000D02*
X200261252Y-129165000D01*
X199738748Y-130635000D02*
X200261252Y-130635000D01*
%TO.C,C29*%
X157353733Y-117710000D02*
X157646267Y-117710000D01*
X157353733Y-116690000D02*
X157646267Y-116690000D01*
%TO.C,JP2*%
X52850000Y-133175000D02*
X52850000Y-134575000D01*
X51550000Y-132475000D02*
X52150000Y-132475000D01*
X50850000Y-134575000D02*
X50850000Y-133175000D01*
X52150000Y-135275000D02*
X51550000Y-135275000D01*
X51550000Y-132475000D02*
G75*
G03*
X50850000Y-133175000I-1J-699999D01*
G01*
X52850000Y-133175000D02*
G75*
G03*
X52150000Y-132475000I-699999J1D01*
G01*
X52150000Y-135275000D02*
G75*
G03*
X52850000Y-134575000I1J699999D01*
G01*
X50850000Y-134575000D02*
G75*
G03*
X51550000Y-135275000I699999J-1D01*
G01*
%TD*%
%LPC*%
D16*
%TO.C,U2*%
X49350000Y-126300000D02*
X47550000Y-126300000D01*
X47550000Y-126300000D02*
X47550000Y-125500000D01*
X47550000Y-125500000D02*
X49350000Y-125500000D01*
X49350000Y-125500000D02*
X49350000Y-126300000D01*
G36*
X49350000Y-126300000D02*
G01*
X47550000Y-126300000D01*
X47550000Y-125500000D01*
X49350000Y-125500000D01*
X49350000Y-126300000D01*
G37*
X49350000Y-126300000D02*
X47550000Y-126300000D01*
X47550000Y-125500000D01*
X49350000Y-125500000D01*
X49350000Y-126300000D01*
X58850000Y-128500000D02*
X57050000Y-128500000D01*
X57050000Y-128500000D02*
X57050000Y-127700000D01*
X57050000Y-127700000D02*
X58850000Y-127700000D01*
X58850000Y-127700000D02*
X58850000Y-128500000D01*
G36*
X58850000Y-128500000D02*
G01*
X57050000Y-128500000D01*
X57050000Y-127700000D01*
X58850000Y-127700000D01*
X58850000Y-128500000D01*
G37*
X58850000Y-128500000D02*
X57050000Y-128500000D01*
X57050000Y-127700000D01*
X58850000Y-127700000D01*
X58850000Y-128500000D01*
X58850000Y-126300000D02*
X57050000Y-126300000D01*
X57050000Y-126300000D02*
X57050000Y-125500000D01*
X57050000Y-125500000D02*
X58850000Y-125500000D01*
X58850000Y-125500000D02*
X58850000Y-126300000D01*
G36*
X58850000Y-126300000D02*
G01*
X57050000Y-126300000D01*
X57050000Y-125500000D01*
X58850000Y-125500000D01*
X58850000Y-126300000D01*
G37*
X58850000Y-126300000D02*
X57050000Y-126300000D01*
X57050000Y-125500000D01*
X58850000Y-125500000D01*
X58850000Y-126300000D01*
X58850000Y-127400000D02*
X57050000Y-127400000D01*
X57050000Y-127400000D02*
X57050000Y-126600000D01*
X57050000Y-126600000D02*
X58850000Y-126600000D01*
X58850000Y-126600000D02*
X58850000Y-127400000D01*
G36*
X58850000Y-127400000D02*
G01*
X57050000Y-127400000D01*
X57050000Y-126600000D01*
X58850000Y-126600000D01*
X58850000Y-127400000D01*
G37*
X58850000Y-127400000D02*
X57050000Y-127400000D01*
X57050000Y-126600000D01*
X58850000Y-126600000D01*
X58850000Y-127400000D01*
X58850000Y-129600000D02*
X57050000Y-129600000D01*
X57050000Y-129600000D02*
X57050000Y-128800000D01*
X57050000Y-128800000D02*
X58850000Y-128800000D01*
X58850000Y-128800000D02*
X58850000Y-129600000D01*
G36*
X58850000Y-129600000D02*
G01*
X57050000Y-129600000D01*
X57050000Y-128800000D01*
X58850000Y-128800000D01*
X58850000Y-129600000D01*
G37*
X58850000Y-129600000D02*
X57050000Y-129600000D01*
X57050000Y-128800000D01*
X58850000Y-128800000D01*
X58850000Y-129600000D01*
X49350000Y-125200000D02*
X47550000Y-125200000D01*
X47550000Y-125200000D02*
X47550000Y-124400000D01*
X47550000Y-124400000D02*
X49350000Y-124400000D01*
X49350000Y-124400000D02*
X49350000Y-125200000D01*
G36*
X49350000Y-125200000D02*
G01*
X47550000Y-125200000D01*
X47550000Y-124400000D01*
X49350000Y-124400000D01*
X49350000Y-125200000D01*
G37*
X49350000Y-125200000D02*
X47550000Y-125200000D01*
X47550000Y-124400000D01*
X49350000Y-124400000D01*
X49350000Y-125200000D01*
X58850000Y-121850000D02*
X57050000Y-121850000D01*
X57050000Y-121850000D02*
X57050000Y-121150000D01*
X57050000Y-121150000D02*
X58850000Y-121150000D01*
X58850000Y-121150000D02*
X58850000Y-121850000D01*
G36*
X58850000Y-121850000D02*
G01*
X57050000Y-121850000D01*
X57050000Y-121150000D01*
X58850000Y-121150000D01*
X58850000Y-121850000D01*
G37*
X58850000Y-121850000D02*
X57050000Y-121850000D01*
X57050000Y-121150000D01*
X58850000Y-121150000D01*
X58850000Y-121850000D01*
X58850000Y-130650000D02*
X57050000Y-130650000D01*
X57050000Y-130650000D02*
X57050000Y-129950000D01*
X57050000Y-129950000D02*
X58850000Y-129950000D01*
X58850000Y-129950000D02*
X58850000Y-130650000D01*
G36*
X58850000Y-130650000D02*
G01*
X57050000Y-130650000D01*
X57050000Y-129950000D01*
X58850000Y-129950000D01*
X58850000Y-130650000D01*
G37*
X58850000Y-130650000D02*
X57050000Y-130650000D01*
X57050000Y-129950000D01*
X58850000Y-129950000D01*
X58850000Y-130650000D01*
X49350000Y-123000000D02*
X47550000Y-123000000D01*
X47550000Y-123000000D02*
X47550000Y-122200000D01*
X47550000Y-122200000D02*
X49350000Y-122200000D01*
X49350000Y-122200000D02*
X49350000Y-123000000D01*
G36*
X49350000Y-123000000D02*
G01*
X47550000Y-123000000D01*
X47550000Y-122200000D01*
X49350000Y-122200000D01*
X49350000Y-123000000D01*
G37*
X49350000Y-123000000D02*
X47550000Y-123000000D01*
X47550000Y-122200000D01*
X49350000Y-122200000D01*
X49350000Y-123000000D01*
X58850000Y-123000000D02*
X57050000Y-123000000D01*
X57050000Y-123000000D02*
X57050000Y-122200000D01*
X57050000Y-122200000D02*
X58850000Y-122200000D01*
X58850000Y-122200000D02*
X58850000Y-123000000D01*
G36*
X58850000Y-123000000D02*
G01*
X57050000Y-123000000D01*
X57050000Y-122200000D01*
X58850000Y-122200000D01*
X58850000Y-123000000D01*
G37*
X58850000Y-123000000D02*
X57050000Y-123000000D01*
X57050000Y-122200000D01*
X58850000Y-122200000D01*
X58850000Y-123000000D01*
X58850000Y-125200000D02*
X57050000Y-125200000D01*
X57050000Y-125200000D02*
X57050000Y-124400000D01*
X57050000Y-124400000D02*
X58850000Y-124400000D01*
X58850000Y-124400000D02*
X58850000Y-125200000D01*
G36*
X58850000Y-125200000D02*
G01*
X57050000Y-125200000D01*
X57050000Y-124400000D01*
X58850000Y-124400000D01*
X58850000Y-125200000D01*
G37*
X58850000Y-125200000D02*
X57050000Y-125200000D01*
X57050000Y-124400000D01*
X58850000Y-124400000D01*
X58850000Y-125200000D01*
X49350000Y-129600000D02*
X47550000Y-129600000D01*
X47550000Y-129600000D02*
X47550000Y-128800000D01*
X47550000Y-128800000D02*
X49350000Y-128800000D01*
X49350000Y-128800000D02*
X49350000Y-129600000D01*
G36*
X49350000Y-129600000D02*
G01*
X47550000Y-129600000D01*
X47550000Y-128800000D01*
X49350000Y-128800000D01*
X49350000Y-129600000D01*
G37*
X49350000Y-129600000D02*
X47550000Y-129600000D01*
X47550000Y-128800000D01*
X49350000Y-128800000D01*
X49350000Y-129600000D01*
X58850000Y-124100000D02*
X57050000Y-124100000D01*
X57050000Y-124100000D02*
X57050000Y-123300000D01*
X57050000Y-123300000D02*
X58850000Y-123300000D01*
X58850000Y-123300000D02*
X58850000Y-124100000D01*
G36*
X58850000Y-124100000D02*
G01*
X57050000Y-124100000D01*
X57050000Y-123300000D01*
X58850000Y-123300000D01*
X58850000Y-124100000D01*
G37*
X58850000Y-124100000D02*
X57050000Y-124100000D01*
X57050000Y-123300000D01*
X58850000Y-123300000D01*
X58850000Y-124100000D01*
X49350000Y-128500000D02*
X47550000Y-128500000D01*
X47550000Y-128500000D02*
X47550000Y-127700000D01*
X47550000Y-127700000D02*
X49350000Y-127700000D01*
X49350000Y-127700000D02*
X49350000Y-128500000D01*
G36*
X49350000Y-128500000D02*
G01*
X47550000Y-128500000D01*
X47550000Y-127700000D01*
X49350000Y-127700000D01*
X49350000Y-128500000D01*
G37*
X49350000Y-128500000D02*
X47550000Y-128500000D01*
X47550000Y-127700000D01*
X49350000Y-127700000D01*
X49350000Y-128500000D01*
X49350000Y-124100000D02*
X47550000Y-124100000D01*
X47550000Y-124100000D02*
X47550000Y-123300000D01*
X47550000Y-123300000D02*
X49350000Y-123300000D01*
X49350000Y-123300000D02*
X49350000Y-124100000D01*
G36*
X49350000Y-124100000D02*
G01*
X47550000Y-124100000D01*
X47550000Y-123300000D01*
X49350000Y-123300000D01*
X49350000Y-124100000D01*
G37*
X49350000Y-124100000D02*
X47550000Y-124100000D01*
X47550000Y-123300000D01*
X49350000Y-123300000D01*
X49350000Y-124100000D01*
X49350000Y-127400000D02*
X47550000Y-127400000D01*
X47550000Y-127400000D02*
X47550000Y-126600000D01*
X47550000Y-126600000D02*
X49350000Y-126600000D01*
X49350000Y-126600000D02*
X49350000Y-127400000D01*
G36*
X49350000Y-127400000D02*
G01*
X47550000Y-127400000D01*
X47550000Y-126600000D01*
X49350000Y-126600000D01*
X49350000Y-127400000D01*
G37*
X49350000Y-127400000D02*
X47550000Y-127400000D01*
X47550000Y-126600000D01*
X49350000Y-126600000D01*
X49350000Y-127400000D01*
X49350000Y-121850000D02*
X47550000Y-121850000D01*
X47550000Y-121850000D02*
X47550000Y-121150000D01*
X47550000Y-121150000D02*
X49350000Y-121150000D01*
X49350000Y-121150000D02*
X49350000Y-121850000D01*
G36*
X49350000Y-121850000D02*
G01*
X47550000Y-121850000D01*
X47550000Y-121150000D01*
X49350000Y-121150000D01*
X49350000Y-121850000D01*
G37*
X49350000Y-121850000D02*
X47550000Y-121850000D01*
X47550000Y-121150000D01*
X49350000Y-121150000D01*
X49350000Y-121850000D01*
X49350000Y-130650000D02*
X47550000Y-130650000D01*
X47550000Y-130650000D02*
X47550000Y-129950000D01*
X47550000Y-129950000D02*
X49350000Y-129950000D01*
X49350000Y-129950000D02*
X49350000Y-130650000D01*
G36*
X49350000Y-130650000D02*
G01*
X47550000Y-130650000D01*
X47550000Y-129950000D01*
X49350000Y-129950000D01*
X49350000Y-130650000D01*
G37*
X49350000Y-130650000D02*
X47550000Y-130650000D01*
X47550000Y-129950000D01*
X49350000Y-129950000D01*
X49350000Y-130650000D01*
%TD*%
D17*
%TO.C,R11*%
X140187500Y-117200000D03*
X142012500Y-117200000D03*
%TD*%
D18*
%TO.C,C24*%
X182775000Y-124712500D03*
X182775000Y-126437500D03*
%TD*%
D19*
%TO.C,C16*%
X199137500Y-132100000D03*
X200862500Y-132100000D03*
%TD*%
D20*
%TO.C,JP1*%
X55175000Y-134525000D03*
D21*
X55175000Y-133225000D03*
%TD*%
D22*
%TO.C,C21*%
X133862500Y-130300000D03*
X132137500Y-130300000D03*
%TD*%
D23*
%TO.C,R6*%
X86575000Y-109012500D03*
X86575000Y-110837500D03*
%TD*%
D24*
%TO.C,R2*%
X44050000Y-130212500D03*
X44050000Y-128387500D03*
%TD*%
D25*
%TO.C,SW1*%
X62700000Y-117637500D03*
X67200000Y-117637500D03*
X62700000Y-109237500D03*
X67200000Y-109237500D03*
X64950000Y-117637500D03*
%TD*%
D26*
%TO.C,U8*%
X52625000Y-113540000D03*
X51675000Y-113540000D03*
X50725000Y-113540000D03*
X50725000Y-115860000D03*
X51675000Y-115860000D03*
X52625000Y-115860000D03*
%TD*%
D25*
%TO.C,SW5*%
X143450000Y-114900000D03*
X147950000Y-114900000D03*
X143450000Y-106500000D03*
X147950000Y-106500000D03*
X145700000Y-114900000D03*
%TD*%
D27*
%TO.C,Q3*%
X79200000Y-109012500D03*
X77300000Y-109012500D03*
X78250000Y-110887500D03*
%TD*%
D28*
%TO.C,U9*%
X180525000Y-126037500D03*
X179875000Y-126037500D03*
X179225000Y-126037500D03*
X178575000Y-126037500D03*
X177925000Y-126037500D03*
X177275000Y-126037500D03*
X176625000Y-126037500D03*
X175975000Y-126037500D03*
X175325000Y-126037500D03*
X174675000Y-126037500D03*
X174675000Y-131762500D03*
X175325000Y-131762500D03*
X175975000Y-131762500D03*
X176625000Y-131762500D03*
X177275000Y-131762500D03*
X177925000Y-131762500D03*
X178575000Y-131762500D03*
X179225000Y-131762500D03*
X179875000Y-131762500D03*
X180525000Y-131762500D03*
%TD*%
D29*
%TO.C,Q2*%
X207375000Y-116745000D03*
D30*
X213675000Y-119025000D03*
D29*
X207375000Y-119025000D03*
X207375000Y-121305000D03*
%TD*%
D19*
%TO.C,C23*%
X144862500Y-130300000D03*
X146587500Y-130300000D03*
%TD*%
%TO.C,C14*%
X212337500Y-139300000D03*
X214062500Y-139300000D03*
%TD*%
D31*
%TO.C,C6*%
X192700000Y-122937500D03*
X192700000Y-120862500D03*
%TD*%
D23*
%TO.C,R9*%
X50200000Y-137587500D03*
X50200000Y-139412500D03*
%TD*%
D32*
%TO.C,U6*%
X42000000Y-132925000D03*
X42000000Y-133875000D03*
X42000000Y-134825000D03*
X44700000Y-134825000D03*
X44700000Y-132925000D03*
%TD*%
D27*
%TO.C,Q4*%
X84700000Y-109012500D03*
X82800000Y-109012500D03*
X83750000Y-110887500D03*
%TD*%
D33*
%TO.C,U1*%
X116900000Y-136185000D03*
X116900000Y-134915000D03*
X116900000Y-133645000D03*
X116900000Y-132375000D03*
X116900000Y-131105000D03*
X116900000Y-129835000D03*
X116900000Y-128565000D03*
X116900000Y-127295000D03*
X116900000Y-126025000D03*
X116900000Y-124755000D03*
X116900000Y-123485000D03*
X116900000Y-122215000D03*
X116900000Y-120945000D03*
X116900000Y-119675000D03*
D34*
X113870000Y-118425000D03*
X112600000Y-118425000D03*
X111330000Y-118425000D03*
X110060000Y-118425000D03*
X108790000Y-118425000D03*
X107520000Y-118425000D03*
X106250000Y-118425000D03*
X104980000Y-118425000D03*
X103710000Y-118425000D03*
X102440000Y-118425000D03*
D33*
X99400000Y-119675000D03*
X99400000Y-120945000D03*
X99400000Y-122215000D03*
X99400000Y-123485000D03*
X99400000Y-124755000D03*
X99400000Y-126025000D03*
X99400000Y-127295000D03*
X99400000Y-128565000D03*
X99400000Y-129835000D03*
X99400000Y-131105000D03*
X99400000Y-132375000D03*
X99400000Y-133645000D03*
X99400000Y-134915000D03*
X99400000Y-136185000D03*
D35*
X108830000Y-130370000D03*
X110355000Y-130370000D03*
X108830000Y-128845000D03*
X110355000Y-128845000D03*
X107305000Y-127320000D03*
X107305000Y-130370000D03*
X108830000Y-127320000D03*
X107305000Y-128845000D03*
X110355000Y-127320000D03*
%TD*%
D36*
%TO.C,C4*%
X212362500Y-137250000D03*
X214437500Y-137250000D03*
%TD*%
D37*
%TO.C,U10*%
X106395000Y-103700000D03*
X107665000Y-103700000D03*
X108935000Y-103700000D03*
X110205000Y-103700000D03*
%TD*%
D19*
%TO.C,C28*%
X143937500Y-117200000D03*
X145662500Y-117200000D03*
%TD*%
D38*
%TO.C,C3*%
X212437500Y-132200000D03*
X215562500Y-132200000D03*
%TD*%
D24*
%TO.C,R5*%
X81000000Y-110837500D03*
X81000000Y-109012500D03*
%TD*%
D17*
%TO.C,R7*%
X121587500Y-136300000D03*
X123412500Y-136300000D03*
%TD*%
D39*
%TO.C,C17*%
X52125000Y-119312500D03*
X52125000Y-117587500D03*
%TD*%
D40*
%TO.C,J3*%
X87875000Y-105125000D03*
D41*
X85335000Y-105125000D03*
X82795000Y-105125000D03*
X80255000Y-105125000D03*
X77715000Y-105125000D03*
X75175000Y-105125000D03*
X72635000Y-105125000D03*
X70095000Y-105125000D03*
%TD*%
D25*
%TO.C,SW4*%
X130750000Y-114900000D03*
X135250000Y-114900000D03*
X130750000Y-106500000D03*
X135250000Y-106500000D03*
X133000000Y-114900000D03*
%TD*%
D42*
%TO.C,C2*%
X211200000Y-105937500D03*
X211200000Y-109062500D03*
%TD*%
D19*
%TO.C,C27*%
X131237500Y-117200000D03*
X132962500Y-117200000D03*
%TD*%
D43*
%TO.C,F1*%
X218125000Y-126900000D03*
X213675000Y-126900000D03*
%TD*%
D44*
%TO.C,R1*%
X35700000Y-131600000D03*
X37700000Y-131600000D03*
%TD*%
D25*
%TO.C,SW6*%
X156150000Y-114900000D03*
X160650000Y-114900000D03*
X156150000Y-106500000D03*
X160650000Y-106500000D03*
X158400000Y-114900000D03*
%TD*%
D23*
%TO.C,R4*%
X72625000Y-108187500D03*
X72625000Y-110012500D03*
%TD*%
D25*
%TO.C,SW3*%
X143475000Y-141912500D03*
X147975000Y-141912500D03*
X143475000Y-133512500D03*
X147975000Y-133512500D03*
X145725000Y-141912500D03*
%TD*%
D18*
%TO.C,C20*%
X121600000Y-138137500D03*
X121600000Y-139862500D03*
%TD*%
D45*
%TO.C,L1*%
X35700000Y-128527500D03*
X35700000Y-129672500D03*
%TD*%
D46*
%TO.C,D1*%
X209250000Y-112050000D03*
X207250000Y-113000000D03*
X209250000Y-113950000D03*
%TD*%
D17*
%TO.C,R12*%
X152887500Y-117200000D03*
X154712500Y-117200000D03*
%TD*%
D31*
%TO.C,C8*%
X119600000Y-138837500D03*
X119600000Y-136762500D03*
%TD*%
D24*
%TO.C,R3*%
X211200000Y-113812500D03*
X211200000Y-111987500D03*
%TD*%
D47*
%TO.C,H1*%
X23250000Y-114000000D03*
%TD*%
D39*
%TO.C,C18*%
X56200000Y-119312500D03*
X56200000Y-117587500D03*
%TD*%
%TO.C,C15*%
X47125000Y-134637500D03*
X47125000Y-132912500D03*
%TD*%
D26*
%TO.C,U7*%
X57125000Y-113540000D03*
X56175000Y-113540000D03*
X55225000Y-113540000D03*
X55225000Y-115860000D03*
X56175000Y-115860000D03*
X57125000Y-115860000D03*
%TD*%
D39*
%TO.C,C25*%
X182925000Y-134887500D03*
X182925000Y-133162500D03*
%TD*%
D19*
%TO.C,C11*%
X83812500Y-119600000D03*
X85537500Y-119600000D03*
%TD*%
D48*
%TO.C,C7*%
X63387500Y-121600000D03*
X61312500Y-121600000D03*
%TD*%
D22*
%TO.C,C26*%
X106925000Y-106800000D03*
X105200000Y-106800000D03*
%TD*%
D25*
%TO.C,SW2*%
X130750000Y-141912500D03*
X135250000Y-141912500D03*
X130750000Y-133512500D03*
X135250000Y-133512500D03*
X133000000Y-141912500D03*
%TD*%
D22*
%TO.C,C13*%
X63037500Y-123700000D03*
X61312500Y-123700000D03*
%TD*%
D24*
%TO.C,R8*%
X48100000Y-139425000D03*
X48100000Y-137600000D03*
%TD*%
D19*
%TO.C,C10*%
X35737500Y-126900000D03*
X37462500Y-126900000D03*
%TD*%
D49*
%TO.C,U5*%
X81075000Y-120880000D03*
X81075000Y-119610000D03*
X81075000Y-118340000D03*
X81075000Y-117070000D03*
X76125000Y-117070000D03*
X76125000Y-118340000D03*
X76125000Y-119610000D03*
X76125000Y-120880000D03*
%TD*%
D19*
%TO.C,C9*%
X32437500Y-129600000D03*
X34162500Y-129600000D03*
%TD*%
D50*
%TO.C,U3*%
X209838000Y-132167500D03*
D51*
X209838000Y-134707500D03*
X209838000Y-137247500D03*
%TD*%
D47*
%TO.C,H2*%
X228750000Y-114000000D03*
%TD*%
D22*
%TO.C,C12*%
X214162500Y-134400000D03*
X212437500Y-134400000D03*
%TD*%
D52*
%TO.C,U4*%
X191900000Y-131650000D03*
D53*
X194200000Y-125350000D03*
D52*
X194200000Y-131650000D03*
X196500000Y-131650000D03*
%TD*%
D18*
%TO.C,C22*%
X123400000Y-138137500D03*
X123400000Y-139862500D03*
%TD*%
D54*
%TO.C,Q1*%
X40850000Y-128800000D03*
X40850000Y-129300000D03*
X40850000Y-129800000D03*
X42350000Y-129800000D03*
X42350000Y-129300000D03*
X42350000Y-128800000D03*
%TD*%
D17*
%TO.C,R10*%
X127487500Y-117200000D03*
X129312500Y-117200000D03*
%TD*%
D39*
%TO.C,C19*%
X195600000Y-122962500D03*
X195600000Y-121237500D03*
%TD*%
D36*
%TO.C,C5*%
X198962500Y-129900000D03*
X201037500Y-129900000D03*
%TD*%
D19*
%TO.C,C29*%
X156637500Y-117200000D03*
X158362500Y-117200000D03*
%TD*%
D20*
%TO.C,JP2*%
X51850000Y-134525000D03*
D21*
X51850000Y-133225000D03*
%TD*%
D40*
%TO.C,J4*%
X161975000Y-138200000D03*
D41*
X161975000Y-140740000D03*
X164515000Y-138200000D03*
X164515000Y-140740000D03*
X167055000Y-138200000D03*
X167055000Y-140740000D03*
X169595000Y-138200000D03*
X169595000Y-140740000D03*
X172135000Y-138200000D03*
X172135000Y-140740000D03*
X174675000Y-138200000D03*
X174675000Y-140740000D03*
X177215000Y-138200000D03*
X177215000Y-140740000D03*
X179755000Y-138200000D03*
X179755000Y-140740000D03*
X182295000Y-138200000D03*
X182295000Y-140740000D03*
%TD*%
D55*
%TO.C,J1*%
X221750000Y-126900000D03*
D56*
X227750000Y-126900000D03*
D57*
X224750000Y-131600000D03*
%TD*%
D58*
%TO.C,J2*%
X26600000Y-126900000D03*
D59*
X24025000Y-124325000D03*
X29175000Y-124325000D03*
X29175000Y-129475000D03*
X24025000Y-129475000D03*
%TD*%
M02*
