M48
; DRILL file {KiCad (6.0.0)} date Sat Aug 27 11:07:16 2022
; FORMAT={-:-/ absolute / metric / decimal}
; #@! TF.CreationDate,2022-08-27T11:07:16-04:00
; #@! TF.GenerationSoftware,Kicad,Pcbnew,(6.0.0)
; #@! TF.FileFunction,Plated,1,2,PTH
FMAT,2
METRIC
; #@! TA.AperFunction,Plated,PTH,ViaDrill
T1C0.400
; #@! TA.AperFunction,Plated,PTH,ViaDrill
T2C0.500
; #@! TA.AperFunction,Plated,PTH,ComponentDrill
T3C1.000
; #@! TA.AperFunction,Plated,PTH,ComponentDrill
T4C1.200
; #@! TA.AperFunction,Plated,PTH,ComponentDrill
T5C1.600
; #@! TA.AperFunction,Plated,PTH,ComponentDrill
T6C1.900
; #@! TA.AperFunction,Plated,PTH,ComponentDrill
T7C3.200
%
G90
G05
T1
X32.0Y-125.6
X32.0Y-128.2
X32.0Y-131.1
X34.0Y-125.6
X34.0Y-128.2
X34.0Y-131.1
X36.0Y-125.6
X36.9Y-132.9
X37.0Y-128.1
X37.0Y-129.1
X37.0Y-130.1
X38.0Y-125.6
X38.4Y-128.1
X38.4Y-129.1
X38.4Y-130.1
X39.9Y-128.1
X39.9Y-129.1
X39.9Y-130.1
X39.9Y-132.7
X40.0Y-125.6
X41.4Y-124.2
X42.2Y-131.3
X42.8Y-122.8
X44.2Y-121.4
X44.5Y-127.0
X44.725Y-136.325
X46.2Y-121.3
X46.2Y-123.85
X46.3Y-131.2
X50.3Y-125.8
X50.3Y-127.2
X50.325Y-121.5
X50.325Y-123.85
X50.7Y-140.6
X51.4Y-122.7
X51.4Y-124.7
X52.625Y-112.575
X52.75Y-120.75
X53.575Y-136.55
X54.175Y-110.975
X54.2Y-128.8
X56.025Y-138.275
X56.1Y-110.975
X56.1Y-125.9
X56.1Y-130.3
X56.2Y-121.5
X57.9Y-131.7
X59.3Y-139.7
X61.075Y-140.875
X63.3Y-114.4
X65.575Y-124.725
X65.575Y-129.925
X65.975Y-113.55
X69.75Y-113.55
X70.4Y-123.7
X70.45Y-112.575
X70.7Y-120.9
X73.0Y-121.7
X75.0Y-110.1
X78.3Y-112.3
X80.025Y-107.45
X83.75Y-107.325
X83.8Y-112.4
X88.8Y-139.9
X91.15Y-129.9
X91.9Y-125.9
X91.9Y-128.0
X93.7Y-114.7
X94.7Y-118.0
X95.494Y-120.0
X96.6Y-132.0
X96.7Y-133.3
X97.1Y-118.2
X97.3Y-131.1
X99.175Y-114.85
X101.3Y-126.6
X101.325Y-122.0
X102.2Y-134.5
X102.7Y-123.5
X102.7Y-130.4
X103.7Y-106.8
X103.9Y-124.7
X104.9Y-120.0
X105.2Y-108.2
X105.2Y-114.9
X105.85Y-116.6
X107.2Y-132.1
X107.2Y-136.3
X107.5Y-116.0
X108.8Y-125.7
X108.9Y-105.6
X109.0Y-112.2
X110.1Y-123.1
X112.0Y-127.3
X112.0Y-130.4
X113.5Y-129.4
X113.8Y-124.1
X114.5Y-137.2
X114.975Y-134.725
X115.0Y-135.9
X115.2Y-120.9
X115.25Y-130.425
X115.3Y-127.0
X118.945Y-133.645
X121.0Y-121.9
X121.0Y-130.0
X123.4Y-133.8
X125.7Y-122.0
X126.45Y-126.25
X127.2Y-124.1
X134.6Y-126.25
X141.9Y-120.9
X143.5Y-137.0
X144.525Y-126.25
X147.8Y-123.2
X150.6Y-116.7
X153.7Y-121.7
X156.95Y-126.25
X160.0Y-124.5
X160.0Y-130.4
X160.0Y-133.4
X162.5Y-126.375
X162.5Y-127.9
X164.0Y-128.6
X164.0Y-130.2
X165.2Y-125.4
X165.2Y-128.6
X170.0Y-125.7
X181.7Y-128.3
X181.7Y-130.7
X185.5Y-127.2
X187.1Y-129.1
X192.2Y-133.9
X193.6Y-135.7
X194.7Y-133.9
T2
X48.625Y-132.925
X53.425Y-117.6
X55.2Y-123.7
X57.6Y-117.6
X72.625Y-111.425
X79.3Y-119.8
X86.8Y-114.9
X86.8Y-118.5
X106.9Y-109.8
X119.6Y-134.925
X127.5Y-115.4
X140.2Y-115.4
X152.9Y-115.4
X173.275Y-126.8
X184.8Y-124.7
X213.6Y-109.1
T3
X70.095Y-105.125
X72.635Y-105.125
X75.175Y-105.125
X77.715Y-105.125
X80.255Y-105.125
X82.795Y-105.125
X85.335Y-105.125
X87.875Y-105.125
X161.975Y-138.2
X161.975Y-140.74
X164.515Y-138.2
X164.515Y-140.74
X167.055Y-138.2
X167.055Y-140.74
X169.595Y-138.2
X169.595Y-140.74
X172.135Y-138.2
X172.135Y-140.74
X174.675Y-138.2
X174.675Y-140.74
X177.215Y-138.2
X177.215Y-140.74
X179.755Y-138.2
X179.755Y-140.74
X182.295Y-138.2
X182.295Y-140.74
T4
X209.838Y-132.167
X209.838Y-134.707
X209.838Y-137.248
T5
X26.6Y-126.9
T6
X24.025Y-124.325
X24.025Y-129.475
X29.175Y-124.325
X29.175Y-129.475
T7
X23.25Y-114.0
X228.75Y-114.0
T3
X221.75Y-127.9G85X221.75Y-125.9
G05
X225.75Y-131.6G85X223.75Y-131.6
G05
X227.75Y-127.9G85X227.75Y-125.9
G05
T0
M30
