%TF.GenerationSoftware,KiCad,Pcbnew,(6.0.0)*%
%TF.CreationDate,2022-08-27T11:05:42-04:00*%
%TF.ProjectId,VFD GPS Clock,56464420-4750-4532-9043-6c6f636b2e6b,rev?*%
%TF.SameCoordinates,Original*%
%TF.FileFunction,Legend,Bot*%
%TF.FilePolarity,Positive*%
%FSLAX46Y46*%
G04 Gerber Fmt 4.6, Leading zero omitted, Abs format (unit mm)*
G04 Created by KiCad (PCBNEW (6.0.0)) date 2022-08-27 11:05:42*
%MOMM*%
%LPD*%
G01*
G04 APERTURE LIST*
G04 Aperture macros list*
%AMRoundRect*
0 Rectangle with rounded corners*
0 $1 Rounding radius*
0 $2 $3 $4 $5 $6 $7 $8 $9 X,Y pos of 4 corners*
0 Add a 4 corners polygon primitive as box body*
4,1,4,$2,$3,$4,$5,$6,$7,$8,$9,$2,$3,0*
0 Add four circle primitives for the rounded corners*
1,1,$1+$1,$2,$3*
1,1,$1+$1,$4,$5*
1,1,$1+$1,$6,$7*
1,1,$1+$1,$8,$9*
0 Add four rect primitives between the rounded corners*
20,1,$1+$1,$2,$3,$4,$5,0*
20,1,$1+$1,$4,$5,$6,$7,0*
20,1,$1+$1,$6,$7,$8,$9,0*
20,1,$1+$1,$8,$9,$2,$3,0*%
G04 Aperture macros list end*
%ADD10C,0.150000*%
%ADD11C,0.254000*%
%ADD12C,0.120000*%
%ADD13C,0.100000*%
%ADD14R,1.700000X1.700000*%
%ADD15O,1.700000X1.700000*%
%ADD16C,6.400000*%
%ADD17R,1.800000X1.800000*%
%ADD18C,1.800000*%
%ADD19R,3.500000X3.500000*%
%ADD20RoundRect,0.750000X0.750000X1.000000X-0.750000X1.000000X-0.750000X-1.000000X0.750000X-1.000000X0*%
%ADD21RoundRect,0.875000X0.875000X0.875000X-0.875000X0.875000X-0.875000X-0.875000X0.875000X-0.875000X0*%
%ADD22C,2.400000*%
%ADD23C,2.850000*%
%ADD24R,5.100000X5.100000*%
%ADD25C,17.800000*%
%ADD26RoundRect,0.250000X1.000000X-1.950000X1.000000X1.950000X-1.000000X1.950000X-1.000000X-1.950000X0*%
G04 APERTURE END LIST*
D10*
%TO.C,J4*%
X172458333Y-135127380D02*
X172458333Y-135841666D01*
X172505952Y-135984523D01*
X172601190Y-136079761D01*
X172744047Y-136127380D01*
X172839285Y-136127380D01*
X171553571Y-135460714D02*
X171553571Y-136127380D01*
X171791666Y-135079761D02*
X172029761Y-135794047D01*
X171410714Y-135794047D01*
%TO.C,J1*%
X230533333Y-132102380D02*
X230533333Y-132816666D01*
X230580952Y-132959523D01*
X230676190Y-133054761D01*
X230819047Y-133102380D01*
X230914285Y-133102380D01*
X229533333Y-133102380D02*
X230104761Y-133102380D01*
X229819047Y-133102380D02*
X229819047Y-132102380D01*
X229914285Y-132245238D01*
X230009523Y-132340476D01*
X230104761Y-132388095D01*
D11*
%TO.C,J2*%
X27023333Y-132504523D02*
X27023333Y-133411666D01*
X27083809Y-133593095D01*
X27204761Y-133714047D01*
X27386190Y-133774523D01*
X27507142Y-133774523D01*
X26479047Y-132625476D02*
X26418571Y-132565000D01*
X26297619Y-132504523D01*
X25995238Y-132504523D01*
X25874285Y-132565000D01*
X25813809Y-132625476D01*
X25753333Y-132746428D01*
X25753333Y-132867380D01*
X25813809Y-133048809D01*
X26539523Y-133774523D01*
X25753333Y-133774523D01*
D10*
%TO.C,BT1*%
X79085714Y-121528571D02*
X78942857Y-121576190D01*
X78895238Y-121623809D01*
X78847619Y-121719047D01*
X78847619Y-121861904D01*
X78895238Y-121957142D01*
X78942857Y-122004761D01*
X79038095Y-122052380D01*
X79419047Y-122052380D01*
X79419047Y-121052380D01*
X79085714Y-121052380D01*
X78990476Y-121100000D01*
X78942857Y-121147619D01*
X78895238Y-121242857D01*
X78895238Y-121338095D01*
X78942857Y-121433333D01*
X78990476Y-121480952D01*
X79085714Y-121528571D01*
X79419047Y-121528571D01*
X78561904Y-121052380D02*
X77990476Y-121052380D01*
X78276190Y-122052380D02*
X78276190Y-121052380D01*
X77133333Y-122052380D02*
X77704761Y-122052380D01*
X77419047Y-122052380D02*
X77419047Y-121052380D01*
X77514285Y-121195238D01*
X77609523Y-121290476D01*
X77704761Y-121338095D01*
%TO.C,C1*%
X218966666Y-115757142D02*
X219014285Y-115804761D01*
X219157142Y-115852380D01*
X219252380Y-115852380D01*
X219395238Y-115804761D01*
X219490476Y-115709523D01*
X219538095Y-115614285D01*
X219585714Y-115423809D01*
X219585714Y-115280952D01*
X219538095Y-115090476D01*
X219490476Y-114995238D01*
X219395238Y-114900000D01*
X219252380Y-114852380D01*
X219157142Y-114852380D01*
X219014285Y-114900000D01*
X218966666Y-114947619D01*
X218014285Y-115852380D02*
X218585714Y-115852380D01*
X218300000Y-115852380D02*
X218300000Y-114852380D01*
X218395238Y-114995238D01*
X218490476Y-115090476D01*
X218585714Y-115138095D01*
D12*
%TO.C,J4*%
X183625000Y-136870000D02*
X183625000Y-142070000D01*
X163245000Y-136870000D02*
X183625000Y-136870000D01*
X163245000Y-139470000D02*
X160645000Y-139470000D01*
X160645000Y-136870000D02*
X160645000Y-138200000D01*
X161975000Y-136870000D02*
X160645000Y-136870000D01*
X163245000Y-136870000D02*
X163245000Y-139470000D01*
X160645000Y-139470000D02*
X160645000Y-142070000D01*
X160645000Y-142070000D02*
X183625000Y-142070000D01*
%TO.C,J1*%
X220850000Y-122300000D02*
X220850000Y-124900000D01*
X220850000Y-131500000D02*
X222750000Y-131500000D01*
X220850000Y-128800000D02*
X220850000Y-131500000D01*
X221700000Y-122100000D02*
X220650000Y-122100000D01*
X226750000Y-131500000D02*
X235550000Y-131500000D01*
X220650000Y-123150000D02*
X220650000Y-122100000D01*
X235550000Y-122300000D02*
X220850000Y-122300000D01*
X235550000Y-131500000D02*
X235550000Y-122300000D01*
D13*
%TO.C,J2*%
X23100000Y-125700000D02*
X23100000Y-128100000D01*
X30100000Y-125700000D02*
X30100000Y-128100000D01*
X25400000Y-123400000D02*
X27800000Y-123400000D01*
X27800000Y-130400000D02*
X25400000Y-130400000D01*
D12*
%TO.C,BT1*%
X82225000Y-122826244D02*
X89025000Y-127626244D01*
X62725000Y-130926244D02*
X67525000Y-130926244D01*
X67525000Y-136426244D02*
X62725000Y-136426244D01*
X62725000Y-136426244D02*
X62725000Y-130926244D01*
X93825000Y-130926244D02*
X93825000Y-136426244D01*
X93825000Y-136426244D02*
X89025000Y-136426244D01*
X88825000Y-143176244D02*
X82125000Y-143176244D01*
X67725000Y-143176244D02*
X74425000Y-143176244D01*
X67475000Y-127626244D02*
X74325000Y-122826244D01*
X89025000Y-130926244D02*
X93825000Y-130926244D01*
X74325000Y-122826244D02*
X82225000Y-122826244D01*
X74428615Y-143177708D02*
G75*
G03*
X82125000Y-143176244I3846385J9501457D01*
G01*
%TO.C,C1*%
X223095563Y-113060000D02*
X224160000Y-111995563D01*
X224160000Y-102340000D02*
X220310000Y-102340000D01*
X214504437Y-113060000D02*
X217290000Y-113060000D01*
X222185000Y-113925000D02*
X220935000Y-113925000D01*
X213440000Y-102340000D02*
X217290000Y-102340000D01*
X223095563Y-113060000D02*
X220310000Y-113060000D01*
X224160000Y-111995563D02*
X224160000Y-102340000D01*
X221560000Y-114550000D02*
X221560000Y-113300000D01*
X213440000Y-111995563D02*
X213440000Y-102340000D01*
X214504437Y-113060000D02*
X213440000Y-111995563D01*
%TD*%
%LPC*%
D14*
%TO.C,J3*%
X87875000Y-105125000D03*
D15*
X85335000Y-105125000D03*
X82795000Y-105125000D03*
X80255000Y-105125000D03*
X77715000Y-105125000D03*
X75175000Y-105125000D03*
X72635000Y-105125000D03*
X70095000Y-105125000D03*
%TD*%
D16*
%TO.C,H1*%
X23250000Y-114000000D03*
%TD*%
D17*
%TO.C,U3*%
X209838000Y-132167500D03*
D18*
X209838000Y-134707500D03*
X209838000Y-137247500D03*
%TD*%
D16*
%TO.C,H2*%
X228750000Y-114000000D03*
%TD*%
D14*
%TO.C,J4*%
X161975000Y-138200000D03*
D15*
X161975000Y-140740000D03*
X164515000Y-138200000D03*
X164515000Y-140740000D03*
X167055000Y-138200000D03*
X167055000Y-140740000D03*
X169595000Y-138200000D03*
X169595000Y-140740000D03*
X172135000Y-138200000D03*
X172135000Y-140740000D03*
X174675000Y-138200000D03*
X174675000Y-140740000D03*
X177215000Y-138200000D03*
X177215000Y-140740000D03*
X179755000Y-138200000D03*
X179755000Y-140740000D03*
X182295000Y-138200000D03*
X182295000Y-140740000D03*
%TD*%
D19*
%TO.C,J1*%
X221750000Y-126900000D03*
D20*
X227750000Y-126900000D03*
D21*
X224750000Y-131600000D03*
%TD*%
D22*
%TO.C,J2*%
X26600000Y-126900000D03*
D23*
X24025000Y-124325000D03*
X29175000Y-124325000D03*
X29175000Y-129475000D03*
X24025000Y-129475000D03*
%TD*%
D24*
%TO.C,BT1*%
X65475000Y-133676244D03*
X91075000Y-133676244D03*
D25*
X78275000Y-133676244D03*
%TD*%
D26*
%TO.C,C1*%
X218800000Y-111900000D03*
X218800000Y-103500000D03*
%TD*%
M02*
