%FSLAX45Y45*%
G04 Gerber Fmt 4.5, Leading zero omitted, Abs format (unit mm)*
G04 Created by KiCad (PCBNEW (6.0.0)) date 2022-08-27 11:07:17*
%MOMM*%
%LPD*%
G01*
G04 APERTURE LIST*
%TA.AperFunction,Profile*%
%ADD10C,0.100000*%
%TD*%
%ADD11C,0.200000*%
%ADD12C,0.040000*%
%ADD13C,0.050000*%
%ADD14C,0.100000*%
%ADD15C,0.120000*%
%ADD16C,0.160000*%
%ADD17C,0.190000*%
%ADD18C,0.320000*%
G04 APERTURE END LIST*
D10*
X2000000Y-10000000D02*
X23200000Y-10000000D01*
X23200000Y-10000000D02*
X23200000Y-14400000D01*
X23200000Y-14400000D02*
X2000000Y-14400000D01*
X2000000Y-14400000D02*
X2000000Y-10000000D01*
D11*
D12*
X3180000Y-12540000D02*
X3220000Y-12580000D01*
X3220000Y-12540000D02*
X3180000Y-12580000D01*
X3180000Y-12800000D02*
X3220000Y-12840000D01*
X3220000Y-12800000D02*
X3180000Y-12840000D01*
X3180000Y-13090000D02*
X3220000Y-13130000D01*
X3220000Y-13090000D02*
X3180000Y-13130000D01*
X3380000Y-12540000D02*
X3420000Y-12580000D01*
X3420000Y-12540000D02*
X3380000Y-12580000D01*
X3380000Y-12800000D02*
X3420000Y-12840000D01*
X3420000Y-12800000D02*
X3380000Y-12840000D01*
X3380000Y-13090000D02*
X3420000Y-13130000D01*
X3420000Y-13090000D02*
X3380000Y-13130000D01*
X3580000Y-12540000D02*
X3620000Y-12580000D01*
X3620000Y-12540000D02*
X3580000Y-12580000D01*
X3670000Y-13270000D02*
X3710000Y-13310000D01*
X3710000Y-13270000D02*
X3670000Y-13310000D01*
X3680000Y-12790000D02*
X3720000Y-12830000D01*
X3720000Y-12790000D02*
X3680000Y-12830000D01*
X3680000Y-12890000D02*
X3720000Y-12930000D01*
X3720000Y-12890000D02*
X3680000Y-12930000D01*
X3680000Y-12990000D02*
X3720000Y-13030000D01*
X3720000Y-12990000D02*
X3680000Y-13030000D01*
X3780000Y-12540000D02*
X3820000Y-12580000D01*
X3820000Y-12540000D02*
X3780000Y-12580000D01*
X3820000Y-12790000D02*
X3860000Y-12830000D01*
X3860000Y-12790000D02*
X3820000Y-12830000D01*
X3820000Y-12890000D02*
X3860000Y-12930000D01*
X3860000Y-12890000D02*
X3820000Y-12930000D01*
X3820000Y-12990000D02*
X3860000Y-13030000D01*
X3860000Y-12990000D02*
X3820000Y-13030000D01*
X3970000Y-12790000D02*
X4010000Y-12830000D01*
X4010000Y-12790000D02*
X3970000Y-12830000D01*
X3970000Y-12890000D02*
X4010000Y-12930000D01*
X4010000Y-12890000D02*
X3970000Y-12930000D01*
X3970000Y-12990000D02*
X4010000Y-13030000D01*
X4010000Y-12990000D02*
X3970000Y-13030000D01*
X3970000Y-13250000D02*
X4010000Y-13290000D01*
X4010000Y-13250000D02*
X3970000Y-13290000D01*
X3980000Y-12540000D02*
X4020000Y-12580000D01*
X4020000Y-12540000D02*
X3980000Y-12580000D01*
X4120000Y-12400000D02*
X4160000Y-12440000D01*
X4160000Y-12400000D02*
X4120000Y-12440000D01*
X4200000Y-13110000D02*
X4240000Y-13150000D01*
X4240000Y-13110000D02*
X4200000Y-13150000D01*
X4260000Y-12260000D02*
X4300000Y-12300000D01*
X4300000Y-12260000D02*
X4260000Y-12300000D01*
X4400000Y-12120000D02*
X4440000Y-12160000D01*
X4440000Y-12120000D02*
X4400000Y-12160000D01*
X4430000Y-12680000D02*
X4470000Y-12720000D01*
X4470000Y-12680000D02*
X4430000Y-12720000D01*
X4452500Y-13612500D02*
X4492500Y-13652500D01*
X4492500Y-13612500D02*
X4452500Y-13652500D01*
X4600000Y-12110000D02*
X4640000Y-12150000D01*
X4640000Y-12110000D02*
X4600000Y-12150000D01*
X4600000Y-12365000D02*
X4640000Y-12405000D01*
X4640000Y-12365000D02*
X4600000Y-12405000D01*
X4610000Y-13100000D02*
X4650000Y-13140000D01*
X4650000Y-13100000D02*
X4610000Y-13140000D01*
X5010000Y-12560000D02*
X5050000Y-12600000D01*
X5050000Y-12560000D02*
X5010000Y-12600000D01*
X5010000Y-12700000D02*
X5050000Y-12740000D01*
X5050000Y-12700000D02*
X5010000Y-12740000D01*
X5012500Y-12130000D02*
X5052500Y-12170000D01*
X5052500Y-12130000D02*
X5012500Y-12170000D01*
X5012500Y-12365000D02*
X5052500Y-12405000D01*
X5052500Y-12365000D02*
X5012500Y-12405000D01*
X5050000Y-14040000D02*
X5090000Y-14080000D01*
X5090000Y-14040000D02*
X5050000Y-14080000D01*
X5120000Y-12250000D02*
X5160000Y-12290000D01*
X5160000Y-12250000D02*
X5120000Y-12290000D01*
X5120000Y-12450000D02*
X5160000Y-12490000D01*
X5160000Y-12450000D02*
X5120000Y-12490000D01*
X5242500Y-11237500D02*
X5282500Y-11277500D01*
X5282500Y-11237500D02*
X5242500Y-11277500D01*
X5255000Y-12055000D02*
X5295000Y-12095000D01*
X5295000Y-12055000D02*
X5255000Y-12095000D01*
X5337500Y-13635000D02*
X5377500Y-13675000D01*
X5377500Y-13635000D02*
X5337500Y-13675000D01*
X5397500Y-11077500D02*
X5437500Y-11117500D01*
X5437500Y-11077500D02*
X5397500Y-11117500D01*
X5400000Y-12860000D02*
X5440000Y-12900000D01*
X5440000Y-12860000D02*
X5400000Y-12900000D01*
X5582500Y-13807500D02*
X5622500Y-13847500D01*
X5622500Y-13807500D02*
X5582500Y-13847500D01*
X5590000Y-11077500D02*
X5630000Y-11117500D01*
X5630000Y-11077500D02*
X5590000Y-11117500D01*
X5590000Y-12570000D02*
X5630000Y-12610000D01*
X5630000Y-12570000D02*
X5590000Y-12610000D01*
X5590000Y-13010000D02*
X5630000Y-13050000D01*
X5630000Y-13010000D02*
X5590000Y-13050000D01*
X5600000Y-12130000D02*
X5640000Y-12170000D01*
X5640000Y-12130000D02*
X5600000Y-12170000D01*
X5770000Y-13150000D02*
X5810000Y-13190000D01*
X5810000Y-13150000D02*
X5770000Y-13190000D01*
X5910000Y-13950000D02*
X5950000Y-13990000D01*
X5950000Y-13950000D02*
X5910000Y-13990000D01*
X6087500Y-14067500D02*
X6127500Y-14107500D01*
X6127500Y-14067500D02*
X6087500Y-14107500D01*
X6310000Y-11420000D02*
X6350000Y-11460000D01*
X6350000Y-11420000D02*
X6310000Y-11460000D01*
X6537500Y-12452500D02*
X6577500Y-12492500D01*
X6577500Y-12452500D02*
X6537500Y-12492500D01*
X6537500Y-12972500D02*
X6577500Y-13012500D01*
X6577500Y-12972500D02*
X6537500Y-13012500D01*
X6577500Y-11335000D02*
X6617500Y-11375000D01*
X6617500Y-11335000D02*
X6577500Y-11375000D01*
X6955000Y-11335000D02*
X6995000Y-11375000D01*
X6995000Y-11335000D02*
X6955000Y-11375000D01*
X7020000Y-12350000D02*
X7060000Y-12390000D01*
X7060000Y-12350000D02*
X7020000Y-12390000D01*
X7025000Y-11237500D02*
X7065000Y-11277500D01*
X7065000Y-11237500D02*
X7025000Y-11277500D01*
X7050000Y-12070000D02*
X7090000Y-12110000D01*
X7090000Y-12070000D02*
X7050000Y-12110000D01*
X7280000Y-12150000D02*
X7320000Y-12190000D01*
X7320000Y-12150000D02*
X7280000Y-12190000D01*
X7480000Y-10990000D02*
X7520000Y-11030000D01*
X7520000Y-10990000D02*
X7480000Y-11030000D01*
X7810000Y-11210000D02*
X7850000Y-11250000D01*
X7850000Y-11210000D02*
X7810000Y-11250000D01*
X7982500Y-10725000D02*
X8022500Y-10765000D01*
X8022500Y-10725000D02*
X7982500Y-10765000D01*
X8355000Y-10712500D02*
X8395000Y-10752500D01*
X8395000Y-10712500D02*
X8355000Y-10752500D01*
X8360000Y-11220000D02*
X8400000Y-11260000D01*
X8400000Y-11220000D02*
X8360000Y-11260000D01*
X8860000Y-13970000D02*
X8900000Y-14010000D01*
X8900000Y-13970000D02*
X8860000Y-14010000D01*
X9095000Y-12970000D02*
X9135000Y-13010000D01*
X9135000Y-12970000D02*
X9095000Y-13010000D01*
X9170000Y-12570000D02*
X9210000Y-12610000D01*
X9210000Y-12570000D02*
X9170000Y-12610000D01*
X9170000Y-12780000D02*
X9210000Y-12820000D01*
X9210000Y-12780000D02*
X9170000Y-12820000D01*
X9350000Y-11450000D02*
X9390000Y-11490000D01*
X9390000Y-11450000D02*
X9350000Y-11490000D01*
X9450000Y-11780000D02*
X9490000Y-11820000D01*
X9490000Y-11780000D02*
X9450000Y-11820000D01*
X9529412Y-11980000D02*
X9569412Y-12020000D01*
X9569412Y-11980000D02*
X9529412Y-12020000D01*
X9640000Y-13180000D02*
X9680000Y-13220000D01*
X9680000Y-13180000D02*
X9640000Y-13220000D01*
X9650000Y-13310000D02*
X9690000Y-13350000D01*
X9690000Y-13310000D02*
X9650000Y-13350000D01*
X9690000Y-11800000D02*
X9730000Y-11840000D01*
X9730000Y-11800000D02*
X9690000Y-11840000D01*
X9710000Y-13090000D02*
X9750000Y-13130000D01*
X9750000Y-13090000D02*
X9710000Y-13130000D01*
X9897500Y-11465000D02*
X9937500Y-11505000D01*
X9937500Y-11465000D02*
X9897500Y-11505000D01*
X10110000Y-12640000D02*
X10150000Y-12680000D01*
X10150000Y-12640000D02*
X10110000Y-12680000D01*
X10112500Y-12180000D02*
X10152500Y-12220000D01*
X10152500Y-12180000D02*
X10112500Y-12220000D01*
X10200000Y-13430000D02*
X10240000Y-13470000D01*
X10240000Y-13430000D02*
X10200000Y-13470000D01*
X10250000Y-12330000D02*
X10290000Y-12370000D01*
X10290000Y-12330000D02*
X10250000Y-12370000D01*
X10250000Y-13020000D02*
X10290000Y-13060000D01*
X10290000Y-13020000D02*
X10250000Y-13060000D01*
X10350000Y-10660000D02*
X10390000Y-10700000D01*
X10390000Y-10660000D02*
X10350000Y-10700000D01*
X10370000Y-12450000D02*
X10410000Y-12490000D01*
X10410000Y-12450000D02*
X10370000Y-12490000D01*
X10470000Y-11980000D02*
X10510000Y-12020000D01*
X10510000Y-11980000D02*
X10470000Y-12020000D01*
X10500000Y-10800000D02*
X10540000Y-10840000D01*
X10540000Y-10800000D02*
X10500000Y-10840000D01*
X10500000Y-11470000D02*
X10540000Y-11510000D01*
X10540000Y-11470000D02*
X10500000Y-11510000D01*
X10565000Y-11640000D02*
X10605000Y-11680000D01*
X10605000Y-11640000D02*
X10565000Y-11680000D01*
X10700000Y-13190000D02*
X10740000Y-13230000D01*
X10740000Y-13190000D02*
X10700000Y-13230000D01*
X10700000Y-13610000D02*
X10740000Y-13650000D01*
X10740000Y-13610000D02*
X10700000Y-13650000D01*
X10730000Y-11580000D02*
X10770000Y-11620000D01*
X10770000Y-11580000D02*
X10730000Y-11620000D01*
X10860000Y-12550000D02*
X10900000Y-12590000D01*
X10900000Y-12550000D02*
X10860000Y-12590000D01*
X10870000Y-10540000D02*
X10910000Y-10580000D01*
X10910000Y-10540000D02*
X10870000Y-10580000D01*
X10880000Y-11200000D02*
X10920000Y-11240000D01*
X10920000Y-11200000D02*
X10880000Y-11240000D01*
X10990000Y-12290000D02*
X11030000Y-12330000D01*
X11030000Y-12290000D02*
X10990000Y-12330000D01*
X11180000Y-12710000D02*
X11220000Y-12750000D01*
X11220000Y-12710000D02*
X11180000Y-12750000D01*
X11180000Y-13020000D02*
X11220000Y-13060000D01*
X11220000Y-13020000D02*
X11180000Y-13060000D01*
X11330000Y-12920000D02*
X11370000Y-12960000D01*
X11370000Y-12920000D02*
X11330000Y-12960000D01*
X11360000Y-12390000D02*
X11400000Y-12430000D01*
X11400000Y-12390000D02*
X11360000Y-12430000D01*
X11430000Y-13700000D02*
X11470000Y-13740000D01*
X11470000Y-13700000D02*
X11430000Y-13740000D01*
X11477500Y-13452500D02*
X11517500Y-13492500D01*
X11517500Y-13452500D02*
X11477500Y-13492500D01*
X11480000Y-13570000D02*
X11520000Y-13610000D01*
X11520000Y-13570000D02*
X11480000Y-13610000D01*
X11500000Y-12070000D02*
X11540000Y-12110000D01*
X11540000Y-12070000D02*
X11500000Y-12110000D01*
X11505000Y-13022500D02*
X11545000Y-13062500D01*
X11545000Y-13022500D02*
X11505000Y-13062500D01*
X11510000Y-12680000D02*
X11550000Y-12720000D01*
X11550000Y-12680000D02*
X11510000Y-12720000D01*
X11874500Y-13344500D02*
X11914500Y-13384500D01*
X11914500Y-13344500D02*
X11874500Y-13384500D01*
X12080000Y-12170000D02*
X12120000Y-12210000D01*
X12120000Y-12170000D02*
X12080000Y-12210000D01*
X12080000Y-12980000D02*
X12120000Y-13020000D01*
X12120000Y-12980000D02*
X12080000Y-13020000D01*
X12320000Y-13360000D02*
X12360000Y-13400000D01*
X12360000Y-13360000D02*
X12320000Y-13400000D01*
X12550000Y-12180000D02*
X12590000Y-12220000D01*
X12590000Y-12180000D02*
X12550000Y-12220000D01*
X12625000Y-12605000D02*
X12665000Y-12645000D01*
X12665000Y-12605000D02*
X12625000Y-12645000D01*
X12700000Y-12390000D02*
X12740000Y-12430000D01*
X12740000Y-12390000D02*
X12700000Y-12430000D01*
X13440000Y-12605000D02*
X13480000Y-12645000D01*
X13480000Y-12605000D02*
X13440000Y-12645000D01*
X14170000Y-12070000D02*
X14210000Y-12110000D01*
X14210000Y-12070000D02*
X14170000Y-12110000D01*
X14330000Y-13680000D02*
X14370000Y-13720000D01*
X14370000Y-13680000D02*
X14330000Y-13720000D01*
X14432500Y-12605000D02*
X14472500Y-12645000D01*
X14472500Y-12605000D02*
X14432500Y-12645000D01*
X14760000Y-12300000D02*
X14800000Y-12340000D01*
X14800000Y-12300000D02*
X14760000Y-12340000D01*
X15040000Y-11650000D02*
X15080000Y-11690000D01*
X15080000Y-11650000D02*
X15040000Y-11690000D01*
X15350000Y-12150000D02*
X15390000Y-12190000D01*
X15390000Y-12150000D02*
X15350000Y-12190000D01*
X15675000Y-12605000D02*
X15715000Y-12645000D01*
X15715000Y-12605000D02*
X15675000Y-12645000D01*
X15980000Y-12430000D02*
X16020000Y-12470000D01*
X16020000Y-12430000D02*
X15980000Y-12470000D01*
X15980000Y-13020000D02*
X16020000Y-13060000D01*
X16020000Y-13020000D02*
X15980000Y-13060000D01*
X15980000Y-13320000D02*
X16020000Y-13360000D01*
X16020000Y-13320000D02*
X15980000Y-13360000D01*
X16230000Y-12617550D02*
X16270000Y-12657550D01*
X16270000Y-12617550D02*
X16230000Y-12657550D01*
X16230000Y-12770050D02*
X16270000Y-12810050D01*
X16270000Y-12770050D02*
X16230000Y-12810050D01*
X16380000Y-12840001D02*
X16420000Y-12880001D01*
X16420000Y-12840001D02*
X16380000Y-12880001D01*
X16380000Y-13000000D02*
X16420000Y-13040000D01*
X16420000Y-13000000D02*
X16380000Y-13040000D01*
X16500000Y-12520000D02*
X16540000Y-12560000D01*
X16540000Y-12520000D02*
X16500000Y-12560000D01*
X16500000Y-12840001D02*
X16540000Y-12880001D01*
X16540000Y-12840001D02*
X16500000Y-12880001D01*
X16980000Y-12550000D02*
X17020000Y-12590000D01*
X17020000Y-12550000D02*
X16980000Y-12590000D01*
X18150000Y-12810000D02*
X18190000Y-12850000D01*
X18190000Y-12810000D02*
X18150000Y-12850000D01*
X18150000Y-13050000D02*
X18190000Y-13090000D01*
X18190000Y-13050000D02*
X18150000Y-13090000D01*
X18530000Y-12700000D02*
X18570000Y-12740000D01*
X18570000Y-12700000D02*
X18530000Y-12740000D01*
X18690000Y-12890000D02*
X18730000Y-12930000D01*
X18730000Y-12890000D02*
X18690000Y-12930000D01*
X19200000Y-13370000D02*
X19240000Y-13410000D01*
X19240000Y-13370000D02*
X19200000Y-13410000D01*
X19340000Y-13550000D02*
X19380000Y-13590000D01*
X19380000Y-13550000D02*
X19340000Y-13590000D01*
X19450000Y-13370000D02*
X19490000Y-13410000D01*
X19490000Y-13370000D02*
X19450000Y-13410000D01*
D13*
X4887500Y-13292500D02*
G75*
G03*
X4887500Y-13292500I-25000J0D01*
G01*
X5367550Y-11760000D02*
G75*
G03*
X5367550Y-11760000I-25000J0D01*
G01*
X5545000Y-12370000D02*
G75*
G03*
X5545000Y-12370000I-25000J0D01*
G01*
X5785000Y-11760000D02*
G75*
G03*
X5785000Y-11760000I-25000J0D01*
G01*
X7287500Y-11142500D02*
G75*
G03*
X7287500Y-11142500I-25000J0D01*
G01*
X7955000Y-11980000D02*
G75*
G03*
X7955000Y-11980000I-25000J0D01*
G01*
X8705000Y-11490000D02*
G75*
G03*
X8705000Y-11490000I-25000J0D01*
G01*
X8705000Y-11850000D02*
G75*
G03*
X8705000Y-11850000I-25000J0D01*
G01*
X10715000Y-10980000D02*
G75*
G03*
X10715000Y-10980000I-25000J0D01*
G01*
X11985000Y-13492500D02*
G75*
G03*
X11985000Y-13492500I-25000J0D01*
G01*
X12775000Y-11540000D02*
G75*
G03*
X12775000Y-11540000I-25000J0D01*
G01*
X14045000Y-11540000D02*
G75*
G03*
X14045000Y-11540000I-25000J0D01*
G01*
X15315000Y-11540000D02*
G75*
G03*
X15315000Y-11540000I-25000J0D01*
G01*
X17352500Y-12680000D02*
G75*
G03*
X17352500Y-12680000I-25000J0D01*
G01*
X18505000Y-12470000D02*
G75*
G03*
X18505000Y-12470000I-25000J0D01*
G01*
X21385000Y-10910000D02*
G75*
G03*
X21385000Y-10910000I-25000J0D01*
G01*
D14*
X7009500Y-10462500D02*
X7009500Y-10562500D01*
X6959500Y-10512500D02*
X7059500Y-10512500D01*
X7263500Y-10462500D02*
X7263500Y-10562500D01*
X7213500Y-10512500D02*
X7313500Y-10512500D01*
X7517500Y-10462500D02*
X7517500Y-10562500D01*
X7467500Y-10512500D02*
X7567500Y-10512500D01*
X7771500Y-10462500D02*
X7771500Y-10562500D01*
X7721500Y-10512500D02*
X7821500Y-10512500D01*
X8025500Y-10462500D02*
X8025500Y-10562500D01*
X7975500Y-10512500D02*
X8075500Y-10512500D01*
X8279500Y-10462500D02*
X8279500Y-10562500D01*
X8229500Y-10512500D02*
X8329500Y-10512500D01*
X8533500Y-10462500D02*
X8533500Y-10562500D01*
X8483500Y-10512500D02*
X8583500Y-10512500D01*
X8787500Y-10462500D02*
X8787500Y-10562500D01*
X8737500Y-10512500D02*
X8837500Y-10512500D01*
X16197500Y-13770000D02*
X16197500Y-13870000D01*
X16147500Y-13820000D02*
X16247500Y-13820000D01*
X16197500Y-14024000D02*
X16197500Y-14124000D01*
X16147500Y-14074000D02*
X16247500Y-14074000D01*
X16451500Y-13770000D02*
X16451500Y-13870000D01*
X16401500Y-13820000D02*
X16501500Y-13820000D01*
X16451500Y-14024000D02*
X16451500Y-14124000D01*
X16401500Y-14074000D02*
X16501500Y-14074000D01*
X16705500Y-13770000D02*
X16705500Y-13870000D01*
X16655500Y-13820000D02*
X16755500Y-13820000D01*
X16705500Y-14024000D02*
X16705500Y-14124000D01*
X16655500Y-14074000D02*
X16755500Y-14074000D01*
X16959500Y-13770000D02*
X16959500Y-13870000D01*
X16909500Y-13820000D02*
X17009500Y-13820000D01*
X16959500Y-14024000D02*
X16959500Y-14124000D01*
X16909500Y-14074000D02*
X17009500Y-14074000D01*
X17213500Y-13770000D02*
X17213500Y-13870000D01*
X17163500Y-13820000D02*
X17263500Y-13820000D01*
X17213500Y-14024000D02*
X17213500Y-14124000D01*
X17163500Y-14074000D02*
X17263500Y-14074000D01*
X17467500Y-13770000D02*
X17467500Y-13870000D01*
X17417500Y-13820000D02*
X17517500Y-13820000D01*
X17467500Y-14024000D02*
X17467500Y-14124000D01*
X17417500Y-14074000D02*
X17517500Y-14074000D01*
X17721500Y-13770000D02*
X17721500Y-13870000D01*
X17671500Y-13820000D02*
X17771500Y-13820000D01*
X17721500Y-14024000D02*
X17721500Y-14124000D01*
X17671500Y-14074000D02*
X17771500Y-14074000D01*
X17975500Y-13770000D02*
X17975500Y-13870000D01*
X17925500Y-13820000D02*
X18025500Y-13820000D01*
X17975500Y-14024000D02*
X17975500Y-14124000D01*
X17925500Y-14074000D02*
X18025500Y-14074000D01*
X18229500Y-13770000D02*
X18229500Y-13870000D01*
X18179500Y-13820000D02*
X18279500Y-13820000D01*
X18229500Y-14024000D02*
X18229500Y-14124000D01*
X18179500Y-14074000D02*
X18279500Y-14074000D01*
X22175000Y-12640000D02*
X22175000Y-12740000D01*
X22125000Y-12690000D02*
X22225000Y-12690000D01*
D11*
X22215000Y-12790000D02*
X22215000Y-12590000D01*
X22135000Y-12790000D02*
X22135000Y-12590000D01*
X22215000Y-12590000D02*
G75*
G03*
X22135000Y-12590000I-40000J0D01*
G01*
X22135000Y-12790000D02*
G75*
G03*
X22215000Y-12790000I40000J0D01*
G01*
D14*
X22475000Y-13110000D02*
X22475000Y-13210000D01*
X22425000Y-13160000D02*
X22525000Y-13160000D01*
D11*
X22575000Y-13120000D02*
X22375000Y-13120000D01*
X22575000Y-13200000D02*
X22375000Y-13200000D01*
X22375000Y-13120000D02*
G75*
G03*
X22375000Y-13200000I0J-40000D01*
G01*
X22575000Y-13200000D02*
G75*
G03*
X22575000Y-13120000I0J40000D01*
G01*
D14*
X22775000Y-12640000D02*
X22775000Y-12740000D01*
X22725000Y-12690000D02*
X22825000Y-12690000D01*
D11*
X22815000Y-12790000D02*
X22815000Y-12590000D01*
X22735000Y-12790000D02*
X22735000Y-12590000D01*
X22815000Y-12590000D02*
G75*
G03*
X22735000Y-12590000I-40000J0D01*
G01*
X22735000Y-12790000D02*
G75*
G03*
X22815000Y-12790000I40000J0D01*
G01*
D15*
X21026227Y-13259177D02*
X21026227Y-13174323D01*
X20941373Y-13174323D01*
X20941373Y-13259177D01*
X21026227Y-13259177D01*
X21026227Y-13513177D02*
X21026227Y-13428323D01*
X20941373Y-13428323D01*
X20941373Y-13513177D01*
X21026227Y-13513177D01*
X21026227Y-13767177D02*
X21026227Y-13682323D01*
X20941373Y-13682323D01*
X20941373Y-13767177D01*
X21026227Y-13767177D01*
D16*
X2660000Y-12770000D02*
X2740000Y-12690000D01*
X2660000Y-12610000D01*
X2580000Y-12690000D01*
X2660000Y-12770000D01*
D17*
X2307500Y-12337500D02*
X2497500Y-12527500D01*
X2497500Y-12337500D02*
X2307500Y-12527500D01*
X2497500Y-12432500D02*
G75*
G03*
X2497500Y-12432500I-95000J0D01*
G01*
X2307500Y-12852500D02*
X2497500Y-13042500D01*
X2497500Y-12852500D02*
X2307500Y-13042500D01*
X2497500Y-12947500D02*
G75*
G03*
X2497500Y-12947500I-95000J0D01*
G01*
X2822500Y-12337500D02*
X3012500Y-12527500D01*
X3012500Y-12337500D02*
X2822500Y-12527500D01*
X3012500Y-12432500D02*
G75*
G03*
X3012500Y-12432500I-95000J0D01*
G01*
X2822500Y-12852500D02*
X3012500Y-13042500D01*
X3012500Y-12852500D02*
X2822500Y-13042500D01*
X3012500Y-12947500D02*
G75*
G03*
X3012500Y-12947500I-95000J0D01*
G01*
D18*
X2165000Y-11240000D02*
X2485000Y-11560000D01*
X2485000Y-11240000D02*
X2165000Y-11560000D01*
X2325000Y-11240000D02*
X2325000Y-11560000D01*
X2165000Y-11400000D02*
X2485000Y-11400000D01*
X22715000Y-11240000D02*
X23035000Y-11560000D01*
X23035000Y-11240000D02*
X22715000Y-11560000D01*
X22875000Y-11240000D02*
X22875000Y-11560000D01*
X22715000Y-11400000D02*
X23035000Y-11400000D01*
D11*
X2252619Y-14715476D02*
X2252619Y-14515476D01*
X2300238Y-14515476D01*
X2328810Y-14525000D01*
X2347857Y-14544048D01*
X2357381Y-14563095D01*
X2366905Y-14601190D01*
X2366905Y-14629762D01*
X2357381Y-14667857D01*
X2347857Y-14686905D01*
X2328810Y-14705952D01*
X2300238Y-14715476D01*
X2252619Y-14715476D01*
X2452619Y-14715476D02*
X2452619Y-14582143D01*
X2452619Y-14620238D02*
X2462143Y-14601190D01*
X2471667Y-14591667D01*
X2490714Y-14582143D01*
X2509762Y-14582143D01*
X2576429Y-14715476D02*
X2576429Y-14582143D01*
X2576429Y-14515476D02*
X2566905Y-14525000D01*
X2576429Y-14534524D01*
X2585952Y-14525000D01*
X2576429Y-14515476D01*
X2576429Y-14534524D01*
X2700238Y-14715476D02*
X2681190Y-14705952D01*
X2671667Y-14686905D01*
X2671667Y-14515476D01*
X2805000Y-14715476D02*
X2785952Y-14705952D01*
X2776429Y-14686905D01*
X2776429Y-14515476D01*
X3033571Y-14715476D02*
X3033571Y-14515476D01*
X3100238Y-14658333D01*
X3166905Y-14515476D01*
X3166905Y-14715476D01*
X3347857Y-14715476D02*
X3347857Y-14610714D01*
X3338333Y-14591667D01*
X3319286Y-14582143D01*
X3281190Y-14582143D01*
X3262143Y-14591667D01*
X3347857Y-14705952D02*
X3328809Y-14715476D01*
X3281190Y-14715476D01*
X3262143Y-14705952D01*
X3252619Y-14686905D01*
X3252619Y-14667857D01*
X3262143Y-14648809D01*
X3281190Y-14639286D01*
X3328809Y-14639286D01*
X3347857Y-14629762D01*
X3443095Y-14582143D02*
X3443095Y-14782143D01*
X3443095Y-14591667D02*
X3462143Y-14582143D01*
X3500238Y-14582143D01*
X3519286Y-14591667D01*
X3528809Y-14601190D01*
X3538333Y-14620238D01*
X3538333Y-14677381D01*
X3528809Y-14696428D01*
X3519286Y-14705952D01*
X3500238Y-14715476D01*
X3462143Y-14715476D01*
X3443095Y-14705952D01*
X3624048Y-14696428D02*
X3633571Y-14705952D01*
X3624048Y-14715476D01*
X3614524Y-14705952D01*
X3624048Y-14696428D01*
X3624048Y-14715476D01*
X3624048Y-14591667D02*
X3633571Y-14601190D01*
X3624048Y-14610714D01*
X3614524Y-14601190D01*
X3624048Y-14591667D01*
X3624048Y-14610714D01*
D12*
X1955000Y-15025000D02*
X1995000Y-15065000D01*
X1995000Y-15025000D02*
X1955000Y-15065000D01*
D11*
X2290714Y-14935476D02*
X2309762Y-14935476D01*
X2328810Y-14945000D01*
X2338333Y-14954524D01*
X2347857Y-14973571D01*
X2357381Y-15011667D01*
X2357381Y-15059286D01*
X2347857Y-15097381D01*
X2338333Y-15116428D01*
X2328810Y-15125952D01*
X2309762Y-15135476D01*
X2290714Y-15135476D01*
X2271667Y-15125952D01*
X2262143Y-15116428D01*
X2252619Y-15097381D01*
X2243095Y-15059286D01*
X2243095Y-15011667D01*
X2252619Y-14973571D01*
X2262143Y-14954524D01*
X2271667Y-14945000D01*
X2290714Y-14935476D01*
X2443095Y-15116428D02*
X2452619Y-15125952D01*
X2443095Y-15135476D01*
X2433571Y-15125952D01*
X2443095Y-15116428D01*
X2443095Y-15135476D01*
X2624048Y-15002143D02*
X2624048Y-15135476D01*
X2576429Y-14925952D02*
X2528810Y-15068809D01*
X2652619Y-15068809D01*
X2766905Y-14935476D02*
X2785952Y-14935476D01*
X2805000Y-14945000D01*
X2814524Y-14954524D01*
X2824048Y-14973571D01*
X2833571Y-15011667D01*
X2833571Y-15059286D01*
X2824048Y-15097381D01*
X2814524Y-15116428D01*
X2805000Y-15125952D01*
X2785952Y-15135476D01*
X2766905Y-15135476D01*
X2747857Y-15125952D01*
X2738333Y-15116428D01*
X2728810Y-15097381D01*
X2719286Y-15059286D01*
X2719286Y-15011667D01*
X2728810Y-14973571D01*
X2738333Y-14954524D01*
X2747857Y-14945000D01*
X2766905Y-14935476D01*
X2957381Y-14935476D02*
X2976428Y-14935476D01*
X2995476Y-14945000D01*
X3005000Y-14954524D01*
X3014524Y-14973571D01*
X3024048Y-15011667D01*
X3024048Y-15059286D01*
X3014524Y-15097381D01*
X3005000Y-15116428D01*
X2995476Y-15125952D01*
X2976428Y-15135476D01*
X2957381Y-15135476D01*
X2938333Y-15125952D01*
X2928809Y-15116428D01*
X2919286Y-15097381D01*
X2909762Y-15059286D01*
X2909762Y-15011667D01*
X2919286Y-14973571D01*
X2928809Y-14954524D01*
X2938333Y-14945000D01*
X2957381Y-14935476D01*
X3109762Y-15135476D02*
X3109762Y-15002143D01*
X3109762Y-15021190D02*
X3119286Y-15011667D01*
X3138333Y-15002143D01*
X3166905Y-15002143D01*
X3185952Y-15011667D01*
X3195476Y-15030714D01*
X3195476Y-15135476D01*
X3195476Y-15030714D02*
X3205000Y-15011667D01*
X3224048Y-15002143D01*
X3252619Y-15002143D01*
X3271667Y-15011667D01*
X3281190Y-15030714D01*
X3281190Y-15135476D01*
X3376428Y-15135476D02*
X3376428Y-15002143D01*
X3376428Y-15021190D02*
X3385952Y-15011667D01*
X3405000Y-15002143D01*
X3433571Y-15002143D01*
X3452619Y-15011667D01*
X3462143Y-15030714D01*
X3462143Y-15135476D01*
X3462143Y-15030714D02*
X3471667Y-15011667D01*
X3490714Y-15002143D01*
X3519286Y-15002143D01*
X3538333Y-15011667D01*
X3547857Y-15030714D01*
X3547857Y-15135476D01*
X3938333Y-14925952D02*
X3766905Y-15183095D01*
X4195476Y-14935476D02*
X4214524Y-14935476D01*
X4233571Y-14945000D01*
X4243095Y-14954524D01*
X4252619Y-14973571D01*
X4262143Y-15011667D01*
X4262143Y-15059286D01*
X4252619Y-15097381D01*
X4243095Y-15116428D01*
X4233571Y-15125952D01*
X4214524Y-15135476D01*
X4195476Y-15135476D01*
X4176428Y-15125952D01*
X4166905Y-15116428D01*
X4157381Y-15097381D01*
X4147857Y-15059286D01*
X4147857Y-15011667D01*
X4157381Y-14973571D01*
X4166905Y-14954524D01*
X4176428Y-14945000D01*
X4195476Y-14935476D01*
X4347857Y-15116428D02*
X4357381Y-15125952D01*
X4347857Y-15135476D01*
X4338333Y-15125952D01*
X4347857Y-15116428D01*
X4347857Y-15135476D01*
X4481190Y-14935476D02*
X4500238Y-14935476D01*
X4519286Y-14945000D01*
X4528810Y-14954524D01*
X4538333Y-14973571D01*
X4547857Y-15011667D01*
X4547857Y-15059286D01*
X4538333Y-15097381D01*
X4528810Y-15116428D01*
X4519286Y-15125952D01*
X4500238Y-15135476D01*
X4481190Y-15135476D01*
X4462143Y-15125952D01*
X4452619Y-15116428D01*
X4443095Y-15097381D01*
X4433571Y-15059286D01*
X4433571Y-15011667D01*
X4443095Y-14973571D01*
X4452619Y-14954524D01*
X4462143Y-14945000D01*
X4481190Y-14935476D01*
X4738333Y-15135476D02*
X4624048Y-15135476D01*
X4681190Y-15135476D02*
X4681190Y-14935476D01*
X4662143Y-14964048D01*
X4643095Y-14983095D01*
X4624048Y-14992619D01*
X4919286Y-14935476D02*
X4824048Y-14935476D01*
X4814524Y-15030714D01*
X4824048Y-15021190D01*
X4843095Y-15011667D01*
X4890714Y-15011667D01*
X4909762Y-15021190D01*
X4919286Y-15030714D01*
X4928810Y-15049762D01*
X4928810Y-15097381D01*
X4919286Y-15116428D01*
X4909762Y-15125952D01*
X4890714Y-15135476D01*
X4843095Y-15135476D01*
X4824048Y-15125952D01*
X4814524Y-15116428D01*
X4995476Y-14935476D02*
X5128810Y-14935476D01*
X5043095Y-15135476D01*
X5195476Y-14935476D02*
X5195476Y-14973571D01*
X5271667Y-14935476D02*
X5271667Y-14973571D01*
X5566905Y-15211667D02*
X5557381Y-15202143D01*
X5538333Y-15173571D01*
X5528810Y-15154524D01*
X5519286Y-15125952D01*
X5509762Y-15078333D01*
X5509762Y-15040238D01*
X5519286Y-14992619D01*
X5528810Y-14964048D01*
X5538333Y-14945000D01*
X5557381Y-14916428D01*
X5566905Y-14906905D01*
X5747857Y-15135476D02*
X5633571Y-15135476D01*
X5690714Y-15135476D02*
X5690714Y-14935476D01*
X5671667Y-14964048D01*
X5652619Y-14983095D01*
X5633571Y-14992619D01*
X5814524Y-14935476D02*
X5938333Y-14935476D01*
X5871667Y-15011667D01*
X5900238Y-15011667D01*
X5919286Y-15021190D01*
X5928809Y-15030714D01*
X5938333Y-15049762D01*
X5938333Y-15097381D01*
X5928809Y-15116428D01*
X5919286Y-15125952D01*
X5900238Y-15135476D01*
X5843095Y-15135476D01*
X5824048Y-15125952D01*
X5814524Y-15116428D01*
X6119286Y-14935476D02*
X6024048Y-14935476D01*
X6014524Y-15030714D01*
X6024048Y-15021190D01*
X6043095Y-15011667D01*
X6090714Y-15011667D01*
X6109762Y-15021190D01*
X6119286Y-15030714D01*
X6128809Y-15049762D01*
X6128809Y-15097381D01*
X6119286Y-15116428D01*
X6109762Y-15125952D01*
X6090714Y-15135476D01*
X6043095Y-15135476D01*
X6024048Y-15125952D01*
X6014524Y-15116428D01*
X6366905Y-15135476D02*
X6366905Y-14935476D01*
X6452619Y-15135476D02*
X6452619Y-15030714D01*
X6443095Y-15011667D01*
X6424048Y-15002143D01*
X6395476Y-15002143D01*
X6376428Y-15011667D01*
X6366905Y-15021190D01*
X6576428Y-15135476D02*
X6557381Y-15125952D01*
X6547857Y-15116428D01*
X6538333Y-15097381D01*
X6538333Y-15040238D01*
X6547857Y-15021190D01*
X6557381Y-15011667D01*
X6576428Y-15002143D01*
X6605000Y-15002143D01*
X6624048Y-15011667D01*
X6633571Y-15021190D01*
X6643095Y-15040238D01*
X6643095Y-15097381D01*
X6633571Y-15116428D01*
X6624048Y-15125952D01*
X6605000Y-15135476D01*
X6576428Y-15135476D01*
X6757381Y-15135476D02*
X6738333Y-15125952D01*
X6728809Y-15106905D01*
X6728809Y-14935476D01*
X6909762Y-15125952D02*
X6890714Y-15135476D01*
X6852619Y-15135476D01*
X6833571Y-15125952D01*
X6824048Y-15106905D01*
X6824048Y-15030714D01*
X6833571Y-15011667D01*
X6852619Y-15002143D01*
X6890714Y-15002143D01*
X6909762Y-15011667D01*
X6919286Y-15030714D01*
X6919286Y-15049762D01*
X6824048Y-15068809D01*
X6995476Y-15125952D02*
X7014524Y-15135476D01*
X7052619Y-15135476D01*
X7071667Y-15125952D01*
X7081190Y-15106905D01*
X7081190Y-15097381D01*
X7071667Y-15078333D01*
X7052619Y-15068809D01*
X7024048Y-15068809D01*
X7005000Y-15059286D01*
X6995476Y-15040238D01*
X6995476Y-15030714D01*
X7005000Y-15011667D01*
X7024048Y-15002143D01*
X7052619Y-15002143D01*
X7071667Y-15011667D01*
X7147857Y-15211667D02*
X7157381Y-15202143D01*
X7176428Y-15173571D01*
X7185952Y-15154524D01*
X7195476Y-15125952D01*
X7205000Y-15078333D01*
X7205000Y-15040238D01*
X7195476Y-14992619D01*
X7185952Y-14964048D01*
X7176428Y-14945000D01*
X7157381Y-14916428D01*
X7147857Y-14906905D01*
D13*
X1995000Y-15309000D02*
G75*
G03*
X1995000Y-15309000I-25000J0D01*
G01*
D11*
X2290714Y-15199476D02*
X2309762Y-15199476D01*
X2328810Y-15209000D01*
X2338333Y-15218524D01*
X2347857Y-15237571D01*
X2357381Y-15275667D01*
X2357381Y-15323286D01*
X2347857Y-15361381D01*
X2338333Y-15380428D01*
X2328810Y-15389952D01*
X2309762Y-15399476D01*
X2290714Y-15399476D01*
X2271667Y-15389952D01*
X2262143Y-15380428D01*
X2252619Y-15361381D01*
X2243095Y-15323286D01*
X2243095Y-15275667D01*
X2252619Y-15237571D01*
X2262143Y-15218524D01*
X2271667Y-15209000D01*
X2290714Y-15199476D01*
X2443095Y-15380428D02*
X2452619Y-15389952D01*
X2443095Y-15399476D01*
X2433571Y-15389952D01*
X2443095Y-15380428D01*
X2443095Y-15399476D01*
X2633571Y-15199476D02*
X2538333Y-15199476D01*
X2528810Y-15294714D01*
X2538333Y-15285190D01*
X2557381Y-15275667D01*
X2605000Y-15275667D01*
X2624048Y-15285190D01*
X2633571Y-15294714D01*
X2643095Y-15313762D01*
X2643095Y-15361381D01*
X2633571Y-15380428D01*
X2624048Y-15389952D01*
X2605000Y-15399476D01*
X2557381Y-15399476D01*
X2538333Y-15389952D01*
X2528810Y-15380428D01*
X2766905Y-15199476D02*
X2785952Y-15199476D01*
X2805000Y-15209000D01*
X2814524Y-15218524D01*
X2824048Y-15237571D01*
X2833571Y-15275667D01*
X2833571Y-15323286D01*
X2824048Y-15361381D01*
X2814524Y-15380428D01*
X2805000Y-15389952D01*
X2785952Y-15399476D01*
X2766905Y-15399476D01*
X2747857Y-15389952D01*
X2738333Y-15380428D01*
X2728810Y-15361381D01*
X2719286Y-15323286D01*
X2719286Y-15275667D01*
X2728810Y-15237571D01*
X2738333Y-15218524D01*
X2747857Y-15209000D01*
X2766905Y-15199476D01*
X2957381Y-15199476D02*
X2976428Y-15199476D01*
X2995476Y-15209000D01*
X3005000Y-15218524D01*
X3014524Y-15237571D01*
X3024048Y-15275667D01*
X3024048Y-15323286D01*
X3014524Y-15361381D01*
X3005000Y-15380428D01*
X2995476Y-15389952D01*
X2976428Y-15399476D01*
X2957381Y-15399476D01*
X2938333Y-15389952D01*
X2928809Y-15380428D01*
X2919286Y-15361381D01*
X2909762Y-15323286D01*
X2909762Y-15275667D01*
X2919286Y-15237571D01*
X2928809Y-15218524D01*
X2938333Y-15209000D01*
X2957381Y-15199476D01*
X3109762Y-15399476D02*
X3109762Y-15266143D01*
X3109762Y-15285190D02*
X3119286Y-15275667D01*
X3138333Y-15266143D01*
X3166905Y-15266143D01*
X3185952Y-15275667D01*
X3195476Y-15294714D01*
X3195476Y-15399476D01*
X3195476Y-15294714D02*
X3205000Y-15275667D01*
X3224048Y-15266143D01*
X3252619Y-15266143D01*
X3271667Y-15275667D01*
X3281190Y-15294714D01*
X3281190Y-15399476D01*
X3376428Y-15399476D02*
X3376428Y-15266143D01*
X3376428Y-15285190D02*
X3385952Y-15275667D01*
X3405000Y-15266143D01*
X3433571Y-15266143D01*
X3452619Y-15275667D01*
X3462143Y-15294714D01*
X3462143Y-15399476D01*
X3462143Y-15294714D02*
X3471667Y-15275667D01*
X3490714Y-15266143D01*
X3519286Y-15266143D01*
X3538333Y-15275667D01*
X3547857Y-15294714D01*
X3547857Y-15399476D01*
X3938333Y-15189952D02*
X3766905Y-15447095D01*
X4195476Y-15199476D02*
X4214524Y-15199476D01*
X4233571Y-15209000D01*
X4243095Y-15218524D01*
X4252619Y-15237571D01*
X4262143Y-15275667D01*
X4262143Y-15323286D01*
X4252619Y-15361381D01*
X4243095Y-15380428D01*
X4233571Y-15389952D01*
X4214524Y-15399476D01*
X4195476Y-15399476D01*
X4176428Y-15389952D01*
X4166905Y-15380428D01*
X4157381Y-15361381D01*
X4147857Y-15323286D01*
X4147857Y-15275667D01*
X4157381Y-15237571D01*
X4166905Y-15218524D01*
X4176428Y-15209000D01*
X4195476Y-15199476D01*
X4347857Y-15380428D02*
X4357381Y-15389952D01*
X4347857Y-15399476D01*
X4338333Y-15389952D01*
X4347857Y-15380428D01*
X4347857Y-15399476D01*
X4481190Y-15199476D02*
X4500238Y-15199476D01*
X4519286Y-15209000D01*
X4528810Y-15218524D01*
X4538333Y-15237571D01*
X4547857Y-15275667D01*
X4547857Y-15323286D01*
X4538333Y-15361381D01*
X4528810Y-15380428D01*
X4519286Y-15389952D01*
X4500238Y-15399476D01*
X4481190Y-15399476D01*
X4462143Y-15389952D01*
X4452619Y-15380428D01*
X4443095Y-15361381D01*
X4433571Y-15323286D01*
X4433571Y-15275667D01*
X4443095Y-15237571D01*
X4452619Y-15218524D01*
X4462143Y-15209000D01*
X4481190Y-15199476D01*
X4738333Y-15399476D02*
X4624048Y-15399476D01*
X4681190Y-15399476D02*
X4681190Y-15199476D01*
X4662143Y-15228048D01*
X4643095Y-15247095D01*
X4624048Y-15256619D01*
X4833571Y-15399476D02*
X4871667Y-15399476D01*
X4890714Y-15389952D01*
X4900238Y-15380428D01*
X4919286Y-15351857D01*
X4928810Y-15313762D01*
X4928810Y-15237571D01*
X4919286Y-15218524D01*
X4909762Y-15209000D01*
X4890714Y-15199476D01*
X4852619Y-15199476D01*
X4833571Y-15209000D01*
X4824048Y-15218524D01*
X4814524Y-15237571D01*
X4814524Y-15285190D01*
X4824048Y-15304238D01*
X4833571Y-15313762D01*
X4852619Y-15323286D01*
X4890714Y-15323286D01*
X4909762Y-15313762D01*
X4919286Y-15304238D01*
X4928810Y-15285190D01*
X4995476Y-15199476D02*
X5128810Y-15199476D01*
X5043095Y-15399476D01*
X5195476Y-15199476D02*
X5195476Y-15237571D01*
X5271667Y-15199476D02*
X5271667Y-15237571D01*
X5566905Y-15475667D02*
X5557381Y-15466143D01*
X5538333Y-15437571D01*
X5528810Y-15418524D01*
X5519286Y-15389952D01*
X5509762Y-15342333D01*
X5509762Y-15304238D01*
X5519286Y-15256619D01*
X5528810Y-15228048D01*
X5538333Y-15209000D01*
X5557381Y-15180428D01*
X5566905Y-15170905D01*
X5747857Y-15399476D02*
X5633571Y-15399476D01*
X5690714Y-15399476D02*
X5690714Y-15199476D01*
X5671667Y-15228048D01*
X5652619Y-15247095D01*
X5633571Y-15256619D01*
X5919286Y-15199476D02*
X5881190Y-15199476D01*
X5862143Y-15209000D01*
X5852619Y-15218524D01*
X5833571Y-15247095D01*
X5824048Y-15285190D01*
X5824048Y-15361381D01*
X5833571Y-15380428D01*
X5843095Y-15389952D01*
X5862143Y-15399476D01*
X5900238Y-15399476D01*
X5919286Y-15389952D01*
X5928809Y-15380428D01*
X5938333Y-15361381D01*
X5938333Y-15313762D01*
X5928809Y-15294714D01*
X5919286Y-15285190D01*
X5900238Y-15275667D01*
X5862143Y-15275667D01*
X5843095Y-15285190D01*
X5833571Y-15294714D01*
X5824048Y-15313762D01*
X6176428Y-15399476D02*
X6176428Y-15199476D01*
X6262143Y-15399476D02*
X6262143Y-15294714D01*
X6252619Y-15275667D01*
X6233571Y-15266143D01*
X6205000Y-15266143D01*
X6185952Y-15275667D01*
X6176428Y-15285190D01*
X6385952Y-15399476D02*
X6366905Y-15389952D01*
X6357381Y-15380428D01*
X6347857Y-15361381D01*
X6347857Y-15304238D01*
X6357381Y-15285190D01*
X6366905Y-15275667D01*
X6385952Y-15266143D01*
X6414524Y-15266143D01*
X6433571Y-15275667D01*
X6443095Y-15285190D01*
X6452619Y-15304238D01*
X6452619Y-15361381D01*
X6443095Y-15380428D01*
X6433571Y-15389952D01*
X6414524Y-15399476D01*
X6385952Y-15399476D01*
X6566905Y-15399476D02*
X6547857Y-15389952D01*
X6538333Y-15370905D01*
X6538333Y-15199476D01*
X6719286Y-15389952D02*
X6700238Y-15399476D01*
X6662143Y-15399476D01*
X6643095Y-15389952D01*
X6633571Y-15370905D01*
X6633571Y-15294714D01*
X6643095Y-15275667D01*
X6662143Y-15266143D01*
X6700238Y-15266143D01*
X6719286Y-15275667D01*
X6728809Y-15294714D01*
X6728809Y-15313762D01*
X6633571Y-15332809D01*
X6805000Y-15389952D02*
X6824048Y-15399476D01*
X6862143Y-15399476D01*
X6881190Y-15389952D01*
X6890714Y-15370905D01*
X6890714Y-15361381D01*
X6881190Y-15342333D01*
X6862143Y-15332809D01*
X6833571Y-15332809D01*
X6814524Y-15323286D01*
X6805000Y-15304238D01*
X6805000Y-15294714D01*
X6814524Y-15275667D01*
X6833571Y-15266143D01*
X6862143Y-15266143D01*
X6881190Y-15275667D01*
X6957381Y-15475667D02*
X6966905Y-15466143D01*
X6985952Y-15437571D01*
X6995476Y-15418524D01*
X7005000Y-15389952D01*
X7014524Y-15342333D01*
X7014524Y-15304238D01*
X7005000Y-15256619D01*
X6995476Y-15228048D01*
X6985952Y-15209000D01*
X6966905Y-15180428D01*
X6957381Y-15170905D01*
D14*
X1945000Y-15523000D02*
X1945000Y-15623000D01*
X1895000Y-15573000D02*
X1995000Y-15573000D01*
D11*
X2357381Y-15663476D02*
X2243095Y-15663476D01*
X2300238Y-15663476D02*
X2300238Y-15463476D01*
X2281190Y-15492048D01*
X2262143Y-15511095D01*
X2243095Y-15520619D01*
X2443095Y-15644428D02*
X2452619Y-15653952D01*
X2443095Y-15663476D01*
X2433571Y-15653952D01*
X2443095Y-15644428D01*
X2443095Y-15663476D01*
X2576429Y-15463476D02*
X2595476Y-15463476D01*
X2614524Y-15473000D01*
X2624048Y-15482524D01*
X2633571Y-15501571D01*
X2643095Y-15539667D01*
X2643095Y-15587286D01*
X2633571Y-15625381D01*
X2624048Y-15644428D01*
X2614524Y-15653952D01*
X2595476Y-15663476D01*
X2576429Y-15663476D01*
X2557381Y-15653952D01*
X2547857Y-15644428D01*
X2538333Y-15625381D01*
X2528810Y-15587286D01*
X2528810Y-15539667D01*
X2538333Y-15501571D01*
X2547857Y-15482524D01*
X2557381Y-15473000D01*
X2576429Y-15463476D01*
X2766905Y-15463476D02*
X2785952Y-15463476D01*
X2805000Y-15473000D01*
X2814524Y-15482524D01*
X2824048Y-15501571D01*
X2833571Y-15539667D01*
X2833571Y-15587286D01*
X2824048Y-15625381D01*
X2814524Y-15644428D01*
X2805000Y-15653952D01*
X2785952Y-15663476D01*
X2766905Y-15663476D01*
X2747857Y-15653952D01*
X2738333Y-15644428D01*
X2728810Y-15625381D01*
X2719286Y-15587286D01*
X2719286Y-15539667D01*
X2728810Y-15501571D01*
X2738333Y-15482524D01*
X2747857Y-15473000D01*
X2766905Y-15463476D01*
X2957381Y-15463476D02*
X2976428Y-15463476D01*
X2995476Y-15473000D01*
X3005000Y-15482524D01*
X3014524Y-15501571D01*
X3024048Y-15539667D01*
X3024048Y-15587286D01*
X3014524Y-15625381D01*
X3005000Y-15644428D01*
X2995476Y-15653952D01*
X2976428Y-15663476D01*
X2957381Y-15663476D01*
X2938333Y-15653952D01*
X2928809Y-15644428D01*
X2919286Y-15625381D01*
X2909762Y-15587286D01*
X2909762Y-15539667D01*
X2919286Y-15501571D01*
X2928809Y-15482524D01*
X2938333Y-15473000D01*
X2957381Y-15463476D01*
X3109762Y-15663476D02*
X3109762Y-15530143D01*
X3109762Y-15549190D02*
X3119286Y-15539667D01*
X3138333Y-15530143D01*
X3166905Y-15530143D01*
X3185952Y-15539667D01*
X3195476Y-15558714D01*
X3195476Y-15663476D01*
X3195476Y-15558714D02*
X3205000Y-15539667D01*
X3224048Y-15530143D01*
X3252619Y-15530143D01*
X3271667Y-15539667D01*
X3281190Y-15558714D01*
X3281190Y-15663476D01*
X3376428Y-15663476D02*
X3376428Y-15530143D01*
X3376428Y-15549190D02*
X3385952Y-15539667D01*
X3405000Y-15530143D01*
X3433571Y-15530143D01*
X3452619Y-15539667D01*
X3462143Y-15558714D01*
X3462143Y-15663476D01*
X3462143Y-15558714D02*
X3471667Y-15539667D01*
X3490714Y-15530143D01*
X3519286Y-15530143D01*
X3538333Y-15539667D01*
X3547857Y-15558714D01*
X3547857Y-15663476D01*
X3938333Y-15453952D02*
X3766905Y-15711095D01*
X4195476Y-15463476D02*
X4214524Y-15463476D01*
X4233571Y-15473000D01*
X4243095Y-15482524D01*
X4252619Y-15501571D01*
X4262143Y-15539667D01*
X4262143Y-15587286D01*
X4252619Y-15625381D01*
X4243095Y-15644428D01*
X4233571Y-15653952D01*
X4214524Y-15663476D01*
X4195476Y-15663476D01*
X4176428Y-15653952D01*
X4166905Y-15644428D01*
X4157381Y-15625381D01*
X4147857Y-15587286D01*
X4147857Y-15539667D01*
X4157381Y-15501571D01*
X4166905Y-15482524D01*
X4176428Y-15473000D01*
X4195476Y-15463476D01*
X4347857Y-15644428D02*
X4357381Y-15653952D01*
X4347857Y-15663476D01*
X4338333Y-15653952D01*
X4347857Y-15644428D01*
X4347857Y-15663476D01*
X4481190Y-15463476D02*
X4500238Y-15463476D01*
X4519286Y-15473000D01*
X4528810Y-15482524D01*
X4538333Y-15501571D01*
X4547857Y-15539667D01*
X4547857Y-15587286D01*
X4538333Y-15625381D01*
X4528810Y-15644428D01*
X4519286Y-15653952D01*
X4500238Y-15663476D01*
X4481190Y-15663476D01*
X4462143Y-15653952D01*
X4452619Y-15644428D01*
X4443095Y-15625381D01*
X4433571Y-15587286D01*
X4433571Y-15539667D01*
X4443095Y-15501571D01*
X4452619Y-15482524D01*
X4462143Y-15473000D01*
X4481190Y-15463476D01*
X4614524Y-15463476D02*
X4738333Y-15463476D01*
X4671667Y-15539667D01*
X4700238Y-15539667D01*
X4719286Y-15549190D01*
X4728810Y-15558714D01*
X4738333Y-15577762D01*
X4738333Y-15625381D01*
X4728810Y-15644428D01*
X4719286Y-15653952D01*
X4700238Y-15663476D01*
X4643095Y-15663476D01*
X4624048Y-15653952D01*
X4614524Y-15644428D01*
X4833571Y-15663476D02*
X4871667Y-15663476D01*
X4890714Y-15653952D01*
X4900238Y-15644428D01*
X4919286Y-15615857D01*
X4928810Y-15577762D01*
X4928810Y-15501571D01*
X4919286Y-15482524D01*
X4909762Y-15473000D01*
X4890714Y-15463476D01*
X4852619Y-15463476D01*
X4833571Y-15473000D01*
X4824048Y-15482524D01*
X4814524Y-15501571D01*
X4814524Y-15549190D01*
X4824048Y-15568238D01*
X4833571Y-15577762D01*
X4852619Y-15587286D01*
X4890714Y-15587286D01*
X4909762Y-15577762D01*
X4919286Y-15568238D01*
X4928810Y-15549190D01*
X5100238Y-15530143D02*
X5100238Y-15663476D01*
X5052619Y-15453952D02*
X5005000Y-15596809D01*
X5128810Y-15596809D01*
X5195476Y-15463476D02*
X5195476Y-15501571D01*
X5271667Y-15463476D02*
X5271667Y-15501571D01*
X5566905Y-15739667D02*
X5557381Y-15730143D01*
X5538333Y-15701571D01*
X5528810Y-15682524D01*
X5519286Y-15653952D01*
X5509762Y-15606333D01*
X5509762Y-15568238D01*
X5519286Y-15520619D01*
X5528810Y-15492048D01*
X5538333Y-15473000D01*
X5557381Y-15444428D01*
X5566905Y-15434905D01*
X5633571Y-15482524D02*
X5643095Y-15473000D01*
X5662143Y-15463476D01*
X5709762Y-15463476D01*
X5728809Y-15473000D01*
X5738333Y-15482524D01*
X5747857Y-15501571D01*
X5747857Y-15520619D01*
X5738333Y-15549190D01*
X5624048Y-15663476D01*
X5747857Y-15663476D01*
X5919286Y-15463476D02*
X5881190Y-15463476D01*
X5862143Y-15473000D01*
X5852619Y-15482524D01*
X5833571Y-15511095D01*
X5824048Y-15549190D01*
X5824048Y-15625381D01*
X5833571Y-15644428D01*
X5843095Y-15653952D01*
X5862143Y-15663476D01*
X5900238Y-15663476D01*
X5919286Y-15653952D01*
X5928809Y-15644428D01*
X5938333Y-15625381D01*
X5938333Y-15577762D01*
X5928809Y-15558714D01*
X5919286Y-15549190D01*
X5900238Y-15539667D01*
X5862143Y-15539667D01*
X5843095Y-15549190D01*
X5833571Y-15558714D01*
X5824048Y-15577762D01*
X6176428Y-15663476D02*
X6176428Y-15463476D01*
X6262143Y-15663476D02*
X6262143Y-15558714D01*
X6252619Y-15539667D01*
X6233571Y-15530143D01*
X6205000Y-15530143D01*
X6185952Y-15539667D01*
X6176428Y-15549190D01*
X6385952Y-15663476D02*
X6366905Y-15653952D01*
X6357381Y-15644428D01*
X6347857Y-15625381D01*
X6347857Y-15568238D01*
X6357381Y-15549190D01*
X6366905Y-15539667D01*
X6385952Y-15530143D01*
X6414524Y-15530143D01*
X6433571Y-15539667D01*
X6443095Y-15549190D01*
X6452619Y-15568238D01*
X6452619Y-15625381D01*
X6443095Y-15644428D01*
X6433571Y-15653952D01*
X6414524Y-15663476D01*
X6385952Y-15663476D01*
X6566905Y-15663476D02*
X6547857Y-15653952D01*
X6538333Y-15634905D01*
X6538333Y-15463476D01*
X6719286Y-15653952D02*
X6700238Y-15663476D01*
X6662143Y-15663476D01*
X6643095Y-15653952D01*
X6633571Y-15634905D01*
X6633571Y-15558714D01*
X6643095Y-15539667D01*
X6662143Y-15530143D01*
X6700238Y-15530143D01*
X6719286Y-15539667D01*
X6728809Y-15558714D01*
X6728809Y-15577762D01*
X6633571Y-15596809D01*
X6805000Y-15653952D02*
X6824048Y-15663476D01*
X6862143Y-15663476D01*
X6881190Y-15653952D01*
X6890714Y-15634905D01*
X6890714Y-15625381D01*
X6881190Y-15606333D01*
X6862143Y-15596809D01*
X6833571Y-15596809D01*
X6814524Y-15587286D01*
X6805000Y-15568238D01*
X6805000Y-15558714D01*
X6814524Y-15539667D01*
X6833571Y-15530143D01*
X6862143Y-15530143D01*
X6881190Y-15539667D01*
X7128809Y-15587286D02*
X7281190Y-15587286D01*
X7205000Y-15663476D02*
X7205000Y-15511095D01*
X7509762Y-15463476D02*
X7633571Y-15463476D01*
X7566905Y-15539667D01*
X7595476Y-15539667D01*
X7614524Y-15549190D01*
X7624048Y-15558714D01*
X7633571Y-15577762D01*
X7633571Y-15625381D01*
X7624048Y-15644428D01*
X7614524Y-15653952D01*
X7595476Y-15663476D01*
X7538333Y-15663476D01*
X7519286Y-15653952D01*
X7509762Y-15644428D01*
X7862143Y-15653952D02*
X7881190Y-15663476D01*
X7919286Y-15663476D01*
X7938333Y-15653952D01*
X7947857Y-15634905D01*
X7947857Y-15625381D01*
X7938333Y-15606333D01*
X7919286Y-15596809D01*
X7890714Y-15596809D01*
X7871667Y-15587286D01*
X7862143Y-15568238D01*
X7862143Y-15558714D01*
X7871667Y-15539667D01*
X7890714Y-15530143D01*
X7919286Y-15530143D01*
X7938333Y-15539667D01*
X8062143Y-15663476D02*
X8043095Y-15653952D01*
X8033571Y-15634905D01*
X8033571Y-15463476D01*
X8166905Y-15663476D02*
X8147857Y-15653952D01*
X8138333Y-15644428D01*
X8128809Y-15625381D01*
X8128809Y-15568238D01*
X8138333Y-15549190D01*
X8147857Y-15539667D01*
X8166905Y-15530143D01*
X8195476Y-15530143D01*
X8214524Y-15539667D01*
X8224048Y-15549190D01*
X8233571Y-15568238D01*
X8233571Y-15625381D01*
X8224048Y-15644428D01*
X8214524Y-15653952D01*
X8195476Y-15663476D01*
X8166905Y-15663476D01*
X8290714Y-15530143D02*
X8366905Y-15530143D01*
X8319286Y-15463476D02*
X8319286Y-15634905D01*
X8328809Y-15653952D01*
X8347857Y-15663476D01*
X8366905Y-15663476D01*
X8424048Y-15653952D02*
X8443095Y-15663476D01*
X8481190Y-15663476D01*
X8500238Y-15653952D01*
X8509762Y-15634905D01*
X8509762Y-15625381D01*
X8500238Y-15606333D01*
X8481190Y-15596809D01*
X8452619Y-15596809D01*
X8433571Y-15587286D01*
X8424048Y-15568238D01*
X8424048Y-15558714D01*
X8433571Y-15539667D01*
X8452619Y-15530143D01*
X8481190Y-15530143D01*
X8500238Y-15539667D01*
X8576429Y-15739667D02*
X8585952Y-15730143D01*
X8605000Y-15701571D01*
X8614524Y-15682524D01*
X8624048Y-15653952D01*
X8633571Y-15606333D01*
X8633571Y-15568238D01*
X8624048Y-15520619D01*
X8614524Y-15492048D01*
X8605000Y-15473000D01*
X8585952Y-15444428D01*
X8576429Y-15434905D01*
D15*
X1977427Y-15879427D02*
X1977427Y-15794573D01*
X1892573Y-15794573D01*
X1892573Y-15879427D01*
X1977427Y-15879427D01*
D11*
X2357381Y-15927476D02*
X2243095Y-15927476D01*
X2300238Y-15927476D02*
X2300238Y-15727476D01*
X2281190Y-15756048D01*
X2262143Y-15775095D01*
X2243095Y-15784619D01*
X2443095Y-15908428D02*
X2452619Y-15917952D01*
X2443095Y-15927476D01*
X2433571Y-15917952D01*
X2443095Y-15908428D01*
X2443095Y-15927476D01*
X2528810Y-15746524D02*
X2538333Y-15737000D01*
X2557381Y-15727476D01*
X2605000Y-15727476D01*
X2624048Y-15737000D01*
X2633571Y-15746524D01*
X2643095Y-15765571D01*
X2643095Y-15784619D01*
X2633571Y-15813190D01*
X2519286Y-15927476D01*
X2643095Y-15927476D01*
X2766905Y-15727476D02*
X2785952Y-15727476D01*
X2805000Y-15737000D01*
X2814524Y-15746524D01*
X2824048Y-15765571D01*
X2833571Y-15803667D01*
X2833571Y-15851286D01*
X2824048Y-15889381D01*
X2814524Y-15908428D01*
X2805000Y-15917952D01*
X2785952Y-15927476D01*
X2766905Y-15927476D01*
X2747857Y-15917952D01*
X2738333Y-15908428D01*
X2728810Y-15889381D01*
X2719286Y-15851286D01*
X2719286Y-15803667D01*
X2728810Y-15765571D01*
X2738333Y-15746524D01*
X2747857Y-15737000D01*
X2766905Y-15727476D01*
X2957381Y-15727476D02*
X2976428Y-15727476D01*
X2995476Y-15737000D01*
X3005000Y-15746524D01*
X3014524Y-15765571D01*
X3024048Y-15803667D01*
X3024048Y-15851286D01*
X3014524Y-15889381D01*
X3005000Y-15908428D01*
X2995476Y-15917952D01*
X2976428Y-15927476D01*
X2957381Y-15927476D01*
X2938333Y-15917952D01*
X2928809Y-15908428D01*
X2919286Y-15889381D01*
X2909762Y-15851286D01*
X2909762Y-15803667D01*
X2919286Y-15765571D01*
X2928809Y-15746524D01*
X2938333Y-15737000D01*
X2957381Y-15727476D01*
X3109762Y-15927476D02*
X3109762Y-15794143D01*
X3109762Y-15813190D02*
X3119286Y-15803667D01*
X3138333Y-15794143D01*
X3166905Y-15794143D01*
X3185952Y-15803667D01*
X3195476Y-15822714D01*
X3195476Y-15927476D01*
X3195476Y-15822714D02*
X3205000Y-15803667D01*
X3224048Y-15794143D01*
X3252619Y-15794143D01*
X3271667Y-15803667D01*
X3281190Y-15822714D01*
X3281190Y-15927476D01*
X3376428Y-15927476D02*
X3376428Y-15794143D01*
X3376428Y-15813190D02*
X3385952Y-15803667D01*
X3405000Y-15794143D01*
X3433571Y-15794143D01*
X3452619Y-15803667D01*
X3462143Y-15822714D01*
X3462143Y-15927476D01*
X3462143Y-15822714D02*
X3471667Y-15803667D01*
X3490714Y-15794143D01*
X3519286Y-15794143D01*
X3538333Y-15803667D01*
X3547857Y-15822714D01*
X3547857Y-15927476D01*
X3938333Y-15717952D02*
X3766905Y-15975095D01*
X4195476Y-15727476D02*
X4214524Y-15727476D01*
X4233571Y-15737000D01*
X4243095Y-15746524D01*
X4252619Y-15765571D01*
X4262143Y-15803667D01*
X4262143Y-15851286D01*
X4252619Y-15889381D01*
X4243095Y-15908428D01*
X4233571Y-15917952D01*
X4214524Y-15927476D01*
X4195476Y-15927476D01*
X4176428Y-15917952D01*
X4166905Y-15908428D01*
X4157381Y-15889381D01*
X4147857Y-15851286D01*
X4147857Y-15803667D01*
X4157381Y-15765571D01*
X4166905Y-15746524D01*
X4176428Y-15737000D01*
X4195476Y-15727476D01*
X4347857Y-15908428D02*
X4357381Y-15917952D01*
X4347857Y-15927476D01*
X4338333Y-15917952D01*
X4347857Y-15908428D01*
X4347857Y-15927476D01*
X4481190Y-15727476D02*
X4500238Y-15727476D01*
X4519286Y-15737000D01*
X4528810Y-15746524D01*
X4538333Y-15765571D01*
X4547857Y-15803667D01*
X4547857Y-15851286D01*
X4538333Y-15889381D01*
X4528810Y-15908428D01*
X4519286Y-15917952D01*
X4500238Y-15927476D01*
X4481190Y-15927476D01*
X4462143Y-15917952D01*
X4452619Y-15908428D01*
X4443095Y-15889381D01*
X4433571Y-15851286D01*
X4433571Y-15803667D01*
X4443095Y-15765571D01*
X4452619Y-15746524D01*
X4462143Y-15737000D01*
X4481190Y-15727476D01*
X4719286Y-15794143D02*
X4719286Y-15927476D01*
X4671667Y-15717952D02*
X4624048Y-15860809D01*
X4747857Y-15860809D01*
X4805000Y-15727476D02*
X4938333Y-15727476D01*
X4852619Y-15927476D01*
X5005000Y-15746524D02*
X5014524Y-15737000D01*
X5033571Y-15727476D01*
X5081190Y-15727476D01*
X5100238Y-15737000D01*
X5109762Y-15746524D01*
X5119286Y-15765571D01*
X5119286Y-15784619D01*
X5109762Y-15813190D01*
X4995476Y-15927476D01*
X5119286Y-15927476D01*
X5195476Y-15727476D02*
X5195476Y-15765571D01*
X5271667Y-15727476D02*
X5271667Y-15765571D01*
X5566905Y-16003667D02*
X5557381Y-15994143D01*
X5538333Y-15965571D01*
X5528810Y-15946524D01*
X5519286Y-15917952D01*
X5509762Y-15870333D01*
X5509762Y-15832238D01*
X5519286Y-15784619D01*
X5528810Y-15756048D01*
X5538333Y-15737000D01*
X5557381Y-15708428D01*
X5566905Y-15698905D01*
X5624048Y-15727476D02*
X5747857Y-15727476D01*
X5681190Y-15803667D01*
X5709762Y-15803667D01*
X5728809Y-15813190D01*
X5738333Y-15822714D01*
X5747857Y-15841762D01*
X5747857Y-15889381D01*
X5738333Y-15908428D01*
X5728809Y-15917952D01*
X5709762Y-15927476D01*
X5652619Y-15927476D01*
X5633571Y-15917952D01*
X5624048Y-15908428D01*
X5985952Y-15927476D02*
X5985952Y-15727476D01*
X6071667Y-15927476D02*
X6071667Y-15822714D01*
X6062143Y-15803667D01*
X6043095Y-15794143D01*
X6014524Y-15794143D01*
X5995476Y-15803667D01*
X5985952Y-15813190D01*
X6195476Y-15927476D02*
X6176428Y-15917952D01*
X6166905Y-15908428D01*
X6157381Y-15889381D01*
X6157381Y-15832238D01*
X6166905Y-15813190D01*
X6176428Y-15803667D01*
X6195476Y-15794143D01*
X6224048Y-15794143D01*
X6243095Y-15803667D01*
X6252619Y-15813190D01*
X6262143Y-15832238D01*
X6262143Y-15889381D01*
X6252619Y-15908428D01*
X6243095Y-15917952D01*
X6224048Y-15927476D01*
X6195476Y-15927476D01*
X6376428Y-15927476D02*
X6357381Y-15917952D01*
X6347857Y-15898905D01*
X6347857Y-15727476D01*
X6528809Y-15917952D02*
X6509762Y-15927476D01*
X6471667Y-15927476D01*
X6452619Y-15917952D01*
X6443095Y-15898905D01*
X6443095Y-15822714D01*
X6452619Y-15803667D01*
X6471667Y-15794143D01*
X6509762Y-15794143D01*
X6528809Y-15803667D01*
X6538333Y-15822714D01*
X6538333Y-15841762D01*
X6443095Y-15860809D01*
X6614524Y-15917952D02*
X6633571Y-15927476D01*
X6671667Y-15927476D01*
X6690714Y-15917952D01*
X6700238Y-15898905D01*
X6700238Y-15889381D01*
X6690714Y-15870333D01*
X6671667Y-15860809D01*
X6643095Y-15860809D01*
X6624048Y-15851286D01*
X6614524Y-15832238D01*
X6614524Y-15822714D01*
X6624048Y-15803667D01*
X6643095Y-15794143D01*
X6671667Y-15794143D01*
X6690714Y-15803667D01*
X6766905Y-16003667D02*
X6776428Y-15994143D01*
X6795476Y-15965571D01*
X6805000Y-15946524D01*
X6814524Y-15917952D01*
X6824048Y-15870333D01*
X6824048Y-15832238D01*
X6814524Y-15784619D01*
X6805000Y-15756048D01*
X6795476Y-15737000D01*
X6776428Y-15708428D01*
X6766905Y-15698905D01*
D16*
X1915000Y-16181000D02*
X1995000Y-16101000D01*
X1915000Y-16021000D01*
X1835000Y-16101000D01*
X1915000Y-16181000D01*
D11*
X2357381Y-16191476D02*
X2243095Y-16191476D01*
X2300238Y-16191476D02*
X2300238Y-15991476D01*
X2281190Y-16020048D01*
X2262143Y-16039095D01*
X2243095Y-16048619D01*
X2443095Y-16172428D02*
X2452619Y-16181952D01*
X2443095Y-16191476D01*
X2433571Y-16181952D01*
X2443095Y-16172428D01*
X2443095Y-16191476D01*
X2624048Y-15991476D02*
X2585952Y-15991476D01*
X2566905Y-16001000D01*
X2557381Y-16010524D01*
X2538333Y-16039095D01*
X2528810Y-16077190D01*
X2528810Y-16153381D01*
X2538333Y-16172428D01*
X2547857Y-16181952D01*
X2566905Y-16191476D01*
X2605000Y-16191476D01*
X2624048Y-16181952D01*
X2633571Y-16172428D01*
X2643095Y-16153381D01*
X2643095Y-16105762D01*
X2633571Y-16086714D01*
X2624048Y-16077190D01*
X2605000Y-16067667D01*
X2566905Y-16067667D01*
X2547857Y-16077190D01*
X2538333Y-16086714D01*
X2528810Y-16105762D01*
X2766905Y-15991476D02*
X2785952Y-15991476D01*
X2805000Y-16001000D01*
X2814524Y-16010524D01*
X2824048Y-16029571D01*
X2833571Y-16067667D01*
X2833571Y-16115286D01*
X2824048Y-16153381D01*
X2814524Y-16172428D01*
X2805000Y-16181952D01*
X2785952Y-16191476D01*
X2766905Y-16191476D01*
X2747857Y-16181952D01*
X2738333Y-16172428D01*
X2728810Y-16153381D01*
X2719286Y-16115286D01*
X2719286Y-16067667D01*
X2728810Y-16029571D01*
X2738333Y-16010524D01*
X2747857Y-16001000D01*
X2766905Y-15991476D01*
X2957381Y-15991476D02*
X2976428Y-15991476D01*
X2995476Y-16001000D01*
X3005000Y-16010524D01*
X3014524Y-16029571D01*
X3024048Y-16067667D01*
X3024048Y-16115286D01*
X3014524Y-16153381D01*
X3005000Y-16172428D01*
X2995476Y-16181952D01*
X2976428Y-16191476D01*
X2957381Y-16191476D01*
X2938333Y-16181952D01*
X2928809Y-16172428D01*
X2919286Y-16153381D01*
X2909762Y-16115286D01*
X2909762Y-16067667D01*
X2919286Y-16029571D01*
X2928809Y-16010524D01*
X2938333Y-16001000D01*
X2957381Y-15991476D01*
X3109762Y-16191476D02*
X3109762Y-16058143D01*
X3109762Y-16077190D02*
X3119286Y-16067667D01*
X3138333Y-16058143D01*
X3166905Y-16058143D01*
X3185952Y-16067667D01*
X3195476Y-16086714D01*
X3195476Y-16191476D01*
X3195476Y-16086714D02*
X3205000Y-16067667D01*
X3224048Y-16058143D01*
X3252619Y-16058143D01*
X3271667Y-16067667D01*
X3281190Y-16086714D01*
X3281190Y-16191476D01*
X3376428Y-16191476D02*
X3376428Y-16058143D01*
X3376428Y-16077190D02*
X3385952Y-16067667D01*
X3405000Y-16058143D01*
X3433571Y-16058143D01*
X3452619Y-16067667D01*
X3462143Y-16086714D01*
X3462143Y-16191476D01*
X3462143Y-16086714D02*
X3471667Y-16067667D01*
X3490714Y-16058143D01*
X3519286Y-16058143D01*
X3538333Y-16067667D01*
X3547857Y-16086714D01*
X3547857Y-16191476D01*
X3938333Y-15981952D02*
X3766905Y-16239095D01*
X4195476Y-15991476D02*
X4214524Y-15991476D01*
X4233571Y-16001000D01*
X4243095Y-16010524D01*
X4252619Y-16029571D01*
X4262143Y-16067667D01*
X4262143Y-16115286D01*
X4252619Y-16153381D01*
X4243095Y-16172428D01*
X4233571Y-16181952D01*
X4214524Y-16191476D01*
X4195476Y-16191476D01*
X4176428Y-16181952D01*
X4166905Y-16172428D01*
X4157381Y-16153381D01*
X4147857Y-16115286D01*
X4147857Y-16067667D01*
X4157381Y-16029571D01*
X4166905Y-16010524D01*
X4176428Y-16001000D01*
X4195476Y-15991476D01*
X4347857Y-16172428D02*
X4357381Y-16181952D01*
X4347857Y-16191476D01*
X4338333Y-16181952D01*
X4347857Y-16172428D01*
X4347857Y-16191476D01*
X4481190Y-15991476D02*
X4500238Y-15991476D01*
X4519286Y-16001000D01*
X4528810Y-16010524D01*
X4538333Y-16029571D01*
X4547857Y-16067667D01*
X4547857Y-16115286D01*
X4538333Y-16153381D01*
X4528810Y-16172428D01*
X4519286Y-16181952D01*
X4500238Y-16191476D01*
X4481190Y-16191476D01*
X4462143Y-16181952D01*
X4452619Y-16172428D01*
X4443095Y-16153381D01*
X4433571Y-16115286D01*
X4433571Y-16067667D01*
X4443095Y-16029571D01*
X4452619Y-16010524D01*
X4462143Y-16001000D01*
X4481190Y-15991476D01*
X4719286Y-15991476D02*
X4681190Y-15991476D01*
X4662143Y-16001000D01*
X4652619Y-16010524D01*
X4633571Y-16039095D01*
X4624048Y-16077190D01*
X4624048Y-16153381D01*
X4633571Y-16172428D01*
X4643095Y-16181952D01*
X4662143Y-16191476D01*
X4700238Y-16191476D01*
X4719286Y-16181952D01*
X4728810Y-16172428D01*
X4738333Y-16153381D01*
X4738333Y-16105762D01*
X4728810Y-16086714D01*
X4719286Y-16077190D01*
X4700238Y-16067667D01*
X4662143Y-16067667D01*
X4643095Y-16077190D01*
X4633571Y-16086714D01*
X4624048Y-16105762D01*
X4805000Y-15991476D02*
X4928810Y-15991476D01*
X4862143Y-16067667D01*
X4890714Y-16067667D01*
X4909762Y-16077190D01*
X4919286Y-16086714D01*
X4928810Y-16105762D01*
X4928810Y-16153381D01*
X4919286Y-16172428D01*
X4909762Y-16181952D01*
X4890714Y-16191476D01*
X4833571Y-16191476D01*
X4814524Y-16181952D01*
X4805000Y-16172428D01*
X5052619Y-15991476D02*
X5071667Y-15991476D01*
X5090714Y-16001000D01*
X5100238Y-16010524D01*
X5109762Y-16029571D01*
X5119286Y-16067667D01*
X5119286Y-16115286D01*
X5109762Y-16153381D01*
X5100238Y-16172428D01*
X5090714Y-16181952D01*
X5071667Y-16191476D01*
X5052619Y-16191476D01*
X5033571Y-16181952D01*
X5024048Y-16172428D01*
X5014524Y-16153381D01*
X5005000Y-16115286D01*
X5005000Y-16067667D01*
X5014524Y-16029571D01*
X5024048Y-16010524D01*
X5033571Y-16001000D01*
X5052619Y-15991476D01*
X5195476Y-15991476D02*
X5195476Y-16029571D01*
X5271667Y-15991476D02*
X5271667Y-16029571D01*
X5566905Y-16267667D02*
X5557381Y-16258143D01*
X5538333Y-16229571D01*
X5528810Y-16210524D01*
X5519286Y-16181952D01*
X5509762Y-16134333D01*
X5509762Y-16096238D01*
X5519286Y-16048619D01*
X5528810Y-16020048D01*
X5538333Y-16001000D01*
X5557381Y-15972428D01*
X5566905Y-15962905D01*
X5747857Y-16191476D02*
X5633571Y-16191476D01*
X5690714Y-16191476D02*
X5690714Y-15991476D01*
X5671667Y-16020048D01*
X5652619Y-16039095D01*
X5633571Y-16048619D01*
X5985952Y-16191476D02*
X5985952Y-15991476D01*
X6071667Y-16191476D02*
X6071667Y-16086714D01*
X6062143Y-16067667D01*
X6043095Y-16058143D01*
X6014524Y-16058143D01*
X5995476Y-16067667D01*
X5985952Y-16077190D01*
X6195476Y-16191476D02*
X6176428Y-16181952D01*
X6166905Y-16172428D01*
X6157381Y-16153381D01*
X6157381Y-16096238D01*
X6166905Y-16077190D01*
X6176428Y-16067667D01*
X6195476Y-16058143D01*
X6224048Y-16058143D01*
X6243095Y-16067667D01*
X6252619Y-16077190D01*
X6262143Y-16096238D01*
X6262143Y-16153381D01*
X6252619Y-16172428D01*
X6243095Y-16181952D01*
X6224048Y-16191476D01*
X6195476Y-16191476D01*
X6376428Y-16191476D02*
X6357381Y-16181952D01*
X6347857Y-16162905D01*
X6347857Y-15991476D01*
X6528809Y-16181952D02*
X6509762Y-16191476D01*
X6471667Y-16191476D01*
X6452619Y-16181952D01*
X6443095Y-16162905D01*
X6443095Y-16086714D01*
X6452619Y-16067667D01*
X6471667Y-16058143D01*
X6509762Y-16058143D01*
X6528809Y-16067667D01*
X6538333Y-16086714D01*
X6538333Y-16105762D01*
X6443095Y-16124809D01*
X6605000Y-16267667D02*
X6614524Y-16258143D01*
X6633571Y-16229571D01*
X6643095Y-16210524D01*
X6652619Y-16181952D01*
X6662143Y-16134333D01*
X6662143Y-16096238D01*
X6652619Y-16048619D01*
X6643095Y-16020048D01*
X6633571Y-16001000D01*
X6614524Y-15972428D01*
X6605000Y-15962905D01*
D17*
X1805000Y-16286000D02*
X1995000Y-16476000D01*
X1995000Y-16286000D02*
X1805000Y-16476000D01*
X1995000Y-16381000D02*
G75*
G03*
X1995000Y-16381000I-95000J0D01*
G01*
D11*
X2357381Y-16471476D02*
X2243095Y-16471476D01*
X2300238Y-16471476D02*
X2300238Y-16271476D01*
X2281190Y-16300048D01*
X2262143Y-16319095D01*
X2243095Y-16328619D01*
X2443095Y-16452428D02*
X2452619Y-16461952D01*
X2443095Y-16471476D01*
X2433571Y-16461952D01*
X2443095Y-16452428D01*
X2443095Y-16471476D01*
X2547857Y-16471476D02*
X2585952Y-16471476D01*
X2605000Y-16461952D01*
X2614524Y-16452428D01*
X2633571Y-16423857D01*
X2643095Y-16385762D01*
X2643095Y-16309571D01*
X2633571Y-16290524D01*
X2624048Y-16281000D01*
X2605000Y-16271476D01*
X2566905Y-16271476D01*
X2547857Y-16281000D01*
X2538333Y-16290524D01*
X2528810Y-16309571D01*
X2528810Y-16357190D01*
X2538333Y-16376238D01*
X2547857Y-16385762D01*
X2566905Y-16395286D01*
X2605000Y-16395286D01*
X2624048Y-16385762D01*
X2633571Y-16376238D01*
X2643095Y-16357190D01*
X2766905Y-16271476D02*
X2785952Y-16271476D01*
X2805000Y-16281000D01*
X2814524Y-16290524D01*
X2824048Y-16309571D01*
X2833571Y-16347667D01*
X2833571Y-16395286D01*
X2824048Y-16433381D01*
X2814524Y-16452428D01*
X2805000Y-16461952D01*
X2785952Y-16471476D01*
X2766905Y-16471476D01*
X2747857Y-16461952D01*
X2738333Y-16452428D01*
X2728810Y-16433381D01*
X2719286Y-16395286D01*
X2719286Y-16347667D01*
X2728810Y-16309571D01*
X2738333Y-16290524D01*
X2747857Y-16281000D01*
X2766905Y-16271476D01*
X2957381Y-16271476D02*
X2976428Y-16271476D01*
X2995476Y-16281000D01*
X3005000Y-16290524D01*
X3014524Y-16309571D01*
X3024048Y-16347667D01*
X3024048Y-16395286D01*
X3014524Y-16433381D01*
X3005000Y-16452428D01*
X2995476Y-16461952D01*
X2976428Y-16471476D01*
X2957381Y-16471476D01*
X2938333Y-16461952D01*
X2928809Y-16452428D01*
X2919286Y-16433381D01*
X2909762Y-16395286D01*
X2909762Y-16347667D01*
X2919286Y-16309571D01*
X2928809Y-16290524D01*
X2938333Y-16281000D01*
X2957381Y-16271476D01*
X3109762Y-16471476D02*
X3109762Y-16338143D01*
X3109762Y-16357190D02*
X3119286Y-16347667D01*
X3138333Y-16338143D01*
X3166905Y-16338143D01*
X3185952Y-16347667D01*
X3195476Y-16366714D01*
X3195476Y-16471476D01*
X3195476Y-16366714D02*
X3205000Y-16347667D01*
X3224048Y-16338143D01*
X3252619Y-16338143D01*
X3271667Y-16347667D01*
X3281190Y-16366714D01*
X3281190Y-16471476D01*
X3376428Y-16471476D02*
X3376428Y-16338143D01*
X3376428Y-16357190D02*
X3385952Y-16347667D01*
X3405000Y-16338143D01*
X3433571Y-16338143D01*
X3452619Y-16347667D01*
X3462143Y-16366714D01*
X3462143Y-16471476D01*
X3462143Y-16366714D02*
X3471667Y-16347667D01*
X3490714Y-16338143D01*
X3519286Y-16338143D01*
X3538333Y-16347667D01*
X3547857Y-16366714D01*
X3547857Y-16471476D01*
X3938333Y-16261952D02*
X3766905Y-16519095D01*
X4195476Y-16271476D02*
X4214524Y-16271476D01*
X4233571Y-16281000D01*
X4243095Y-16290524D01*
X4252619Y-16309571D01*
X4262143Y-16347667D01*
X4262143Y-16395286D01*
X4252619Y-16433381D01*
X4243095Y-16452428D01*
X4233571Y-16461952D01*
X4214524Y-16471476D01*
X4195476Y-16471476D01*
X4176428Y-16461952D01*
X4166905Y-16452428D01*
X4157381Y-16433381D01*
X4147857Y-16395286D01*
X4147857Y-16347667D01*
X4157381Y-16309571D01*
X4166905Y-16290524D01*
X4176428Y-16281000D01*
X4195476Y-16271476D01*
X4347857Y-16452428D02*
X4357381Y-16461952D01*
X4347857Y-16471476D01*
X4338333Y-16461952D01*
X4347857Y-16452428D01*
X4347857Y-16471476D01*
X4481190Y-16271476D02*
X4500238Y-16271476D01*
X4519286Y-16281000D01*
X4528810Y-16290524D01*
X4538333Y-16309571D01*
X4547857Y-16347667D01*
X4547857Y-16395286D01*
X4538333Y-16433381D01*
X4528810Y-16452428D01*
X4519286Y-16461952D01*
X4500238Y-16471476D01*
X4481190Y-16471476D01*
X4462143Y-16461952D01*
X4452619Y-16452428D01*
X4443095Y-16433381D01*
X4433571Y-16395286D01*
X4433571Y-16347667D01*
X4443095Y-16309571D01*
X4452619Y-16290524D01*
X4462143Y-16281000D01*
X4481190Y-16271476D01*
X4614524Y-16271476D02*
X4747857Y-16271476D01*
X4662143Y-16471476D01*
X4909762Y-16338143D02*
X4909762Y-16471476D01*
X4862143Y-16261952D02*
X4814524Y-16404809D01*
X4938333Y-16404809D01*
X5043095Y-16357190D02*
X5024048Y-16347667D01*
X5014524Y-16338143D01*
X5005000Y-16319095D01*
X5005000Y-16309571D01*
X5014524Y-16290524D01*
X5024048Y-16281000D01*
X5043095Y-16271476D01*
X5081190Y-16271476D01*
X5100238Y-16281000D01*
X5109762Y-16290524D01*
X5119286Y-16309571D01*
X5119286Y-16319095D01*
X5109762Y-16338143D01*
X5100238Y-16347667D01*
X5081190Y-16357190D01*
X5043095Y-16357190D01*
X5024048Y-16366714D01*
X5014524Y-16376238D01*
X5005000Y-16395286D01*
X5005000Y-16433381D01*
X5014524Y-16452428D01*
X5024048Y-16461952D01*
X5043095Y-16471476D01*
X5081190Y-16471476D01*
X5100238Y-16461952D01*
X5109762Y-16452428D01*
X5119286Y-16433381D01*
X5119286Y-16395286D01*
X5109762Y-16376238D01*
X5100238Y-16366714D01*
X5081190Y-16357190D01*
X5195476Y-16271476D02*
X5195476Y-16309571D01*
X5271667Y-16271476D02*
X5271667Y-16309571D01*
X5566905Y-16547667D02*
X5557381Y-16538143D01*
X5538333Y-16509571D01*
X5528810Y-16490524D01*
X5519286Y-16461952D01*
X5509762Y-16414333D01*
X5509762Y-16376238D01*
X5519286Y-16328619D01*
X5528810Y-16300048D01*
X5538333Y-16281000D01*
X5557381Y-16252428D01*
X5566905Y-16242905D01*
X5728809Y-16338143D02*
X5728809Y-16471476D01*
X5681190Y-16261952D02*
X5633571Y-16404809D01*
X5757381Y-16404809D01*
X5985952Y-16471476D02*
X5985952Y-16271476D01*
X6071667Y-16471476D02*
X6071667Y-16366714D01*
X6062143Y-16347667D01*
X6043095Y-16338143D01*
X6014524Y-16338143D01*
X5995476Y-16347667D01*
X5985952Y-16357190D01*
X6195476Y-16471476D02*
X6176428Y-16461952D01*
X6166905Y-16452428D01*
X6157381Y-16433381D01*
X6157381Y-16376238D01*
X6166905Y-16357190D01*
X6176428Y-16347667D01*
X6195476Y-16338143D01*
X6224048Y-16338143D01*
X6243095Y-16347667D01*
X6252619Y-16357190D01*
X6262143Y-16376238D01*
X6262143Y-16433381D01*
X6252619Y-16452428D01*
X6243095Y-16461952D01*
X6224048Y-16471476D01*
X6195476Y-16471476D01*
X6376428Y-16471476D02*
X6357381Y-16461952D01*
X6347857Y-16442905D01*
X6347857Y-16271476D01*
X6528809Y-16461952D02*
X6509762Y-16471476D01*
X6471667Y-16471476D01*
X6452619Y-16461952D01*
X6443095Y-16442905D01*
X6443095Y-16366714D01*
X6452619Y-16347667D01*
X6471667Y-16338143D01*
X6509762Y-16338143D01*
X6528809Y-16347667D01*
X6538333Y-16366714D01*
X6538333Y-16385762D01*
X6443095Y-16404809D01*
X6614524Y-16461952D02*
X6633571Y-16471476D01*
X6671667Y-16471476D01*
X6690714Y-16461952D01*
X6700238Y-16442905D01*
X6700238Y-16433381D01*
X6690714Y-16414333D01*
X6671667Y-16404809D01*
X6643095Y-16404809D01*
X6624048Y-16395286D01*
X6614524Y-16376238D01*
X6614524Y-16366714D01*
X6624048Y-16347667D01*
X6643095Y-16338143D01*
X6671667Y-16338143D01*
X6690714Y-16347667D01*
X6766905Y-16547667D02*
X6776428Y-16538143D01*
X6795476Y-16509571D01*
X6805000Y-16490524D01*
X6814524Y-16461952D01*
X6824048Y-16414333D01*
X6824048Y-16376238D01*
X6814524Y-16328619D01*
X6805000Y-16300048D01*
X6795476Y-16281000D01*
X6776428Y-16252428D01*
X6766905Y-16242905D01*
X1795000Y-16591000D02*
X1995000Y-16791000D01*
X1995000Y-16591000D02*
X1795000Y-16791000D01*
X1895000Y-16591000D02*
X1895000Y-16791000D01*
X1795000Y-16691000D02*
X1995000Y-16691000D01*
X2233571Y-16581476D02*
X2357381Y-16581476D01*
X2290714Y-16657667D01*
X2319286Y-16657667D01*
X2338333Y-16667190D01*
X2347857Y-16676714D01*
X2357381Y-16695762D01*
X2357381Y-16743381D01*
X2347857Y-16762428D01*
X2338333Y-16771952D01*
X2319286Y-16781476D01*
X2262143Y-16781476D01*
X2243095Y-16771952D01*
X2233571Y-16762428D01*
X2443095Y-16762428D02*
X2452619Y-16771952D01*
X2443095Y-16781476D01*
X2433571Y-16771952D01*
X2443095Y-16762428D01*
X2443095Y-16781476D01*
X2528810Y-16600524D02*
X2538333Y-16591000D01*
X2557381Y-16581476D01*
X2605000Y-16581476D01*
X2624048Y-16591000D01*
X2633571Y-16600524D01*
X2643095Y-16619571D01*
X2643095Y-16638619D01*
X2633571Y-16667190D01*
X2519286Y-16781476D01*
X2643095Y-16781476D01*
X2766905Y-16581476D02*
X2785952Y-16581476D01*
X2805000Y-16591000D01*
X2814524Y-16600524D01*
X2824048Y-16619571D01*
X2833571Y-16657667D01*
X2833571Y-16705286D01*
X2824048Y-16743381D01*
X2814524Y-16762428D01*
X2805000Y-16771952D01*
X2785952Y-16781476D01*
X2766905Y-16781476D01*
X2747857Y-16771952D01*
X2738333Y-16762428D01*
X2728810Y-16743381D01*
X2719286Y-16705286D01*
X2719286Y-16657667D01*
X2728810Y-16619571D01*
X2738333Y-16600524D01*
X2747857Y-16591000D01*
X2766905Y-16581476D01*
X2957381Y-16581476D02*
X2976428Y-16581476D01*
X2995476Y-16591000D01*
X3005000Y-16600524D01*
X3014524Y-16619571D01*
X3024048Y-16657667D01*
X3024048Y-16705286D01*
X3014524Y-16743381D01*
X3005000Y-16762428D01*
X2995476Y-16771952D01*
X2976428Y-16781476D01*
X2957381Y-16781476D01*
X2938333Y-16771952D01*
X2928809Y-16762428D01*
X2919286Y-16743381D01*
X2909762Y-16705286D01*
X2909762Y-16657667D01*
X2919286Y-16619571D01*
X2928809Y-16600524D01*
X2938333Y-16591000D01*
X2957381Y-16581476D01*
X3109762Y-16781476D02*
X3109762Y-16648143D01*
X3109762Y-16667190D02*
X3119286Y-16657667D01*
X3138333Y-16648143D01*
X3166905Y-16648143D01*
X3185952Y-16657667D01*
X3195476Y-16676714D01*
X3195476Y-16781476D01*
X3195476Y-16676714D02*
X3205000Y-16657667D01*
X3224048Y-16648143D01*
X3252619Y-16648143D01*
X3271667Y-16657667D01*
X3281190Y-16676714D01*
X3281190Y-16781476D01*
X3376428Y-16781476D02*
X3376428Y-16648143D01*
X3376428Y-16667190D02*
X3385952Y-16657667D01*
X3405000Y-16648143D01*
X3433571Y-16648143D01*
X3452619Y-16657667D01*
X3462143Y-16676714D01*
X3462143Y-16781476D01*
X3462143Y-16676714D02*
X3471667Y-16657667D01*
X3490714Y-16648143D01*
X3519286Y-16648143D01*
X3538333Y-16657667D01*
X3547857Y-16676714D01*
X3547857Y-16781476D01*
X3938333Y-16571952D02*
X3766905Y-16829095D01*
X4195476Y-16581476D02*
X4214524Y-16581476D01*
X4233571Y-16591000D01*
X4243095Y-16600524D01*
X4252619Y-16619571D01*
X4262143Y-16657667D01*
X4262143Y-16705286D01*
X4252619Y-16743381D01*
X4243095Y-16762428D01*
X4233571Y-16771952D01*
X4214524Y-16781476D01*
X4195476Y-16781476D01*
X4176428Y-16771952D01*
X4166905Y-16762428D01*
X4157381Y-16743381D01*
X4147857Y-16705286D01*
X4147857Y-16657667D01*
X4157381Y-16619571D01*
X4166905Y-16600524D01*
X4176428Y-16591000D01*
X4195476Y-16581476D01*
X4347857Y-16762428D02*
X4357381Y-16771952D01*
X4347857Y-16781476D01*
X4338333Y-16771952D01*
X4347857Y-16762428D01*
X4347857Y-16781476D01*
X4547857Y-16781476D02*
X4433571Y-16781476D01*
X4490714Y-16781476D02*
X4490714Y-16581476D01*
X4471667Y-16610048D01*
X4452619Y-16629095D01*
X4433571Y-16638619D01*
X4624048Y-16600524D02*
X4633571Y-16591000D01*
X4652619Y-16581476D01*
X4700238Y-16581476D01*
X4719286Y-16591000D01*
X4728810Y-16600524D01*
X4738333Y-16619571D01*
X4738333Y-16638619D01*
X4728810Y-16667190D01*
X4614524Y-16781476D01*
X4738333Y-16781476D01*
X4909762Y-16581476D02*
X4871667Y-16581476D01*
X4852619Y-16591000D01*
X4843095Y-16600524D01*
X4824048Y-16629095D01*
X4814524Y-16667190D01*
X4814524Y-16743381D01*
X4824048Y-16762428D01*
X4833571Y-16771952D01*
X4852619Y-16781476D01*
X4890714Y-16781476D01*
X4909762Y-16771952D01*
X4919286Y-16762428D01*
X4928810Y-16743381D01*
X4928810Y-16695762D01*
X4919286Y-16676714D01*
X4909762Y-16667190D01*
X4890714Y-16657667D01*
X4852619Y-16657667D01*
X4833571Y-16667190D01*
X4824048Y-16676714D01*
X4814524Y-16695762D01*
X5052619Y-16581476D02*
X5071667Y-16581476D01*
X5090714Y-16591000D01*
X5100238Y-16600524D01*
X5109762Y-16619571D01*
X5119286Y-16657667D01*
X5119286Y-16705286D01*
X5109762Y-16743381D01*
X5100238Y-16762428D01*
X5090714Y-16771952D01*
X5071667Y-16781476D01*
X5052619Y-16781476D01*
X5033571Y-16771952D01*
X5024048Y-16762428D01*
X5014524Y-16743381D01*
X5005000Y-16705286D01*
X5005000Y-16657667D01*
X5014524Y-16619571D01*
X5024048Y-16600524D01*
X5033571Y-16591000D01*
X5052619Y-16581476D01*
X5195476Y-16581476D02*
X5195476Y-16619571D01*
X5271667Y-16581476D02*
X5271667Y-16619571D01*
X5566905Y-16857667D02*
X5557381Y-16848143D01*
X5538333Y-16819571D01*
X5528810Y-16800524D01*
X5519286Y-16771952D01*
X5509762Y-16724333D01*
X5509762Y-16686238D01*
X5519286Y-16638619D01*
X5528810Y-16610048D01*
X5538333Y-16591000D01*
X5557381Y-16562428D01*
X5566905Y-16552905D01*
X5633571Y-16600524D02*
X5643095Y-16591000D01*
X5662143Y-16581476D01*
X5709762Y-16581476D01*
X5728809Y-16591000D01*
X5738333Y-16600524D01*
X5747857Y-16619571D01*
X5747857Y-16638619D01*
X5738333Y-16667190D01*
X5624048Y-16781476D01*
X5747857Y-16781476D01*
X5985952Y-16781476D02*
X5985952Y-16581476D01*
X6071667Y-16781476D02*
X6071667Y-16676714D01*
X6062143Y-16657667D01*
X6043095Y-16648143D01*
X6014524Y-16648143D01*
X5995476Y-16657667D01*
X5985952Y-16667190D01*
X6195476Y-16781476D02*
X6176428Y-16771952D01*
X6166905Y-16762428D01*
X6157381Y-16743381D01*
X6157381Y-16686238D01*
X6166905Y-16667190D01*
X6176428Y-16657667D01*
X6195476Y-16648143D01*
X6224048Y-16648143D01*
X6243095Y-16657667D01*
X6252619Y-16667190D01*
X6262143Y-16686238D01*
X6262143Y-16743381D01*
X6252619Y-16762428D01*
X6243095Y-16771952D01*
X6224048Y-16781476D01*
X6195476Y-16781476D01*
X6376428Y-16781476D02*
X6357381Y-16771952D01*
X6347857Y-16752905D01*
X6347857Y-16581476D01*
X6528809Y-16771952D02*
X6509762Y-16781476D01*
X6471667Y-16781476D01*
X6452619Y-16771952D01*
X6443095Y-16752905D01*
X6443095Y-16676714D01*
X6452619Y-16657667D01*
X6471667Y-16648143D01*
X6509762Y-16648143D01*
X6528809Y-16657667D01*
X6538333Y-16676714D01*
X6538333Y-16695762D01*
X6443095Y-16714809D01*
X6614524Y-16771952D02*
X6633571Y-16781476D01*
X6671667Y-16781476D01*
X6690714Y-16771952D01*
X6700238Y-16752905D01*
X6700238Y-16743381D01*
X6690714Y-16724333D01*
X6671667Y-16714809D01*
X6643095Y-16714809D01*
X6624048Y-16705286D01*
X6614524Y-16686238D01*
X6614524Y-16676714D01*
X6624048Y-16657667D01*
X6643095Y-16648143D01*
X6671667Y-16648143D01*
X6690714Y-16657667D01*
X6766905Y-16857667D02*
X6776428Y-16848143D01*
X6795476Y-16819571D01*
X6805000Y-16800524D01*
X6814524Y-16771952D01*
X6824048Y-16724333D01*
X6824048Y-16686238D01*
X6814524Y-16638619D01*
X6805000Y-16610048D01*
X6795476Y-16591000D01*
X6776428Y-16562428D01*
X6766905Y-16552905D01*
M02*
