%TF.GenerationSoftware,KiCad,Pcbnew,(6.0.0)*%
%TF.CreationDate,2022-08-27T11:05:42-04:00*%
%TF.ProjectId,VFD GPS Clock,56464420-4750-4532-9043-6c6f636b2e6b,rev?*%
%TF.SameCoordinates,Original*%
%TF.FileFunction,Paste,Top*%
%TF.FilePolarity,Positive*%
%FSLAX46Y46*%
G04 Gerber Fmt 4.6, Leading zero omitted, Abs format (unit mm)*
G04 Created by KiCad (PCBNEW (6.0.0)) date 2022-08-27 11:05:42*
%MOMM*%
%LPD*%
G01*
G04 APERTURE LIST*
G04 Aperture macros list*
%AMRoundRect*
0 Rectangle with rounded corners*
0 $1 Rounding radius*
0 $2 $3 $4 $5 $6 $7 $8 $9 X,Y pos of 4 corners*
0 Add a 4 corners polygon primitive as box body*
4,1,4,$2,$3,$4,$5,$6,$7,$8,$9,$2,$3,0*
0 Add four circle primitives for the rounded corners*
1,1,$1+$1,$2,$3*
1,1,$1+$1,$4,$5*
1,1,$1+$1,$6,$7*
1,1,$1+$1,$8,$9*
0 Add four rect primitives between the rounded corners*
20,1,$1+$1,$2,$3,$4,$5,0*
20,1,$1+$1,$4,$5,$6,$7,0*
20,1,$1+$1,$6,$7,$8,$9,0*
20,1,$1+$1,$8,$9,$2,$3,0*%
G04 Aperture macros list end*
%ADD10C,0.000100*%
%ADD11RoundRect,0.237500X-0.250000X-0.237500X0.250000X-0.237500X0.250000X0.237500X-0.250000X0.237500X0*%
%ADD12RoundRect,0.237500X-0.237500X0.300000X-0.237500X-0.300000X0.237500X-0.300000X0.237500X0.300000X0*%
%ADD13RoundRect,0.237500X-0.300000X-0.237500X0.300000X-0.237500X0.300000X0.237500X-0.300000X0.237500X0*%
%ADD14RoundRect,0.237500X0.300000X0.237500X-0.300000X0.237500X-0.300000X-0.237500X0.300000X-0.237500X0*%
%ADD15RoundRect,0.237500X-0.237500X0.250000X-0.237500X-0.250000X0.237500X-0.250000X0.237500X0.250000X0*%
%ADD16RoundRect,0.237500X0.237500X-0.250000X0.237500X0.250000X-0.237500X0.250000X-0.237500X-0.250000X0*%
%ADD17R,1.400000X1.600000*%
%ADD18R,0.510000X0.700000*%
%ADD19RoundRect,0.150000X-0.150000X0.587500X-0.150000X-0.587500X0.150000X-0.587500X0.150000X0.587500X0*%
%ADD20RoundRect,0.100000X-0.100000X0.637500X-0.100000X-0.637500X0.100000X-0.637500X0.100000X0.637500X0*%
%ADD21R,3.050000X2.750000*%
%ADD22R,2.200000X1.200000*%
%ADD23RoundRect,0.250000X0.475000X-0.337500X0.475000X0.337500X-0.475000X0.337500X-0.475000X-0.337500X0*%
%ADD24R,1.560000X0.650000*%
%ADD25R,1.500000X0.900000*%
%ADD26R,0.900000X1.500000*%
%ADD27R,1.050000X1.050000*%
%ADD28RoundRect,0.250000X-0.337500X-0.475000X0.337500X-0.475000X0.337500X0.475000X-0.337500X0.475000X0*%
%ADD29R,0.700000X1.600000*%
%ADD30RoundRect,0.250000X-0.412500X-0.650000X0.412500X-0.650000X0.412500X0.650000X-0.412500X0.650000X0*%
%ADD31RoundRect,0.237500X0.237500X-0.300000X0.237500X0.300000X-0.237500X0.300000X-0.237500X-0.300000X0*%
%ADD32RoundRect,0.250000X-0.650000X0.412500X-0.650000X-0.412500X0.650000X-0.412500X0.650000X0.412500X0*%
%ADD33RoundRect,0.250000X0.400000X1.450000X-0.400000X1.450000X-0.400000X-1.450000X0.400000X-1.450000X0*%
%ADD34RoundRect,0.250000X-0.350000X-0.450000X0.350000X-0.450000X0.350000X0.450000X-0.350000X0.450000X0*%
%ADD35RoundRect,0.160000X-0.160000X0.222500X-0.160000X-0.222500X0.160000X-0.222500X0.160000X0.222500X0*%
%ADD36R,0.900000X0.800000*%
%ADD37RoundRect,0.250000X0.337500X0.475000X-0.337500X0.475000X-0.337500X-0.475000X0.337500X-0.475000X0*%
%ADD38RoundRect,0.150000X0.825000X0.150000X-0.825000X0.150000X-0.825000X-0.150000X0.825000X-0.150000X0*%
%ADD39R,1.500000X2.000000*%
%ADD40R,3.800000X2.000000*%
%ADD41R,0.700000X0.340000*%
G04 APERTURE END LIST*
D10*
%TO.C,U2*%
X46950000Y-129950000D02*
X48350000Y-129950000D01*
X48350000Y-129950000D02*
X48350000Y-130050000D01*
X48350000Y-130050000D02*
X49250000Y-130050000D01*
X49250000Y-130050000D02*
X49250000Y-130550000D01*
X49250000Y-130550000D02*
X48350000Y-130550000D01*
X48350000Y-130550000D02*
X48350000Y-130650000D01*
X48350000Y-130650000D02*
X46950000Y-130650000D01*
X46950000Y-130650000D02*
X46950000Y-129950000D01*
G36*
X48350000Y-130050000D02*
G01*
X49250000Y-130050000D01*
X49250000Y-130550000D01*
X48350000Y-130550000D01*
X48350000Y-130650000D01*
X46950000Y-130650000D01*
X46950000Y-129950000D01*
X48350000Y-129950000D01*
X48350000Y-130050000D01*
G37*
X48350000Y-130050000D02*
X49250000Y-130050000D01*
X49250000Y-130550000D01*
X48350000Y-130550000D01*
X48350000Y-130650000D01*
X46950000Y-130650000D01*
X46950000Y-129950000D01*
X48350000Y-129950000D01*
X48350000Y-130050000D01*
X59450000Y-128500000D02*
X58050000Y-128500000D01*
X58050000Y-128500000D02*
X58050000Y-128400000D01*
X58050000Y-128400000D02*
X57150000Y-128400000D01*
X57150000Y-128400000D02*
X57150000Y-127800000D01*
X57150000Y-127800000D02*
X58050000Y-127800000D01*
X58050000Y-127800000D02*
X58050000Y-127700000D01*
X58050000Y-127700000D02*
X59450000Y-127700000D01*
X59450000Y-127700000D02*
X59450000Y-128500000D01*
G36*
X59450000Y-128500000D02*
G01*
X58050000Y-128500000D01*
X58050000Y-128400000D01*
X57150000Y-128400000D01*
X57150000Y-127800000D01*
X58050000Y-127800000D01*
X58050000Y-127700000D01*
X59450000Y-127700000D01*
X59450000Y-128500000D01*
G37*
X59450000Y-128500000D02*
X58050000Y-128500000D01*
X58050000Y-128400000D01*
X57150000Y-128400000D01*
X57150000Y-127800000D01*
X58050000Y-127800000D01*
X58050000Y-127700000D01*
X59450000Y-127700000D01*
X59450000Y-128500000D01*
X59450000Y-126300000D02*
X58050000Y-126300000D01*
X58050000Y-126300000D02*
X58050000Y-126200000D01*
X58050000Y-126200000D02*
X57150000Y-126200000D01*
X57150000Y-126200000D02*
X57150000Y-125600000D01*
X57150000Y-125600000D02*
X58050000Y-125600000D01*
X58050000Y-125600000D02*
X58050000Y-125500000D01*
X58050000Y-125500000D02*
X59450000Y-125500000D01*
X59450000Y-125500000D02*
X59450000Y-126300000D01*
G36*
X59450000Y-126300000D02*
G01*
X58050000Y-126300000D01*
X58050000Y-126200000D01*
X57150000Y-126200000D01*
X57150000Y-125600000D01*
X58050000Y-125600000D01*
X58050000Y-125500000D01*
X59450000Y-125500000D01*
X59450000Y-126300000D01*
G37*
X59450000Y-126300000D02*
X58050000Y-126300000D01*
X58050000Y-126200000D01*
X57150000Y-126200000D01*
X57150000Y-125600000D01*
X58050000Y-125600000D01*
X58050000Y-125500000D01*
X59450000Y-125500000D01*
X59450000Y-126300000D01*
X59450000Y-124100000D02*
X58050000Y-124100000D01*
X58050000Y-124100000D02*
X58050000Y-124000000D01*
X58050000Y-124000000D02*
X57150000Y-124000000D01*
X57150000Y-124000000D02*
X57150000Y-123400000D01*
X57150000Y-123400000D02*
X58050000Y-123400000D01*
X58050000Y-123400000D02*
X58050000Y-123300000D01*
X58050000Y-123300000D02*
X59450000Y-123300000D01*
X59450000Y-123300000D02*
X59450000Y-124100000D01*
G36*
X59450000Y-124100000D02*
G01*
X58050000Y-124100000D01*
X58050000Y-124000000D01*
X57150000Y-124000000D01*
X57150000Y-123400000D01*
X58050000Y-123400000D01*
X58050000Y-123300000D01*
X59450000Y-123300000D01*
X59450000Y-124100000D01*
G37*
X59450000Y-124100000D02*
X58050000Y-124100000D01*
X58050000Y-124000000D01*
X57150000Y-124000000D01*
X57150000Y-123400000D01*
X58050000Y-123400000D01*
X58050000Y-123300000D01*
X59450000Y-123300000D01*
X59450000Y-124100000D01*
X46950000Y-121150000D02*
X48350000Y-121150000D01*
X48350000Y-121150000D02*
X48350000Y-121250000D01*
X48350000Y-121250000D02*
X49250000Y-121250000D01*
X49250000Y-121250000D02*
X49250000Y-121750000D01*
X49250000Y-121750000D02*
X48350000Y-121750000D01*
X48350000Y-121750000D02*
X48350000Y-121850000D01*
X48350000Y-121850000D02*
X46950000Y-121850000D01*
X46950000Y-121850000D02*
X46950000Y-121150000D01*
G36*
X48350000Y-121250000D02*
G01*
X49250000Y-121250000D01*
X49250000Y-121750000D01*
X48350000Y-121750000D01*
X48350000Y-121850000D01*
X46950000Y-121850000D01*
X46950000Y-121150000D01*
X48350000Y-121150000D01*
X48350000Y-121250000D01*
G37*
X48350000Y-121250000D02*
X49250000Y-121250000D01*
X49250000Y-121750000D01*
X48350000Y-121750000D01*
X48350000Y-121850000D01*
X46950000Y-121850000D01*
X46950000Y-121150000D01*
X48350000Y-121150000D01*
X48350000Y-121250000D01*
X59450000Y-123000000D02*
X58050000Y-123000000D01*
X58050000Y-123000000D02*
X58050000Y-122900000D01*
X58050000Y-122900000D02*
X57150000Y-122900000D01*
X57150000Y-122900000D02*
X57150000Y-122300000D01*
X57150000Y-122300000D02*
X58050000Y-122300000D01*
X58050000Y-122300000D02*
X58050000Y-122200000D01*
X58050000Y-122200000D02*
X59450000Y-122200000D01*
X59450000Y-122200000D02*
X59450000Y-123000000D01*
G36*
X59450000Y-123000000D02*
G01*
X58050000Y-123000000D01*
X58050000Y-122900000D01*
X57150000Y-122900000D01*
X57150000Y-122300000D01*
X58050000Y-122300000D01*
X58050000Y-122200000D01*
X59450000Y-122200000D01*
X59450000Y-123000000D01*
G37*
X59450000Y-123000000D02*
X58050000Y-123000000D01*
X58050000Y-122900000D01*
X57150000Y-122900000D01*
X57150000Y-122300000D01*
X58050000Y-122300000D01*
X58050000Y-122200000D01*
X59450000Y-122200000D01*
X59450000Y-123000000D01*
X59450000Y-125200000D02*
X58050000Y-125200000D01*
X58050000Y-125200000D02*
X58050000Y-125100000D01*
X58050000Y-125100000D02*
X57150000Y-125100000D01*
X57150000Y-125100000D02*
X57150000Y-124500000D01*
X57150000Y-124500000D02*
X58050000Y-124500000D01*
X58050000Y-124500000D02*
X58050000Y-124400000D01*
X58050000Y-124400000D02*
X59450000Y-124400000D01*
X59450000Y-124400000D02*
X59450000Y-125200000D01*
G36*
X59450000Y-125200000D02*
G01*
X58050000Y-125200000D01*
X58050000Y-125100000D01*
X57150000Y-125100000D01*
X57150000Y-124500000D01*
X58050000Y-124500000D01*
X58050000Y-124400000D01*
X59450000Y-124400000D01*
X59450000Y-125200000D01*
G37*
X59450000Y-125200000D02*
X58050000Y-125200000D01*
X58050000Y-125100000D01*
X57150000Y-125100000D01*
X57150000Y-124500000D01*
X58050000Y-124500000D01*
X58050000Y-124400000D01*
X59450000Y-124400000D01*
X59450000Y-125200000D01*
X59450000Y-130650000D02*
X58050000Y-130650000D01*
X58050000Y-130650000D02*
X58050000Y-130550000D01*
X58050000Y-130550000D02*
X57150000Y-130550000D01*
X57150000Y-130550000D02*
X57150000Y-130050000D01*
X57150000Y-130050000D02*
X58050000Y-130050000D01*
X58050000Y-130050000D02*
X58050000Y-129950000D01*
X58050000Y-129950000D02*
X59450000Y-129950000D01*
X59450000Y-129950000D02*
X59450000Y-130650000D01*
G36*
X59450000Y-130650000D02*
G01*
X58050000Y-130650000D01*
X58050000Y-130550000D01*
X57150000Y-130550000D01*
X57150000Y-130050000D01*
X58050000Y-130050000D01*
X58050000Y-129950000D01*
X59450000Y-129950000D01*
X59450000Y-130650000D01*
G37*
X59450000Y-130650000D02*
X58050000Y-130650000D01*
X58050000Y-130550000D01*
X57150000Y-130550000D01*
X57150000Y-130050000D01*
X58050000Y-130050000D01*
X58050000Y-129950000D01*
X59450000Y-129950000D01*
X59450000Y-130650000D01*
X46950000Y-127700000D02*
X48350000Y-127700000D01*
X48350000Y-127700000D02*
X48350000Y-127800000D01*
X48350000Y-127800000D02*
X49250000Y-127800000D01*
X49250000Y-127800000D02*
X49250000Y-128400000D01*
X49250000Y-128400000D02*
X48350000Y-128400000D01*
X48350000Y-128400000D02*
X48350000Y-128500000D01*
X48350000Y-128500000D02*
X46950000Y-128500000D01*
X46950000Y-128500000D02*
X46950000Y-127700000D01*
G36*
X48350000Y-127800000D02*
G01*
X49250000Y-127800000D01*
X49250000Y-128400000D01*
X48350000Y-128400000D01*
X48350000Y-128500000D01*
X46950000Y-128500000D01*
X46950000Y-127700000D01*
X48350000Y-127700000D01*
X48350000Y-127800000D01*
G37*
X48350000Y-127800000D02*
X49250000Y-127800000D01*
X49250000Y-128400000D01*
X48350000Y-128400000D01*
X48350000Y-128500000D01*
X46950000Y-128500000D01*
X46950000Y-127700000D01*
X48350000Y-127700000D01*
X48350000Y-127800000D01*
X46950000Y-122200000D02*
X48350000Y-122200000D01*
X48350000Y-122200000D02*
X48350000Y-122300000D01*
X48350000Y-122300000D02*
X49250000Y-122300000D01*
X49250000Y-122300000D02*
X49250000Y-122900000D01*
X49250000Y-122900000D02*
X48350000Y-122900000D01*
X48350000Y-122900000D02*
X48350000Y-123000000D01*
X48350000Y-123000000D02*
X46950000Y-123000000D01*
X46950000Y-123000000D02*
X46950000Y-122200000D01*
G36*
X48350000Y-122300000D02*
G01*
X49250000Y-122300000D01*
X49250000Y-122900000D01*
X48350000Y-122900000D01*
X48350000Y-123000000D01*
X46950000Y-123000000D01*
X46950000Y-122200000D01*
X48350000Y-122200000D01*
X48350000Y-122300000D01*
G37*
X48350000Y-122300000D02*
X49250000Y-122300000D01*
X49250000Y-122900000D01*
X48350000Y-122900000D01*
X48350000Y-123000000D01*
X46950000Y-123000000D01*
X46950000Y-122200000D01*
X48350000Y-122200000D01*
X48350000Y-122300000D01*
X46950000Y-125500000D02*
X48350000Y-125500000D01*
X48350000Y-125500000D02*
X48350000Y-125600000D01*
X48350000Y-125600000D02*
X49250000Y-125600000D01*
X49250000Y-125600000D02*
X49250000Y-126200000D01*
X49250000Y-126200000D02*
X48350000Y-126200000D01*
X48350000Y-126200000D02*
X48350000Y-126300000D01*
X48350000Y-126300000D02*
X46950000Y-126300000D01*
X46950000Y-126300000D02*
X46950000Y-125500000D01*
G36*
X48350000Y-125600000D02*
G01*
X49250000Y-125600000D01*
X49250000Y-126200000D01*
X48350000Y-126200000D01*
X48350000Y-126300000D01*
X46950000Y-126300000D01*
X46950000Y-125500000D01*
X48350000Y-125500000D01*
X48350000Y-125600000D01*
G37*
X48350000Y-125600000D02*
X49250000Y-125600000D01*
X49250000Y-126200000D01*
X48350000Y-126200000D01*
X48350000Y-126300000D01*
X46950000Y-126300000D01*
X46950000Y-125500000D01*
X48350000Y-125500000D01*
X48350000Y-125600000D01*
X46950000Y-128800000D02*
X48350000Y-128800000D01*
X48350000Y-128800000D02*
X48350000Y-128900000D01*
X48350000Y-128900000D02*
X49250000Y-128900000D01*
X49250000Y-128900000D02*
X49250000Y-129500000D01*
X49250000Y-129500000D02*
X48350000Y-129500000D01*
X48350000Y-129500000D02*
X48350000Y-129600000D01*
X48350000Y-129600000D02*
X46950000Y-129600000D01*
X46950000Y-129600000D02*
X46950000Y-128800000D01*
G36*
X48350000Y-128900000D02*
G01*
X49250000Y-128900000D01*
X49250000Y-129500000D01*
X48350000Y-129500000D01*
X48350000Y-129600000D01*
X46950000Y-129600000D01*
X46950000Y-128800000D01*
X48350000Y-128800000D01*
X48350000Y-128900000D01*
G37*
X48350000Y-128900000D02*
X49250000Y-128900000D01*
X49250000Y-129500000D01*
X48350000Y-129500000D01*
X48350000Y-129600000D01*
X46950000Y-129600000D01*
X46950000Y-128800000D01*
X48350000Y-128800000D01*
X48350000Y-128900000D01*
X59450000Y-129600000D02*
X58050000Y-129600000D01*
X58050000Y-129600000D02*
X58050000Y-129500000D01*
X58050000Y-129500000D02*
X57150000Y-129500000D01*
X57150000Y-129500000D02*
X57150000Y-128900000D01*
X57150000Y-128900000D02*
X58050000Y-128900000D01*
X58050000Y-128900000D02*
X58050000Y-128800000D01*
X58050000Y-128800000D02*
X59450000Y-128800000D01*
X59450000Y-128800000D02*
X59450000Y-129600000D01*
G36*
X59450000Y-129600000D02*
G01*
X58050000Y-129600000D01*
X58050000Y-129500000D01*
X57150000Y-129500000D01*
X57150000Y-128900000D01*
X58050000Y-128900000D01*
X58050000Y-128800000D01*
X59450000Y-128800000D01*
X59450000Y-129600000D01*
G37*
X59450000Y-129600000D02*
X58050000Y-129600000D01*
X58050000Y-129500000D01*
X57150000Y-129500000D01*
X57150000Y-128900000D01*
X58050000Y-128900000D01*
X58050000Y-128800000D01*
X59450000Y-128800000D01*
X59450000Y-129600000D01*
X46950000Y-126600000D02*
X48350000Y-126600000D01*
X48350000Y-126600000D02*
X48350000Y-126700000D01*
X48350000Y-126700000D02*
X49250000Y-126700000D01*
X49250000Y-126700000D02*
X49250000Y-127300000D01*
X49250000Y-127300000D02*
X48350000Y-127300000D01*
X48350000Y-127300000D02*
X48350000Y-127400000D01*
X48350000Y-127400000D02*
X46950000Y-127400000D01*
X46950000Y-127400000D02*
X46950000Y-126600000D01*
G36*
X48350000Y-126700000D02*
G01*
X49250000Y-126700000D01*
X49250000Y-127300000D01*
X48350000Y-127300000D01*
X48350000Y-127400000D01*
X46950000Y-127400000D01*
X46950000Y-126600000D01*
X48350000Y-126600000D01*
X48350000Y-126700000D01*
G37*
X48350000Y-126700000D02*
X49250000Y-126700000D01*
X49250000Y-127300000D01*
X48350000Y-127300000D01*
X48350000Y-127400000D01*
X46950000Y-127400000D01*
X46950000Y-126600000D01*
X48350000Y-126600000D01*
X48350000Y-126700000D01*
X59450000Y-121850000D02*
X58050000Y-121850000D01*
X58050000Y-121850000D02*
X58050000Y-121750000D01*
X58050000Y-121750000D02*
X57150000Y-121750000D01*
X57150000Y-121750000D02*
X57150000Y-121250000D01*
X57150000Y-121250000D02*
X58050000Y-121250000D01*
X58050000Y-121250000D02*
X58050000Y-121150000D01*
X58050000Y-121150000D02*
X59450000Y-121150000D01*
X59450000Y-121150000D02*
X59450000Y-121850000D01*
G36*
X59450000Y-121850000D02*
G01*
X58050000Y-121850000D01*
X58050000Y-121750000D01*
X57150000Y-121750000D01*
X57150000Y-121250000D01*
X58050000Y-121250000D01*
X58050000Y-121150000D01*
X59450000Y-121150000D01*
X59450000Y-121850000D01*
G37*
X59450000Y-121850000D02*
X58050000Y-121850000D01*
X58050000Y-121750000D01*
X57150000Y-121750000D01*
X57150000Y-121250000D01*
X58050000Y-121250000D01*
X58050000Y-121150000D01*
X59450000Y-121150000D01*
X59450000Y-121850000D01*
X46950000Y-124400000D02*
X48350000Y-124400000D01*
X48350000Y-124400000D02*
X48350000Y-124500000D01*
X48350000Y-124500000D02*
X49250000Y-124500000D01*
X49250000Y-124500000D02*
X49250000Y-125100000D01*
X49250000Y-125100000D02*
X48350000Y-125100000D01*
X48350000Y-125100000D02*
X48350000Y-125200000D01*
X48350000Y-125200000D02*
X46950000Y-125200000D01*
X46950000Y-125200000D02*
X46950000Y-124400000D01*
G36*
X48350000Y-124500000D02*
G01*
X49250000Y-124500000D01*
X49250000Y-125100000D01*
X48350000Y-125100000D01*
X48350000Y-125200000D01*
X46950000Y-125200000D01*
X46950000Y-124400000D01*
X48350000Y-124400000D01*
X48350000Y-124500000D01*
G37*
X48350000Y-124500000D02*
X49250000Y-124500000D01*
X49250000Y-125100000D01*
X48350000Y-125100000D01*
X48350000Y-125200000D01*
X46950000Y-125200000D01*
X46950000Y-124400000D01*
X48350000Y-124400000D01*
X48350000Y-124500000D01*
X46950000Y-123300000D02*
X48350000Y-123300000D01*
X48350000Y-123300000D02*
X48350000Y-123400000D01*
X48350000Y-123400000D02*
X49250000Y-123400000D01*
X49250000Y-123400000D02*
X49250000Y-124000000D01*
X49250000Y-124000000D02*
X48350000Y-124000000D01*
X48350000Y-124000000D02*
X48350000Y-124100000D01*
X48350000Y-124100000D02*
X46950000Y-124100000D01*
X46950000Y-124100000D02*
X46950000Y-123300000D01*
G36*
X48350000Y-123400000D02*
G01*
X49250000Y-123400000D01*
X49250000Y-124000000D01*
X48350000Y-124000000D01*
X48350000Y-124100000D01*
X46950000Y-124100000D01*
X46950000Y-123300000D01*
X48350000Y-123300000D01*
X48350000Y-123400000D01*
G37*
X48350000Y-123400000D02*
X49250000Y-123400000D01*
X49250000Y-124000000D01*
X48350000Y-124000000D01*
X48350000Y-124100000D01*
X46950000Y-124100000D01*
X46950000Y-123300000D01*
X48350000Y-123300000D01*
X48350000Y-123400000D01*
X59450000Y-127400000D02*
X58050000Y-127400000D01*
X58050000Y-127400000D02*
X58050000Y-127300000D01*
X58050000Y-127300000D02*
X57150000Y-127300000D01*
X57150000Y-127300000D02*
X57150000Y-126700000D01*
X57150000Y-126700000D02*
X58050000Y-126700000D01*
X58050000Y-126700000D02*
X58050000Y-126600000D01*
X58050000Y-126600000D02*
X59450000Y-126600000D01*
X59450000Y-126600000D02*
X59450000Y-127400000D01*
G36*
X59450000Y-127400000D02*
G01*
X58050000Y-127400000D01*
X58050000Y-127300000D01*
X57150000Y-127300000D01*
X57150000Y-126700000D01*
X58050000Y-126700000D01*
X58050000Y-126600000D01*
X59450000Y-126600000D01*
X59450000Y-127400000D01*
G37*
X59450000Y-127400000D02*
X58050000Y-127400000D01*
X58050000Y-127300000D01*
X57150000Y-127300000D01*
X57150000Y-126700000D01*
X58050000Y-126700000D01*
X58050000Y-126600000D01*
X59450000Y-126600000D01*
X59450000Y-127400000D01*
%TD*%
D11*
%TO.C,R11*%
X140187500Y-117200000D03*
X142012500Y-117200000D03*
%TD*%
D12*
%TO.C,C24*%
X182775000Y-124712500D03*
X182775000Y-126437500D03*
%TD*%
D13*
%TO.C,C16*%
X199137500Y-132100000D03*
X200862500Y-132100000D03*
%TD*%
D14*
%TO.C,C21*%
X133862500Y-130300000D03*
X132137500Y-130300000D03*
%TD*%
D15*
%TO.C,R6*%
X86575000Y-109012500D03*
X86575000Y-110837500D03*
%TD*%
D16*
%TO.C,R2*%
X44050000Y-130212500D03*
X44050000Y-128387500D03*
%TD*%
D17*
%TO.C,SW1*%
X62700000Y-117637500D03*
X67200000Y-117637500D03*
X62700000Y-109237500D03*
X67200000Y-109237500D03*
X64950000Y-117637500D03*
%TD*%
D18*
%TO.C,U8*%
X52625000Y-113540000D03*
X51675000Y-113540000D03*
X50725000Y-113540000D03*
X50725000Y-115860000D03*
X51675000Y-115860000D03*
X52625000Y-115860000D03*
%TD*%
D17*
%TO.C,SW5*%
X143450000Y-114900000D03*
X147950000Y-114900000D03*
X143450000Y-106500000D03*
X147950000Y-106500000D03*
X145700000Y-114900000D03*
%TD*%
D19*
%TO.C,Q3*%
X79200000Y-109012500D03*
X77300000Y-109012500D03*
X78250000Y-110887500D03*
%TD*%
D20*
%TO.C,U9*%
X180525000Y-126037500D03*
X179875000Y-126037500D03*
X179225000Y-126037500D03*
X178575000Y-126037500D03*
X177925000Y-126037500D03*
X177275000Y-126037500D03*
X176625000Y-126037500D03*
X175975000Y-126037500D03*
X175325000Y-126037500D03*
X174675000Y-126037500D03*
X174675000Y-131762500D03*
X175325000Y-131762500D03*
X175975000Y-131762500D03*
X176625000Y-131762500D03*
X177275000Y-131762500D03*
X177925000Y-131762500D03*
X178575000Y-131762500D03*
X179225000Y-131762500D03*
X179875000Y-131762500D03*
X180525000Y-131762500D03*
%TD*%
D21*
%TO.C,Q2*%
X215350000Y-117500000D03*
X215350000Y-120550000D03*
X212000000Y-120550000D03*
X212000000Y-117500000D03*
D22*
X207375000Y-116745000D03*
X207375000Y-119025000D03*
X207375000Y-121305000D03*
%TD*%
D13*
%TO.C,C23*%
X144862500Y-130300000D03*
X146587500Y-130300000D03*
%TD*%
%TO.C,C14*%
X212337500Y-139300000D03*
X214062500Y-139300000D03*
%TD*%
D23*
%TO.C,C6*%
X192700000Y-122937500D03*
X192700000Y-120862500D03*
%TD*%
D15*
%TO.C,R9*%
X50200000Y-137587500D03*
X50200000Y-139412500D03*
%TD*%
D24*
%TO.C,U6*%
X42000000Y-132925000D03*
X42000000Y-133875000D03*
X42000000Y-134825000D03*
X44700000Y-134825000D03*
X44700000Y-132925000D03*
%TD*%
D19*
%TO.C,Q4*%
X84700000Y-109012500D03*
X82800000Y-109012500D03*
X83750000Y-110887500D03*
%TD*%
D25*
%TO.C,U1*%
X116900000Y-136185000D03*
X116900000Y-134915000D03*
X116900000Y-133645000D03*
X116900000Y-132375000D03*
X116900000Y-131105000D03*
X116900000Y-129835000D03*
X116900000Y-128565000D03*
X116900000Y-127295000D03*
X116900000Y-126025000D03*
X116900000Y-124755000D03*
X116900000Y-123485000D03*
X116900000Y-122215000D03*
X116900000Y-120945000D03*
X116900000Y-119675000D03*
D26*
X113870000Y-118425000D03*
X112600000Y-118425000D03*
X111330000Y-118425000D03*
X110060000Y-118425000D03*
X108790000Y-118425000D03*
X107520000Y-118425000D03*
X106250000Y-118425000D03*
X104980000Y-118425000D03*
X103710000Y-118425000D03*
X102440000Y-118425000D03*
D25*
X99400000Y-119675000D03*
X99400000Y-120945000D03*
X99400000Y-122215000D03*
X99400000Y-123485000D03*
X99400000Y-124755000D03*
X99400000Y-126025000D03*
X99400000Y-127295000D03*
X99400000Y-128565000D03*
X99400000Y-129835000D03*
X99400000Y-131105000D03*
X99400000Y-132375000D03*
X99400000Y-133645000D03*
X99400000Y-134915000D03*
X99400000Y-136185000D03*
D27*
X108830000Y-130370000D03*
X110355000Y-130370000D03*
X108830000Y-128845000D03*
X110355000Y-128845000D03*
X107305000Y-127320000D03*
X107305000Y-130370000D03*
X108830000Y-127320000D03*
X107305000Y-128845000D03*
X110355000Y-127320000D03*
%TD*%
D28*
%TO.C,C4*%
X212362500Y-137250000D03*
X214437500Y-137250000D03*
%TD*%
D29*
%TO.C,U10*%
X106395000Y-103700000D03*
X107665000Y-103700000D03*
X108935000Y-103700000D03*
X110205000Y-103700000D03*
%TD*%
D13*
%TO.C,C28*%
X143937500Y-117200000D03*
X145662500Y-117200000D03*
%TD*%
D30*
%TO.C,C3*%
X212437500Y-132200000D03*
X215562500Y-132200000D03*
%TD*%
D16*
%TO.C,R5*%
X81000000Y-110837500D03*
X81000000Y-109012500D03*
%TD*%
D11*
%TO.C,R7*%
X121587500Y-136300000D03*
X123412500Y-136300000D03*
%TD*%
D31*
%TO.C,C17*%
X52125000Y-119312500D03*
X52125000Y-117587500D03*
%TD*%
D17*
%TO.C,SW4*%
X130750000Y-114900000D03*
X135250000Y-114900000D03*
X130750000Y-106500000D03*
X135250000Y-106500000D03*
X133000000Y-114900000D03*
%TD*%
D32*
%TO.C,C2*%
X211200000Y-105937500D03*
X211200000Y-109062500D03*
%TD*%
D13*
%TO.C,C27*%
X131237500Y-117200000D03*
X132962500Y-117200000D03*
%TD*%
D33*
%TO.C,F1*%
X218125000Y-126900000D03*
X213675000Y-126900000D03*
%TD*%
D34*
%TO.C,R1*%
X35700000Y-131600000D03*
X37700000Y-131600000D03*
%TD*%
D17*
%TO.C,SW6*%
X156150000Y-114900000D03*
X160650000Y-114900000D03*
X156150000Y-106500000D03*
X160650000Y-106500000D03*
X158400000Y-114900000D03*
%TD*%
D15*
%TO.C,R4*%
X72625000Y-108187500D03*
X72625000Y-110012500D03*
%TD*%
D17*
%TO.C,SW3*%
X143475000Y-141912500D03*
X147975000Y-141912500D03*
X143475000Y-133512500D03*
X147975000Y-133512500D03*
X145725000Y-141912500D03*
%TD*%
D12*
%TO.C,C20*%
X121600000Y-138137500D03*
X121600000Y-139862500D03*
%TD*%
D35*
%TO.C,L1*%
X35700000Y-128527500D03*
X35700000Y-129672500D03*
%TD*%
D36*
%TO.C,D1*%
X209250000Y-112050000D03*
X207250000Y-113000000D03*
X209250000Y-113950000D03*
%TD*%
D11*
%TO.C,R12*%
X152887500Y-117200000D03*
X154712500Y-117200000D03*
%TD*%
D23*
%TO.C,C8*%
X119600000Y-138837500D03*
X119600000Y-136762500D03*
%TD*%
D16*
%TO.C,R3*%
X211200000Y-113812500D03*
X211200000Y-111987500D03*
%TD*%
D31*
%TO.C,C18*%
X56200000Y-119312500D03*
X56200000Y-117587500D03*
%TD*%
%TO.C,C15*%
X47125000Y-134637500D03*
X47125000Y-132912500D03*
%TD*%
D18*
%TO.C,U7*%
X57125000Y-113540000D03*
X56175000Y-113540000D03*
X55225000Y-113540000D03*
X55225000Y-115860000D03*
X56175000Y-115860000D03*
X57125000Y-115860000D03*
%TD*%
D31*
%TO.C,C25*%
X182925000Y-134887500D03*
X182925000Y-133162500D03*
%TD*%
D13*
%TO.C,C11*%
X83812500Y-119600000D03*
X85537500Y-119600000D03*
%TD*%
D37*
%TO.C,C7*%
X63387500Y-121600000D03*
X61312500Y-121600000D03*
%TD*%
D14*
%TO.C,C26*%
X106925000Y-106800000D03*
X105200000Y-106800000D03*
%TD*%
D17*
%TO.C,SW2*%
X130750000Y-141912500D03*
X135250000Y-141912500D03*
X130750000Y-133512500D03*
X135250000Y-133512500D03*
X133000000Y-141912500D03*
%TD*%
D14*
%TO.C,C13*%
X63037500Y-123700000D03*
X61312500Y-123700000D03*
%TD*%
D16*
%TO.C,R8*%
X48100000Y-139425000D03*
X48100000Y-137600000D03*
%TD*%
D13*
%TO.C,C10*%
X35737500Y-126900000D03*
X37462500Y-126900000D03*
%TD*%
D38*
%TO.C,U5*%
X81075000Y-120880000D03*
X81075000Y-119610000D03*
X81075000Y-118340000D03*
X81075000Y-117070000D03*
X76125000Y-117070000D03*
X76125000Y-118340000D03*
X76125000Y-119610000D03*
X76125000Y-120880000D03*
%TD*%
D13*
%TO.C,C9*%
X32437500Y-129600000D03*
X34162500Y-129600000D03*
%TD*%
D14*
%TO.C,C12*%
X214162500Y-134400000D03*
X212437500Y-134400000D03*
%TD*%
D39*
%TO.C,U4*%
X191900000Y-131650000D03*
D40*
X194200000Y-125350000D03*
D39*
X194200000Y-131650000D03*
X196500000Y-131650000D03*
%TD*%
D12*
%TO.C,C22*%
X123400000Y-138137500D03*
X123400000Y-139862500D03*
%TD*%
D41*
%TO.C,Q1*%
X40850000Y-128800000D03*
X40850000Y-129300000D03*
X40850000Y-129800000D03*
X42350000Y-129800000D03*
X42350000Y-129300000D03*
X42350000Y-128800000D03*
%TD*%
D11*
%TO.C,R10*%
X127487500Y-117200000D03*
X129312500Y-117200000D03*
%TD*%
D31*
%TO.C,C19*%
X195600000Y-122962500D03*
X195600000Y-121237500D03*
%TD*%
D28*
%TO.C,C5*%
X198962500Y-129900000D03*
X201037500Y-129900000D03*
%TD*%
D13*
%TO.C,C29*%
X156637500Y-117200000D03*
X158362500Y-117200000D03*
%TD*%
M02*
